NamdhinggoSILMaster-ExtraBold.ufo
<glyph name="numbersign" format="2">
  <advance width="1100"/>
  <unicode hex="0023"/>
  <outline>
    <contour>
      <point x="217" y="705" type="line"/>
      <point x="188" y="685"/>
      <point x="111" y="616"/>
      <point x="88" y="587" type="curve"/>
      <point x="129" y="541" type="line"/>
      <point x="901" y="541" type="line"/>
      <point x="950" y="566"/>
      <point x="1005" y="588"/>
      <point x="1060" y="655" type="curve"/>
      <point x="1025" y="705" type="line"/>
    </contour>
    <contour>
      <point x="179" y="411" type="line"/>
      <point x="149" y="390"/>
      <point x="73" y="322"/>
      <point x="50" y="292" type="curve"/>
      <point x="89" y="247" type="line"/>
      <point x="848" y="247" type="line"/>
      <point x="897" y="272"/>
      <point x="951" y="294"/>
      <point x="1006" y="359" type="curve"/>
      <point x="971" y="411" type="line"/>
    </contour>
    <contour>
      <point x="195" y="10" type="line"/>
      <point x="231" y="-25" type="line"/>
      <point x="278" y="-5"/>
      <point x="362" y="37"/>
      <point x="399" y="75" type="curve"/>
      <point x="586" y="936" type="line"/>
      <point x="544" y="969" type="line"/>
      <point x="495" y="942"/>
      <point x="423" y="912"/>
      <point x="376" y="878" type="curve"/>
    </contour>
    <contour>
      <point x="534" y="10" type="line"/>
      <point x="571" y="-25" type="line"/>
      <point x="617" y="-5"/>
      <point x="700" y="37"/>
      <point x="738" y="75" type="curve"/>
      <point x="925" y="936" type="line"/>
      <point x="883" y="969" type="line"/>
      <point x="834" y="942"/>
      <point x="762" y="912"/>
      <point x="715" y="878" type="curve"/>
    </contour>
  </outline>
</glyph>
<glyph name="dollar" format="2">
  <advance width="930"/>
  <unicode hex="0024"/>
  <outline>
    <contour>
      <point x="477" y="995" type="curve" smooth="yes"/>
      <point x="263" y="995"/>
      <point x="103" y="825"/>
      <point x="104" y="698" type="curve" smooth="yes"/>
      <point x="105" y="554"/>
      <point x="195" y="496"/>
      <point x="443" y="420" type="curve" smooth="yes"/>
      <point x="557" y="390"/>
      <point x="632" y="306"/>
      <point x="632" y="240" type="curve" smooth="yes"/>
      <point x="632" y="155"/>
      <point x="561" y="114"/>
      <point x="468" y="114" type="curve" smooth="yes"/>
      <point x="338" y="114"/>
      <point x="246" y="223"/>
      <point x="244" y="294" type="curve"/>
      <point x="212" y="319" type="line"/>
      <point x="154" y="287"/>
      <point x="72" y="156"/>
      <point x="70" y="124" type="curve"/>
      <point x="141" y="21"/>
      <point x="308" y="-34"/>
      <point x="461" y="-34" type="curve" smooth="yes"/>
      <point x="592" y="-34"/>
      <point x="870" y="114"/>
      <point x="870" y="310" type="curve" smooth="yes"/>
      <point x="870" y="426"/>
      <point x="796" y="530"/>
      <point x="485" y="588" type="curve" smooth="yes"/>
      <point x="330" y="624"/>
      <point x="284" y="683"/>
      <point x="284" y="746" type="curve" smooth="yes"/>
      <point x="284" y="803"/>
      <point x="376" y="857"/>
      <point x="433" y="857" type="curve" smooth="yes"/>
      <point x="586" y="857"/>
      <point x="655" y="798"/>
      <point x="671" y="728" type="curve"/>
      <point x="719" y="722" type="line"/>
      <point x="781" y="783"/>
      <point x="815" y="848"/>
      <point x="834" y="887" type="curve"/>
      <point x="781" y="957"/>
      <point x="642" y="995"/>
    </contour>
    <contour>
      <point x="385" y="1105" type="curve"/>
      <point x="369" y="778"/>
      <point x="383" y="235"/>
      <point x="398" y="-182" type="curve"/>
      <point x="398" y="-182"/>
      <point x="447" y="-210"/>
      <point x="447" y="-210" type="curve"/>
      <point x="476" y="-185"/>
      <point x="545" y="-143"/>
      <point x="560" y="-109" type="curve"/>
      <point x="538" y="196"/>
      <point x="525" y="756"/>
      <point x="548" y="1138" type="curve"/>
      <point x="512" y="1170" type="line"/>
      <point x="478" y="1154"/>
      <point x="413" y="1132"/>
    </contour>
  </outline>
</glyph>
<glyph name="percent" format="2">
  <advance width="1375"/>
  <unicode hex="0025"/>
  <outline>
    <contour>
      <point x="100" y="690" type="curve" smooth="yes"/>
      <point x="100" y="585"/>
      <point x="162" y="513"/>
      <point x="352" y="513" type="curve" smooth="yes"/>
      <point x="491" y="513"/>
      <point x="705" y="665"/>
      <point x="705" y="790" type="curve" smooth="yes"/>
      <point x="705" y="923"/>
      <point x="651" y="995"/>
      <point x="455" y="995" type="curve" smooth="yes"/>
      <point x="264" y="995"/>
      <point x="100" y="823"/>
    </contour>
    <contour>
      <point x="315" y="764" type="curve" smooth="yes"/>
      <point x="315" y="836"/>
      <point x="347" y="874"/>
      <point x="396" y="874" type="curve" smooth="yes"/>
      <point x="445" y="874"/>
      <point x="482" y="827"/>
      <point x="482" y="755" type="curve" smooth="yes"/>
      <point x="482" y="681"/>
      <point x="445" y="642"/>
      <point x="396" y="642" type="curve" smooth="yes"/>
      <point x="347" y="642"/>
      <point x="315" y="691"/>
    </contour>
    <contour>
      <point x="284" y="-2" type="curve"/>
      <point x="312" y="-34" type="line"/>
      <point x="397" y="-20"/>
      <point x="426" y="-1"/>
      <point x="463" y="19" type="curve"/>
      <point x="672" y="332"/>
      <point x="896" y="680"/>
      <point x="1097" y="966" type="curve"/>
      <point x="1072" y="1000" type="line"/>
      <point x="1019" y="974"/>
      <point x="930" y="936"/>
      <point x="894" y="916" type="curve"/>
      <point x="709" y="621"/>
      <point x="487" y="285"/>
    </contour>
    <contour>
      <point x="670" y="148" type="curve" smooth="yes"/>
      <point x="670" y="43"/>
      <point x="732" y="-29"/>
      <point x="922" y="-29" type="curve" smooth="yes"/>
      <point x="1061" y="-29"/>
      <point x="1275" y="123"/>
      <point x="1275" y="248" type="curve" smooth="yes"/>
      <point x="1275" y="381"/>
      <point x="1221" y="453"/>
      <point x="1025" y="453" type="curve" smooth="yes"/>
      <point x="834" y="453"/>
      <point x="670" y="281"/>
    </contour>
    <contour>
      <point x="885" y="222" type="curve" smooth="yes"/>
      <point x="885" y="294"/>
      <point x="917" y="332"/>
      <point x="966" y="332" type="curve" smooth="yes"/>
      <point x="1015" y="332"/>
      <point x="1052" y="285"/>
      <point x="1052" y="213" type="curve" smooth="yes"/>
      <point x="1052" y="139"/>
      <point x="1015" y="100"/>
      <point x="966" y="100" type="curve" smooth="yes"/>
      <point x="917" y="100"/>
      <point x="885" y="149"/>
    </contour>
  </outline>
</glyph>
<glyph name="ampersand" format="2">
  <advance width="1291"/>
  <unicode hex="0026"/>
  <outline>
    <contour>
      <point x="1272" y="707" type="curve"/>
      <point x="1250" y="741" type="line"/>
      <point x="831" y="741" type="line"/>
      <point x="805" y="731"/>
      <point x="774" y="709"/>
      <point x="761" y="693" type="curve"/>
      <point x="782" y="666" type="line"/>
      <point x="855" y="666"/>
      <point x="933" y="580"/>
      <point x="933" y="474" type="curve" smooth="yes"/>
      <point x="933" y="316"/>
      <point x="766" y="79"/>
      <point x="499" y="79" type="curve" smooth="yes"/>
      <point x="360" y="79"/>
      <point x="229" y="176"/>
      <point x="229" y="352" type="curve" smooth="yes"/>
      <point x="229" y="499"/>
      <point x="310" y="623"/>
      <point x="584" y="796" type="curve"/>
      <point x="733" y="888"/>
      <point x="820" y="1006"/>
      <point x="820" y="1138" type="curve" smooth="yes"/>
      <point x="820" y="1260"/>
      <point x="766" y="1370"/>
      <point x="606" y="1370" type="curve" smooth="yes"/>
      <point x="447" y="1370"/>
      <point x="300" y="1217"/>
      <point x="300" y="1014" type="curve" smooth="yes"/>
      <point x="300" y="584"/>
      <point x="931" y="-28"/>
      <point x="1022" y="-28" type="curve" smooth="yes"/>
      <point x="1049" y="-28"/>
      <point x="1128" y="-6"/>
      <point x="1237" y="43" type="curve"/>
      <point x="1228" y="83" type="line"/>
      <point x="1156" y="66"/>
      <point x="1103" y="79"/>
      <point x="1055" y="120" type="curve"/>
      <point x="820" y="308"/>
      <point x="420" y="763"/>
      <point x="420" y="1068" type="curve" smooth="yes"/>
      <point x="420" y="1167"/>
      <point x="465" y="1269"/>
      <point x="556" y="1269" type="curve" smooth="yes"/>
      <point x="644" y="1269"/>
      <point x="689" y="1194"/>
      <point x="689" y="1107" type="curve" smooth="yes"/>
      <point x="689" y="1023"/>
      <point x="651" y="926"/>
      <point x="475" y="828" type="curve" smooth="yes"/>
      <point x="222" y="686"/>
      <point x="76" y="503"/>
      <point x="76" y="333" type="curve" smooth="yes"/>
      <point x="76" y="96"/>
      <point x="236" y="-28"/>
      <point x="471" y="-28" type="curve" smooth="yes"/>
      <point x="792" y="-28"/>
      <point x="1047" y="294"/>
      <point x="1047" y="513" type="curve" smooth="yes"/>
      <point x="1047" y="587"/>
      <point x="1043" y="617"/>
      <point x="1016" y="661" type="curve"/>
      <point x="1058" y="660"/>
      <point x="1132" y="644"/>
      <point x="1178" y="623" type="curve"/>
      <point x="1210" y="644"/>
      <point x="1241" y="668"/>
    </contour>
  </outline>
</glyph>
<glyph name="quotesingle" format="2">
  <advance width="500"/>
  <unicode hex="0027"/>
  <outline>
    <contour>
      <point x="333" y="1200" type="line"/>
      <point x="276" y="1190"/>
      <point x="162" y="1154"/>
      <point x="120" y="1133" type="curve"/>
      <point x="197" y="710" type="line"/>
      <point x="252" y="710"/>
      <point x="280" y="716"/>
      <point x="303" y="728" type="curve"/>
      <point x="380" y="1171" type="line"/>
    </contour>
  </outline>
</glyph>
<glyph name="plus" format="2">
  <advance width="756"/>
  <unicode hex="002B"/>
  <outline>
    <contour>
      <point x="713" y="533" type="curve"/>
      <point x="683" y="563" type="line"/>
      <point x="88" y="563" type="line"/>
      <point x="77" y="540"/>
      <point x="50" y="482"/>
      <point x="44" y="457" type="curve"/>
      <point x="74" y="427" type="line"/>
      <point x="669" y="427" type="line"/>
      <point x="678" y="446"/>
      <point x="706" y="508"/>
    </contour>
    <contour>
      <point x="448" y="194" type="curve"/>
      <point x="448" y="803" type="line"/>
      <point x="418" y="832" type="line"/>
      <point x="393" y="825"/>
      <point x="335" y="804"/>
      <point x="313" y="797" type="curve"/>
      <point x="313" y="187" type="line"/>
      <point x="344" y="158" type="line"/>
      <point x="369" y="164"/>
      <point x="425" y="183"/>
    </contour>
  </outline>
</glyph>
<glyph name="comma" format="2">
  <advance width="503"/>
  <unicode hex="002C"/>
  <outline>
    <contour>
      <point x="444" y="62" type="curve" smooth="yes"/>
      <point x="444" y="163"/>
      <point x="412" y="210"/>
      <point x="356" y="237" type="curve"/>
      <point x="289" y="238"/>
      <point x="97" y="167"/>
      <point x="77" y="140" type="curve"/>
      <point x="90" y="63" type="line"/>
      <point x="165" y="69"/>
      <point x="214" y="8"/>
      <point x="214" y="-44" type="curve" smooth="yes"/>
      <point x="214" y="-145"/>
      <point x="170" y="-232"/>
      <point x="105" y="-308" type="curve"/>
      <point x="171" y="-356" type="line"/>
      <point x="318" y="-265"/>
      <point x="444" y="-75"/>
    </contour>
  </outline>
</glyph>
<glyph name="hyphen" format="2">
  <advance width="873"/>
  <unicode hex="002D"/>
  <outline>
    <contour>
      <point x="160" y="567" type="line"/>
      <point x="131" y="547"/>
      <point x="84" y="498"/>
      <point x="31" y="429" type="curve"/>
      <point x="71" y="383" type="line"/>
      <point x="684" y="383" type="line"/>
      <point x="733" y="408"/>
      <point x="797" y="480"/>
      <point x="833" y="517" type="curve"/>
      <point x="797" y="567" type="line"/>
    </contour>
  </outline>
</glyph>
<glyph name="period" format="2">
  <advance width="503"/>
  <unicode hex="002E"/>
  <outline>
    <contour>
      <point x="425" y="117" type="curve" smooth="yes"/>
      <point x="425" y="207"/>
      <point x="353" y="243"/>
      <point x="287" y="243" type="curve" smooth="yes"/>
      <point x="196" y="243"/>
      <point x="114" y="187"/>
      <point x="114" y="90" type="curve" smooth="yes"/>
      <point x="114" y="0"/>
      <point x="183" y="-35"/>
      <point x="253" y="-35" type="curve" smooth="yes"/>
      <point x="347" y="-35"/>
      <point x="425" y="18"/>
    </contour>
  </outline>
</glyph>
<glyph name="zero" format="2">
  <advance width="1044"/>
  <unicode hex="0030"/>
  <anchor x="521" y="-100" name="L"/>
  <anchor x="521" y="1370" name="U"/>
  <outline>
    <contour>
      <point x="984" y="602" type="curve"/>
      <point x="984" y="950"/>
      <point x="820" y="1235"/>
      <point x="533" y="1235" type="curve" smooth="yes"/>
      <point x="240" y="1235"/>
      <point x="60" y="946"/>
      <point x="60" y="602" type="curve" smooth="yes"/>
      <point x="60" y="258"/>
      <point x="232" y="-30"/>
      <point x="510" y="-30" type="curve" smooth="yes"/>
      <point x="789" y="-30"/>
      <point x="984" y="258"/>
    </contour>
    <contour>
      <point x="713" y="565" type="curve"/>
      <point x="713" y="227"/>
      <point x="656" y="102"/>
      <point x="533" y="102" type="curve" smooth="yes"/>
      <point x="402" y="102"/>
      <point x="331" y="279"/>
      <point x="331" y="645" type="curve" smooth="yes"/>
      <point x="331" y="979"/>
      <point x="390" y="1104"/>
      <point x="510" y="1104" type="curve" smooth="yes"/>
      <point x="629" y="1104"/>
      <point x="713" y="930"/>
    </contour>
  </outline>
</glyph>
<glyph name="one" format="2">
  <advance width="1044"/>
  <unicode hex="0031"/>
  <anchor x="521" y="-100" name="L"/>
  <anchor x="521" y="1370" name="U"/>
  <outline>
    <contour>
      <point x="154" y="0" type="line"/>
      <point x="922" y="0" type="line"/>
      <point x="922" y="86" type="line"/>
      <point x="722" y="111"/>
      <point x="672" y="150"/>
      <point x="672" y="176" type="curve" smooth="yes"/>
      <point x="672" y="1202" type="line"/>
      <point x="627" y="1245" type="line"/>
      <point x="530" y="1203"/>
      <point x="237" y="1099"/>
      <point x="122" y="1075" type="curve"/>
      <point x="152" y="991" type="line"/>
      <point x="328" y="1028"/>
      <point x="390" y="1022"/>
      <point x="406" y="1005" type="curve" smooth="yes"/>
      <point x="422" y="987"/>
      <point x="424" y="960"/>
      <point x="424" y="907" type="curve" smooth="yes"/>
      <point x="424" y="176" type="line" smooth="yes"/>
      <point x="424" y="148"/>
      <point x="362" y="111"/>
      <point x="154" y="86" type="curve"/>
    </contour>
  </outline>
</glyph>
<glyph name="two" format="2">
  <advance width="1044"/>
  <unicode hex="0032"/>
  <anchor x="521" y="-100" name="L"/>
  <anchor x="521" y="1370" name="U"/>
  <outline>
    <contour>
      <point x="920" y="0" type="line"/>
      <point x="935" y="361" type="line"/>
      <point x="852" y="382" type="line"/>
      <point x="852" y="382"/>
      <point x="840" y="179"/>
      <point x="750" y="179" type="curve" smooth="yes"/>
      <point x="353" y="179" type="line"/>
      <point x="782" y="651"/>
      <point x="922" y="805"/>
      <point x="922" y="985" type="curve" smooth="yes"/>
      <point x="922" y="1149"/>
      <point x="787" y="1235"/>
      <point x="576" y="1235" type="curve" smooth="yes"/>
      <point x="323" y="1235"/>
      <point x="108" y="1061"/>
      <point x="108" y="923" type="curve"/>
      <point x="144" y="852" type="line"/>
      <point x="205" y="858"/>
      <point x="326" y="892"/>
      <point x="371" y="918" type="curve"/>
      <point x="353" y="1017"/>
      <point x="399" y="1120"/>
      <point x="508" y="1120" type="curve" smooth="yes"/>
      <point x="616" y="1120"/>
      <point x="660" y="1036"/>
      <point x="660" y="924" type="curve" smooth="yes"/>
      <point x="660" y="781"/>
      <point x="549" y="623"/>
      <point x="82" y="74" type="curve"/>
      <point x="110" y="0" type="line"/>
    </contour>
  </outline>
</glyph>
<glyph name="three" format="2">
  <advance width="1044"/>
  <unicode hex="0033"/>
  <anchor x="521" y="-100" name="L"/>
  <anchor x="521" y="1370" name="U"/>
  <outline>
    <contour>
      <point x="924" y="381" type="curve"/>
      <point x="924" y="543"/>
      <point x="818" y="681"/>
      <point x="654" y="698" type="curve"/>
      <point x="780" y="740"/>
      <point x="867" y="858"/>
      <point x="867" y="958" type="curve" smooth="yes"/>
      <point x="867" y="1094"/>
      <point x="773" y="1235"/>
      <point x="524" y="1235" type="curve" smooth="yes"/>
      <point x="275" y="1235"/>
      <point x="105" y="1060"/>
      <point x="105" y="948" type="curve"/>
      <point x="139" y="884" type="line"/>
      <point x="215" y="891"/>
      <point x="313" y="924"/>
      <point x="369" y="956" type="curve"/>
      <point x="343" y="1048"/>
      <point x="401" y="1120"/>
      <point x="467" y="1120" type="curve" smooth="yes"/>
      <point x="566" y="1120"/>
      <point x="600" y="1032"/>
      <point x="600" y="940" type="curve" smooth="yes"/>
      <point x="600" y="858"/>
      <point x="567" y="745"/>
      <point x="340" y="684" type="curve"/>
      <point x="358" y="591" type="line"/>
      <point x="400" y="598"/>
      <point x="406" y="598"/>
      <point x="443" y="598" type="curve" smooth="yes"/>
      <point x="528" y="598"/>
      <point x="657" y="540"/>
      <point x="657" y="356" type="curve" smooth="yes"/>
      <point x="657" y="186"/>
      <point x="557" y="111"/>
      <point x="434" y="111" type="curve" smooth="yes"/>
      <point x="334" y="111"/>
      <point x="240" y="146"/>
      <point x="118" y="236" type="curve"/>
      <point x="76" y="136" type="line"/>
      <point x="196" y="20"/>
      <point x="359" y="-30"/>
      <point x="464" y="-30" type="curve" smooth="yes"/>
      <point x="738" y="-30"/>
      <point x="924" y="156"/>
    </contour>
  </outline>
</glyph>
<glyph name="four" format="2">
  <advance width="1044"/>
  <unicode hex="0034"/>
  <anchor x="521" y="-100" name="L"/>
  <anchor x="521" y="1370" name="U"/>
  <outline>
    <contour>
      <point x="965" y="446" type="curve"/>
      <point x="939" y="476" type="line"/>
      <point x="808" y="476" type="line"/>
      <point x="808" y="1202" type="line"/>
      <point x="762" y="1245" type="line"/>
      <point x="703" y="1223"/>
      <point x="599" y="1188"/>
      <point x="534" y="1166" type="curve"/>
      <point x="55" y="375" type="line"/>
      <point x="96" y="334" type="line"/>
      <point x="568" y="334" type="line"/>
      <point x="568" y="148" type="line" smooth="yes"/>
      <point x="568" y="125"/>
      <point x="532" y="105"/>
      <point x="358" y="76" type="curve"/>
      <point x="358" y="0" type="line"/>
      <point x="946" y="0" type="line"/>
      <point x="946" y="76" type="line"/>
      <point x="836" y="101"/>
      <point x="808" y="117"/>
      <point x="808" y="137" type="curve" smooth="yes"/>
      <point x="808" y="334" type="line"/>
      <point x="861" y="334" type="line"/>
      <point x="891" y="356"/>
      <point x="937" y="404"/>
    </contour>
    <contour>
      <point x="568" y="974" type="line"/>
      <point x="568" y="476" type="line"/>
      <point x="254" y="476" type="line"/>
    </contour>
  </outline>
</glyph>
<glyph name="seven" format="2">
  <advance width="1044"/>
  <unicode hex="0037"/>
  <anchor x="521" y="-100" name="L"/>
  <anchor x="521" y="1370" name="U"/>
  <outline>
    <contour>
      <point x="968" y="1167" type="curve"/>
      <point x="934" y="1205" type="line"/>
      <point x="147" y="1205" type="line"/>
      <point x="131" y="1146"/>
      <point x="105" y="944"/>
      <point x="96" y="882" type="curve"/>
      <point x="166" y="856" type="line"/>
      <point x="224" y="1011"/>
      <point x="273" y="1017"/>
      <point x="312" y="1017" type="curve" smooth="yes"/>
      <point x="758" y="1017" type="line"/>
      <point x="611" y="677"/>
      <point x="494" y="419"/>
      <point x="262" y="11" type="curve"/>
      <point x="311" y="-30" type="line"/>
      <point x="377" y="-13"/>
      <point x="492" y="19"/>
      <point x="539" y="52" type="curve"/>
      <point x="609" y="265"/>
      <point x="782" y="737"/>
    </contour>
  </outline>
</glyph>
<glyph name="colon" format="2">
  <advance width="503"/>
  <unicode hex="003A"/>
  <outline>
    <contour>
      <point x="370" y="123" type="curve" smooth="yes"/>
      <point x="370" y="202"/>
      <point x="307" y="234"/>
      <point x="250" y="234" type="curve" smooth="yes"/>
      <point x="203" y="234"/>
      <point x="160" y="217"/>
      <point x="132" y="186" type="curve" smooth="yes"/>
      <point x="111" y="164"/>
      <point x="99" y="134"/>
      <point x="99" y="99" type="curve" smooth="yes"/>
      <point x="99" y="20"/>
      <point x="159" y="-11"/>
      <point x="220" y="-11" type="curve" smooth="yes"/>
      <point x="260" y="-11"/>
      <point x="297" y="0"/>
      <point x="324" y="22" type="curve" smooth="yes"/>
      <point x="352" y="45"/>
      <point x="370" y="79"/>
    </contour>
    <contour>
      <point x="370" y="681" type="curve" smooth="yes"/>
      <point x="370" y="760"/>
      <point x="307" y="792"/>
      <point x="250" y="792" type="curve" smooth="yes"/>
      <point x="206" y="792"/>
      <point x="165" y="777"/>
      <point x="137" y="749" type="curve" smooth="yes"/>
      <point x="113" y="727"/>
      <point x="99" y="695"/>
      <point x="99" y="657" type="curve" smooth="yes"/>
      <point x="99" y="578"/>
      <point x="159" y="547"/>
      <point x="220" y="547" type="curve" smooth="yes"/>
      <point x="265" y="547"/>
      <point x="305" y="561"/>
      <point x="333" y="588" type="curve" smooth="yes"/>
      <point x="356" y="610"/>
      <point x="370" y="641"/>
    </contour>
  </outline>
</glyph>
<glyph name="semicolon" format="2">
  <advance width="503"/>
  <unicode hex="003B"/>
  <outline>
    <contour>
      <point x="386" y="54" type="curve" smooth="yes"/>
      <point x="386" y="143"/>
      <point x="358" y="185"/>
      <point x="310" y="208" type="curve"/>
      <point x="251" y="210"/>
      <point x="84" y="147"/>
      <point x="67" y="123" type="curve"/>
      <point x="79" y="56" type="line"/>
      <point x="144" y="60"/>
      <point x="186" y="7"/>
      <point x="186" y="-39" type="curve" smooth="yes"/>
      <point x="186" y="-128"/>
      <point x="148" y="-204"/>
      <point x="92" y="-271" type="curve"/>
      <point x="148" y="-314" type="line"/>
      <point x="276" y="-233"/>
      <point x="386" y="-66"/>
    </contour>
    <contour>
      <point x="370" y="741" type="curve" smooth="yes"/>
      <point x="370" y="820"/>
      <point x="307" y="852"/>
      <point x="250" y="852" type="curve" smooth="yes"/>
      <point x="170" y="852"/>
      <point x="99" y="802"/>
      <point x="99" y="717" type="curve" smooth="yes"/>
      <point x="99" y="638"/>
      <point x="159" y="607"/>
      <point x="220" y="607" type="curve" smooth="yes"/>
      <point x="302" y="607"/>
      <point x="370" y="654"/>
    </contour>
  </outline>
</glyph>
<glyph name="less" format="2">
  <advance width="817"/>
  <unicode hex="003C"/>
  <outline>
    <contour>
      <point x="774" y="785" type="curve"/>
      <point x="744" y="816" type="line"/>
      <point x="79" y="576" type="line"/>
      <point x="69" y="552"/>
      <point x="50" y="486"/>
      <point x="44" y="462" type="curve"/>
      <point x="74" y="422" type="line"/>
      <point x="740" y="664" type="line"/>
      <point x="747" y="686"/>
      <point x="768" y="760"/>
    </contour>
    <contour>
      <point x="774" y="296" type="curve"/>
      <point x="751" y="336" type="line"/>
      <point x="79" y="576" type="line"/>
      <point x="69" y="552"/>
      <point x="50" y="486"/>
      <point x="44" y="462" type="curve"/>
      <point x="74" y="422" type="line"/>
      <point x="675" y="208" type="line"/>
      <point x="711" y="230"/>
      <point x="749" y="272"/>
    </contour>
  </outline>
</glyph>
<glyph name="equal" format="2">
  <advance width="817"/>
  <unicode hex="003D"/>
  <outline>
    <contour>
      <point x="774" y="665" type="curve"/>
      <point x="744" y="695" type="line"/>
      <point x="88" y="695" type="line"/>
      <point x="77" y="672"/>
      <point x="50" y="614"/>
      <point x="44" y="589" type="curve"/>
      <point x="74" y="559" type="line"/>
      <point x="730" y="559" type="line"/>
      <point x="739" y="578"/>
      <point x="767" y="640"/>
    </contour>
    <contour>
      <point x="774" y="401" type="curve"/>
      <point x="744" y="431" type="line"/>
      <point x="88" y="431" type="line"/>
      <point x="77" y="408"/>
      <point x="50" y="350"/>
      <point x="44" y="325" type="curve"/>
      <point x="74" y="295" type="line"/>
      <point x="730" y="295" type="line"/>
      <point x="739" y="314"/>
      <point x="767" y="376"/>
    </contour>
  </outline>
</glyph>
<glyph name="question" format="2">
  <advance width="862"/>
  <unicode hex="003F"/>
  <outline>
    <contour>
      <point x="792" y="969" type="curve" smooth="yes"/>
      <point x="792" y="1122"/>
      <point x="683" y="1228"/>
      <point x="453" y="1228" type="curve" smooth="yes"/>
      <point x="299" y="1228"/>
      <point x="71" y="1120"/>
      <point x="71" y="920" type="curve" smooth="yes"/>
      <point x="71" y="904"/>
      <point x="71" y="884"/>
      <point x="72" y="879" type="curve"/>
      <point x="105" y="852" type="line"/>
      <point x="158" y="852"/>
      <point x="282" y="885"/>
      <point x="327" y="902" type="curve"/>
      <point x="319" y="921"/>
      <point x="315" y="942"/>
      <point x="315" y="957" type="curve" smooth="yes"/>
      <point x="315" y="1057"/>
      <point x="363" y="1125"/>
      <point x="431" y="1125" type="curve" smooth="yes"/>
      <point x="497" y="1125"/>
      <point x="545" y="1074"/>
      <point x="545" y="959" type="curve" smooth="yes"/>
      <point x="545" y="791"/>
      <point x="323" y="602"/>
      <point x="334" y="429" type="curve" smooth="yes"/>
      <point x="340" y="335" type="line"/>
      <point x="373" y="307" type="line"/>
      <point x="395" y="314"/>
      <point x="452" y="336"/>
      <point x="473" y="355" type="curve"/>
      <point x="479" y="429" type="line" smooth="yes"/>
      <point x="497" y="647"/>
      <point x="792" y="753"/>
    </contour>
    <contour>
      <point x="547" y="102" type="curve" smooth="yes"/>
      <point x="547" y="183"/>
      <point x="483" y="215"/>
      <point x="428" y="215" type="curve" smooth="yes"/>
      <point x="383" y="215"/>
      <point x="339" y="199"/>
      <point x="310" y="170" type="curve" smooth="yes"/>
      <point x="287" y="147"/>
      <point x="273" y="116"/>
      <point x="273" y="77" type="curve" smooth="yes"/>
      <point x="273" y="-4"/>
      <point x="335" y="-35"/>
      <point x="398" y="-35" type="curve" smooth="yes"/>
      <point x="447" y="-35"/>
      <point x="487" y="-19"/>
      <point x="515" y="13" type="curve" smooth="yes"/>
      <point x="535" y="35"/>
      <point x="547" y="65"/>
    </contour>
  </outline>
</glyph>
<glyph name="at" format="2">
  <advance width="1726"/>
  <unicode hex="0040"/>
  <outline>
    <contour>
      <point x="1643" y="548" type="curve" smooth="yes"/>
      <point x="1643" y="1060"/>
      <point x="1350" y="1299"/>
      <point x="931" y="1299" type="curve" smooth="yes"/>
      <point x="454" y="1299"/>
      <point x="84" y="906"/>
      <point x="84" y="440" type="curve" smooth="yes"/>
      <point x="84" y="-92"/>
      <point x="417" y="-402"/>
      <point x="894" y="-402" type="curve" smooth="yes"/>
      <point x="1210" y="-402"/>
      <point x="1406" y="-255"/>
      <point x="1495" y="-150" type="curve"/>
      <point x="1446" y="-59" type="line"/>
      <point x="1371" y="-123"/>
      <point x="1188" y="-222"/>
      <point x="940" y="-222" type="curve" smooth="yes"/>
      <point x="591" y="-222"/>
      <point x="319" y="10"/>
      <point x="319" y="496" type="curve" smooth="yes"/>
      <point x="319" y="837"/>
      <point x="513" y="1119"/>
      <point x="895" y="1119" type="curve" smooth="yes"/>
      <point x="1221" y="1119"/>
      <point x="1436" y="919"/>
      <point x="1436" y="484" type="curve" smooth="yes"/>
      <point x="1436" y="272"/>
      <point x="1358" y="169"/>
      <point x="1295" y="169" type="curve" smooth="yes"/>
      <point x="1244" y="169"/>
      <point x="1241" y="204"/>
      <point x="1241" y="270" type="curve" smooth="yes"/>
      <point x="1241" y="656" type="line" smooth="yes"/>
      <point x="1241" y="761"/>
      <point x="1269" y="880"/>
      <point x="1269" y="880" type="curve"/>
      <point x="1240" y="908" type="line"/>
      <point x="1177" y="869"/>
      <point x="1128" y="849"/>
      <point x="1049" y="822" type="curve"/>
      <point x="990" y="896"/>
      <point x="946" y="908"/>
      <point x="889" y="908" type="curve" smooth="yes"/>
      <point x="627" y="908"/>
      <point x="478" y="657"/>
      <point x="478" y="411" type="curve" smooth="yes"/>
      <point x="478" y="101"/>
      <point x="626" y="-28"/>
      <point x="753" y="-28" type="curve" smooth="yes"/>
      <point x="853" y="-28"/>
      <point x="891" y="0"/>
      <point x="993" y="115" type="curve"/>
      <point x="1019" y="3"/>
      <point x="1079" y="-28"/>
      <point x="1159" y="-28" type="curve" smooth="yes"/>
      <point x="1403" y="-28"/>
      <point x="1643" y="230"/>
    </contour>
    <contour>
      <point x="988" y="692" type="curve"/>
      <point x="988" y="274" type="line"/>
      <point x="930" y="190"/>
      <point x="906" y="170"/>
      <point x="857" y="170" type="curve" smooth="yes"/>
      <point x="797" y="170"/>
      <point x="731" y="225"/>
      <point x="731" y="440" type="curve" smooth="yes"/>
      <point x="731" y="676"/>
      <point x="779" y="776"/>
      <point x="879" y="776" type="curve" smooth="yes"/>
      <point x="935" y="776"/>
      <point x="962" y="743"/>
    </contour>
  </outline>
</glyph>
<glyph name="A" format="2">
  <advance width="1257"/>
  <unicode hex="0041"/>
  <anchor x="619" y="0" name="H"/>
  <anchor x="619" y="-97" name="L"/>
  <anchor x="992" y="0" name="O"/>
  <anchor x="619" y="1323" name="U"/>
  <outline>
    <contour>
      <point x="382" y="412" type="line"/>
      <point x="762" y="412" type="line"/>
      <point x="858" y="143" type="line" smooth="yes"/>
      <point x="872" y="100"/>
      <point x="840" y="83"/>
      <point x="741" y="77" type="curve"/>
      <point x="741" y="0" type="line"/>
      <point x="1237" y="0" type="line"/>
      <point x="1237" y="77" type="line"/>
      <point x="1154" y="87"/>
      <point x="1132" y="107"/>
      <point x="1121" y="143" type="curve" smooth="yes"/>
      <point x="715" y="1272" type="line"/>
      <point x="640" y="1252"/>
      <point x="544" y="1216"/>
      <point x="476" y="1159" type="curve"/>
      <point x="144" y="143" type="line" smooth="yes"/>
      <point x="131" y="104"/>
      <point x="87" y="93"/>
      <point x="0" y="77" type="curve"/>
      <point x="0" y="0" type="line"/>
      <point x="427" y="0" type="line"/>
      <point x="427" y="77" type="line"/>
      <point x="322" y="89"/>
      <point x="279" y="103"/>
      <point x="292" y="143" type="curve" smooth="yes"/>
    </contour>
    <contour>
      <point x="719" y="535" type="line"/>
      <point x="422" y="535" type="line"/>
      <point x="562" y="972" type="line"/>
    </contour>
  </outline>
</glyph>
<glyph name="B" format="2">
  <advance width="1256"/>
  <unicode hex="0042"/>
  <anchor x="591" y="-100" name="L"/>
  <anchor x="591" y="1370" name="U"/>
  <outline>
    <contour>
      <point x="1155" y="356" type="curve"/>
      <point x="1155" y="541"/>
      <point x="1014" y="690"/>
      <point x="808" y="723" type="curve"/>
      <point x="964" y="770"/>
      <point x="1044" y="877"/>
      <point x="1044" y="1020" type="curve" smooth="yes"/>
      <point x="1044" y="1188"/>
      <point x="857" y="1290"/>
      <point x="543" y="1290" type="curve" smooth="yes"/>
      <point x="380" y="1290"/>
      <point x="150" y="1259"/>
      <point x="27" y="1230" type="curve"/>
      <point x="41" y="1140" type="line"/>
      <point x="154" y="1161"/>
      <point x="373" y="1178"/>
      <point x="478" y="1178" type="curve" smooth="yes"/>
      <point x="699" y="1178"/>
      <point x="768" y="1104"/>
      <point x="768" y="971" type="curve" smooth="yes"/>
      <point x="768" y="856"/>
      <point x="720" y="744"/>
      <point x="463" y="744" type="curve" smooth="yes"/>
      <point x="384" y="744" type="line"/>
      <point x="394" y="613" type="line"/>
      <point x="439" y="625"/>
      <point x="488" y="636"/>
      <point x="576" y="636" type="curve" smooth="yes"/>
      <point x="808" y="636"/>
      <point x="870" y="488"/>
      <point x="870" y="340" type="curve" smooth="yes"/>
      <point x="870" y="190"/>
      <point x="775" y="98"/>
      <point x="583" y="98" type="curve" smooth="yes"/>
      <point x="523" y="98"/>
      <point x="478" y="104"/>
      <point x="438" y="126" type="curve"/>
      <point x="123" y="0" type="line"/>
      <point x="270" y="-6"/>
      <point x="487" y="-14"/>
      <point x="624" y="-14" type="curve"/>
      <point x="958" y="-14"/>
      <point x="1155" y="129"/>
    </contour>
    <contour>
      <point x="41" y="0" type="line"/>
      <point x="565" y="0" type="line"/>
      <point x="565" y="71" type="line"/>
      <point x="468" y="89"/>
      <point x="448" y="116"/>
      <point x="448" y="132" type="curve" smooth="yes"/>
      <point x="448" y="1231" type="line"/>
      <point x="176" y="1210" type="line"/>
      <point x="176" y="141" type="line" smooth="yes"/>
      <point x="176" y="123"/>
      <point x="131" y="98"/>
      <point x="41" y="80" type="curve"/>
    </contour>
  </outline>
</glyph>
<glyph name="C" format="2">
  <advance width="1060"/>
  <unicode hex="0043"/>
  <anchor x="563" y="0" name="H"/>
  <anchor x="592" y="-97" name="L"/>
  <anchor x="592" y="1323" name="U"/>
  <outline>
    <contour>
      <point x="986" y="204" type="curve"/>
      <point x="982" y="213"/>
      <point x="960" y="246"/>
      <point x="946" y="253" type="curve"/>
      <point x="808" y="136"/>
      <point x="692" y="99"/>
      <point x="624" y="99" type="curve" smooth="yes"/>
      <point x="446" y="99"/>
      <point x="236" y="263"/>
      <point x="236" y="602" type="curve" smooth="yes"/>
      <point x="236" y="1003"/>
      <point x="442" y="1134"/>
      <point x="573" y="1134" type="curve" smooth="yes"/>
      <point x="684" y="1134"/>
      <point x="773" y="1090"/>
      <point x="837" y="1015" type="curve"/>
      <point x="878" y="1008" type="line"/>
      <point x="907" y="1037"/>
      <point x="982" y="1138"/>
      <point x="967" y="1150" type="curve" smooth="yes"/>
      <point x="902" y="1203"/>
      <point x="786" y="1246"/>
      <point x="649" y="1246" type="curve" smooth="yes"/>
      <point x="329" y="1246"/>
      <point x="63" y="978"/>
      <point x="63" y="566" type="curve" smooth="yes"/>
      <point x="63" y="192"/>
      <point x="308" y="-29"/>
      <point x="549" y="-29" type="curve" smooth="yes"/>
      <point x="685" y="-29"/>
      <point x="823" y="30"/>
    </contour>
  </outline>
</glyph>
<glyph name="D" format="2">
  <advance width="1325"/>
  <unicode hex="0044"/>
  <anchor x="599" y="-100" name="L"/>
  <anchor x="599" y="1370" name="U"/>
  <outline>
    <contour>
      <point x="41" y="0" type="line"/>
      <point x="82" y="0" type="line" smooth="yes"/>
      <point x="265" y="0"/>
      <point x="390" y="0"/>
      <point x="546" y="0" type="curve" smooth="yes"/>
      <point x="633" y="0" type="line" smooth="yes"/>
      <point x="915" y="0"/>
      <point x="1243" y="176"/>
      <point x="1243" y="676" type="curve" smooth="yes"/>
      <point x="1243" y="1063"/>
      <point x="1009" y="1290"/>
      <point x="592" y="1290" type="curve" smooth="yes"/>
      <point x="416" y="1290"/>
      <point x="163" y="1263"/>
      <point x="27" y="1230" type="curve"/>
      <point x="41" y="1131" type="line"/>
      <point x="77" y="1136"/>
      <point x="124" y="1143"/>
      <point x="176" y="1150" type="curve"/>
      <point x="176" y="141" type="line" smooth="yes"/>
      <point x="176" y="123"/>
      <point x="131" y="98"/>
      <point x="41" y="80" type="curve"/>
    </contour>
    <contour>
      <point x="592" y="112" type="curve" smooth="yes"/>
      <point x="514" y="112"/>
      <point x="448" y="121"/>
      <point x="448" y="172" type="curve" smooth="yes"/>
      <point x="448" y="1176" type="line"/>
      <point x="472" y="1177"/>
      <point x="496" y="1178"/>
      <point x="518" y="1178" type="curve" smooth="yes"/>
      <point x="802" y="1178"/>
      <point x="953" y="991"/>
      <point x="953" y="637" type="curve" smooth="yes"/>
      <point x="953" y="262"/>
      <point x="740" y="112"/>
    </contour>
  </outline>
</glyph>
<glyph name="E" format="2">
  <advance width="1090"/>
  <unicode hex="0045"/>
  <anchor x="544" y="0" name="H"/>
  <anchor x="544" y="-100" name="L"/>
  <anchor x="819" y="0" name="O"/>
  <anchor x="1090" y="1100" name="R"/>
  <anchor x="544" y="1370" name="U"/>
  <outline>
    <contour>
      <point x="982" y="1226" type="curve"/>
      <point x="939" y="1260" type="line"/>
      <point x="424" y="1260" type="line"/>
      <point x="396" y="1133" type="line"/>
      <point x="776" y="1133" type="line" smooth="yes"/>
      <point x="826" y="1133"/>
      <point x="852" y="1059"/>
      <point x="858" y="936" type="curve"/>
      <point x="940" y="936" type="line"/>
      <point x="956" y="987"/>
      <point x="978" y="1158"/>
    </contour>
    <contour>
      <point x="878" y="698" type="curve"/>
      <point x="843" y="735" type="line"/>
      <point x="404" y="735" type="line"/>
      <point x="382" y="623" type="line"/>
      <point x="588" y="623" type="line" smooth="yes"/>
      <point x="700" y="623"/>
      <point x="746" y="607"/>
      <point x="786" y="568" type="curve"/>
      <point x="816" y="589"/>
      <point x="857" y="661"/>
    </contour>
    <contour>
      <point x="1046" y="318" type="curve"/>
      <point x="966" y="345" type="line"/>
      <point x="910" y="189"/>
      <point x="866" y="127"/>
      <point x="744" y="127" type="curve" smooth="yes"/>
      <point x="652" y="127" type="line" smooth="yes"/>
      <point x="476" y="127"/>
      <point x="448" y="152"/>
      <point x="448" y="191" type="curve" smooth="yes"/>
      <point x="448" y="1140" type="line" smooth="yes"/>
      <point x="448" y="1158"/>
      <point x="502" y="1171"/>
      <point x="592" y="1180" type="curve"/>
      <point x="592" y="1260" type="line"/>
      <point x="41" y="1260" type="line"/>
      <point x="41" y="1180" type="line"/>
      <point x="137" y="1161"/>
      <point x="176" y="1134"/>
      <point x="176" y="1118" type="curve" smooth="yes"/>
      <point x="176" y="141" type="line" smooth="yes"/>
      <point x="176" y="123"/>
      <point x="131" y="98"/>
      <point x="41" y="80" type="curve"/>
      <point x="41" y="0" type="line"/>
      <point x="1006" y="0" type="line"/>
      <point x="1016" y="39"/>
      <point x="1036" y="203"/>
    </contour>
  </outline>
</glyph>
<glyph name="F" format="2">
  <advance width="1017"/>
  <unicode hex="0046"/>
  <anchor x="497" y="-97" name="L"/>
  <anchor x="497" y="1323" name="U"/>
  <outline>
    <contour>
      <point x="956" y="1184" type="curve"/>
      <point x="917" y="1217" type="line"/>
      <point x="410" y="1217" type="line"/>
      <point x="383" y="1094" type="line"/>
      <point x="757" y="1094" type="line" smooth="yes"/>
      <point x="808" y="1094"/>
      <point x="833" y="1023"/>
      <point x="837" y="904" type="curve"/>
      <point x="918" y="904" type="line"/>
      <point x="933" y="953"/>
      <point x="954" y="1119"/>
    </contour>
    <contour>
      <point x="821" y="674" type="curve"/>
      <point x="784" y="710" type="line"/>
      <point x="363" y="710" type="line"/>
      <point x="232" y="602" type="line"/>
      <point x="541" y="602" type="line" smooth="yes"/>
      <point x="647" y="602"/>
      <point x="694" y="586"/>
      <point x="730" y="549" type="curve"/>
      <point x="757" y="569"/>
      <point x="798" y="630"/>
    </contour>
    <contour>
      <point x="40" y="0" type="line"/>
      <point x="592" y="0" type="line"/>
      <point x="592" y="77" type="line"/>
      <point x="466" y="101"/>
      <point x="433" y="121"/>
      <point x="433" y="136" type="curve" smooth="yes"/>
      <point x="433" y="1101" type="line" smooth="yes"/>
      <point x="433" y="1119"/>
      <point x="497" y="1131"/>
      <point x="572" y="1140" type="curve"/>
      <point x="572" y="1217" type="line"/>
      <point x="40" y="1217" type="line"/>
      <point x="40" y="1140" type="line"/>
      <point x="132" y="1122"/>
      <point x="170" y="1095"/>
      <point x="170" y="1080" type="curve" smooth="yes"/>
      <point x="170" y="136" type="line" smooth="yes"/>
      <point x="170" y="119"/>
      <point x="127" y="95"/>
      <point x="40" y="77" type="curve"/>
    </contour>
  </outline>
</glyph>
<glyph name="G" format="2">
  <advance width="1188"/>
  <unicode hex="0047"/>
  <anchor x="611" y="0" name="H"/>
  <anchor x="632" y="-97" name="L"/>
  <anchor x="632" y="1323" name="U"/>
  <outline>
    <contour>
      <point x="1078" y="511"/>
      <point x="1151" y="528" type="curve"/>
      <point x="1151" y="609" type="line"/>
      <point x="663" y="609" type="line"/>
      <point x="663" y="528" type="line"/>
      <point x="802" y="503"/>
      <point x="802" y="477"/>
      <point x="802" y="449" type="curve" smooth="yes"/>
      <point x="802" y="95" type="line" smooth="yes"/>
      <point x="802" y="77"/>
      <point x="1060" y="168"/>
      <point x="1060" y="168" type="curve"/>
      <point x="1060" y="449" type="line" smooth="yes"/>
      <point x="1060" y="479"/>
    </contour>
    <contour>
      <point x="1080" y="1134"/>
      <point x="1062" y="1148" type="curve" smooth="yes"/>
      <point x="980" y="1210"/>
      <point x="807" y="1246"/>
      <point x="723" y="1246" type="curve" smooth="yes"/>
      <point x="335" y="1246"/>
      <point x="48" y="991"/>
      <point x="48" y="562" type="curve" smooth="yes"/>
      <point x="48" y="164"/>
      <point x="326" y="-30"/>
      <point x="609" y="-29" type="curve" smooth="yes"/>
      <point x="725" y="-29"/>
      <point x="871" y="12"/>
      <point x="1060" y="168" type="curve"/>
      <point x="1052" y="178"/>
      <point x="929" y="238"/>
      <point x="913" y="246" type="curve"/>
      <point x="847" y="183"/>
      <point x="784" y="135"/>
      <point x="655" y="135" type="curve" smooth="yes"/>
      <point x="480" y="135"/>
      <point x="320" y="276"/>
      <point x="320" y="615" type="curve" smooth="yes"/>
      <point x="320" y="1017"/>
      <point x="514" y="1121"/>
      <point x="609" y="1121" type="curve" smooth="yes"/>
      <point x="715" y="1121"/>
      <point x="797" y="1073"/>
      <point x="881" y="934" type="curve"/>
      <point x="951" y="919" type="line"/>
      <point x="985" y="949"/>
    </contour>
  </outline>
</glyph>
<glyph name="H" format="2">
  <advance width="1413"/>
  <unicode hex="0048"/>
  <anchor x="316" y="0" name="H"/>
  <anchor x="697" y="-100" name="L"/>
  <anchor x="697" y="1370" name="U"/>
  <outline>
    <contour>
      <point x="811" y="0" type="line"/>
      <point x="1353" y="0" type="line"/>
      <point x="1353" y="80" type="line"/>
      <point x="1257" y="98"/>
      <point x="1218" y="125"/>
      <point x="1218" y="141" type="curve" smooth="yes"/>
      <point x="1218" y="1118" type="line" smooth="yes"/>
      <point x="1218" y="1137"/>
      <point x="1263" y="1161"/>
      <point x="1353" y="1180" type="curve"/>
      <point x="1353" y="1260" type="line"/>
      <point x="811" y="1260" type="line"/>
      <point x="811" y="1180" type="line"/>
      <point x="907" y="1161"/>
      <point x="946" y="1134"/>
      <point x="946" y="1118" type="curve" smooth="yes"/>
      <point x="946" y="141" type="line" smooth="yes"/>
      <point x="946" y="123"/>
      <point x="901" y="98"/>
      <point x="811" y="80" type="curve"/>
    </contour>
    <contour>
      <point x="420" y="596" type="line"/>
      <point x="966" y="596" type="line"/>
      <point x="966" y="724" type="line"/>
      <point x="420" y="724" type="line"/>
    </contour>
    <contour>
      <point x="41" y="0" type="line"/>
      <point x="583" y="0" type="line"/>
      <point x="583" y="80" type="line"/>
      <point x="486" y="98"/>
      <point x="448" y="125"/>
      <point x="448" y="141" type="curve" smooth="yes"/>
      <point x="448" y="1118" type="line" smooth="yes"/>
      <point x="448" y="1137"/>
      <point x="493" y="1161"/>
      <point x="583" y="1180" type="curve"/>
      <point x="583" y="1260" type="line"/>
      <point x="41" y="1260" type="line"/>
      <point x="41" y="1180" type="line"/>
      <point x="137" y="1161"/>
      <point x="176" y="1134"/>
      <point x="176" y="1118" type="curve" smooth="yes"/>
      <point x="176" y="141" type="line" smooth="yes"/>
      <point x="176" y="123"/>
      <point x="131" y="98"/>
      <point x="41" y="80" type="curve"/>
    </contour>
  </outline>
</glyph>
<glyph name="I" format="2">
  <advance width="660"/>
  <unicode hex="0049"/>
  <anchor x="321" y="0" name="H"/>
  <anchor x="321" y="-97" name="L"/>
  <anchor x="379" y="0" name="O"/>
  <anchor x="585" y="1063" name="R"/>
  <anchor x="321" y="1323" name="U"/>
  <outline>
    <contour>
      <point x="59" y="0" type="line"/>
      <point x="582" y="0" type="line"/>
      <point x="582" y="77" type="line"/>
      <point x="490" y="95"/>
      <point x="452" y="121"/>
      <point x="452" y="136" type="curve" smooth="yes"/>
      <point x="452" y="1080" type="line" smooth="yes"/>
      <point x="452" y="1098"/>
      <point x="496" y="1122"/>
      <point x="582" y="1140" type="curve"/>
      <point x="582" y="1217" type="line"/>
      <point x="59" y="1217" type="line"/>
      <point x="59" y="1140" type="line"/>
      <point x="152" y="1122"/>
      <point x="189" y="1095"/>
      <point x="189" y="1080" type="curve" smooth="yes"/>
      <point x="189" y="136" type="line" smooth="yes"/>
      <point x="189" y="119"/>
      <point x="146" y="95"/>
      <point x="59" y="77" type="curve"/>
    </contour>
  </outline>
</glyph>
<glyph name="J" format="2">
  <advance width="675"/>
  <unicode hex="004A"/>
  <anchor x="348" y="-580" name="L"/>
  <anchor x="348" y="1323" name="U"/>
  <outline>
    <contour>
      <point x="616" y="1140" type="curve"/>
      <point x="616" y="1217" type="line"/>
      <point x="44" y="1217" type="line"/>
      <point x="44" y="1140" type="line"/>
      <point x="199" y="1118"/>
      <point x="224" y="1095"/>
      <point x="224" y="1080" type="curve" smooth="yes"/>
      <point x="224" y="101" type="line" smooth="yes"/>
      <point x="224" y="-201"/>
      <point x="157" y="-240"/>
      <point x="90" y="-240" type="curve" smooth="yes"/>
      <point x="41" y="-240"/>
      <point x="-27" y="-213"/>
      <point x="-99" y="-149" type="curve"/>
      <point x="-134" y="-162"/>
      <point x="-272" y="-286"/>
      <point x="-272" y="-317" type="curve" smooth="yes"/>
      <point x="-272" y="-348"/>
      <point x="-147" y="-412"/>
      <point x="-24" y="-412" type="curve" smooth="yes"/>
      <point x="71" y="-412"/>
      <point x="180" y="-361"/>
      <point x="248" y="-305" type="curve" smooth="yes"/>
      <point x="350" y="-223"/>
      <point x="485" y="-107"/>
      <point x="485" y="171" type="curve" smooth="yes"/>
      <point x="485" y="1080" type="line" smooth="yes"/>
      <point x="485" y="1098"/>
      <point x="529" y="1122"/>
    </contour>
  </outline>
</glyph>
<glyph name="K" format="2">
  <advance width="1242"/>
  <unicode hex="004B"/>
  <anchor x="306" y="0" name="H"/>
  <anchor x="640" y="-97" name="L"/>
  <anchor x="616" y="1323" name="U"/>
  <outline>
    <contour>
      <point x="1179" y="1140" type="curve"/>
      <point x="1179" y="1217" type="line"/>
      <point x="738" y="1217" type="line"/>
      <point x="738" y="1140" type="line"/>
      <point x="839" y="1131"/>
      <point x="841" y="1123"/>
      <point x="782" y="1054" type="curve" smooth="yes"/>
      <point x="416" y="621" type="line"/>
      <point x="589" y="621" type="line"/>
      <point x="1034" y="1080" type="line" smooth="yes"/>
      <point x="1073" y="1122"/>
      <point x="1096" y="1129"/>
    </contour>
    <contour>
      <point x="1241" y="54" type="curve"/>
      <point x="1235" y="131" type="line"/>
      <point x="1168" y="124"/>
      <point x="1126" y="125"/>
      <point x="1086" y="167" type="curve" smooth="yes"/>
      <point x="581" y="696" type="line"/>
      <point x="416" y="621" type="line"/>
      <point x="888" y="28" type="line" smooth="yes"/>
      <point x="914" y="-4"/>
      <point x="941" y="-14"/>
      <point x="979" y="-14" type="curve" smooth="yes"/>
      <point x="1040" y="-14"/>
      <point x="1166" y="29"/>
    </contour>
    <contour>
      <point x="40" y="0" type="line"/>
      <point x="563" y="0" type="line"/>
      <point x="563" y="77" type="line"/>
      <point x="469" y="95"/>
      <point x="433" y="121"/>
      <point x="433" y="136" type="curve" smooth="yes"/>
      <point x="433" y="1080" type="line" smooth="yes"/>
      <point x="433" y="1098"/>
      <point x="476" y="1122"/>
      <point x="563" y="1140" type="curve"/>
      <point x="563" y="1217" type="line"/>
      <point x="40" y="1217" type="line"/>
      <point x="40" y="1140" type="line"/>
      <point x="132" y="1122"/>
      <point x="170" y="1095"/>
      <point x="170" y="1080" type="curve" smooth="yes"/>
      <point x="170" y="136" type="line" smooth="yes"/>
      <point x="170" y="119"/>
      <point x="127" y="95"/>
      <point x="40" y="77" type="curve"/>
    </contour>
  </outline>
</glyph>
<glyph name="L" format="2">
  <advance width="1058"/>
  <unicode hex="004C"/>
  <anchor x="539" y="0" name="H"/>
  <anchor x="539" y="-100" name="L"/>
  <anchor x="833" y="900" name="R"/>
  <anchor x="505" y="1370" name="U"/>
  <outline>
    <contour>
      <point x="1036" y="318" type="curve"/>
      <point x="956" y="345" type="line"/>
      <point x="900" y="189"/>
      <point x="862" y="127"/>
      <point x="740" y="127" type="curve" smooth="yes"/>
      <point x="634" y="127" type="line" smooth="yes"/>
      <point x="488" y="127"/>
      <point x="448" y="154"/>
      <point x="448" y="201" type="curve" smooth="yes"/>
      <point x="448" y="1118" type="line" smooth="yes"/>
      <point x="448" y="1137"/>
      <point x="493" y="1161"/>
      <point x="583" y="1180" type="curve"/>
      <point x="583" y="1260" type="line"/>
      <point x="41" y="1260" type="line"/>
      <point x="41" y="1180" type="line"/>
      <point x="137" y="1161"/>
      <point x="176" y="1134"/>
      <point x="176" y="1118" type="curve" smooth="yes"/>
      <point x="176" y="141" type="line" smooth="yes"/>
      <point x="176" y="123"/>
      <point x="131" y="98"/>
      <point x="41" y="80" type="curve"/>
      <point x="41" y="0" type="line"/>
      <point x="996" y="0" type="line"/>
      <point x="1006" y="39"/>
      <point x="1026" y="203"/>
    </contour>
  </outline>
</glyph>
<glyph name="M" format="2">
  <advance width="1693"/>
  <unicode hex="004D"/>
  <anchor x="1367" y="0" name="H"/>
  <anchor x="837" y="-97" name="L"/>
  <anchor x="837" y="1323" name="U"/>
  <outline>
    <contour>
      <point x="1104" y="0" type="line"/>
      <point x="1624" y="0" type="line"/>
      <point x="1624" y="77" type="line"/>
      <point x="1531" y="95"/>
      <point x="1484" y="121"/>
      <point x="1484" y="136" type="curve" smooth="yes"/>
      <point x="1474" y="1137" type="line"/>
      <point x="1235" y="1082" type="line"/>
      <point x="1244" y="136" type="line" smooth="yes"/>
      <point x="1244" y="119"/>
      <point x="1191" y="95"/>
      <point x="1104" y="77" type="curve"/>
    </contour>
    <contour>
      <point x="1596" y="1140" type="curve"/>
      <point x="1596" y="1217" type="line"/>
      <point x="1257" y="1217" type="line" smooth="yes"/>
      <point x="1233" y="1217"/>
      <point x="1220" y="1211"/>
      <point x="1186" y="1136" type="curve" smooth="yes"/>
      <point x="785" y="253" type="line" smooth="yes"/>
      <point x="767" y="213"/>
      <point x="797" y="162"/>
      <point x="827" y="0" type="curve"/>
      <point x="831" y="0" type="line"/>
      <point x="1271" y="971" type="line" smooth="yes"/>
      <point x="1316" y="1068"/>
      <point x="1509" y="1140"/>
    </contour>
    <contour>
      <point x="867" y="255" type="curve" smooth="yes"/>
      <point x="477" y="1136" type="line" smooth="yes"/>
      <point x="446" y="1206"/>
      <point x="433" y="1217"/>
      <point x="407" y="1217" type="curve" smooth="yes"/>
      <point x="59" y="1217" type="line"/>
      <point x="59" y="1140" type="line"/>
      <point x="129" y="1140"/>
      <point x="238" y="1114"/>
      <point x="288" y="998" type="curve" smooth="yes"/>
      <point x="730" y="0" type="line"/>
      <point x="827" y="0" type="line"/>
      <point x="859" y="162"/>
      <point x="884" y="215"/>
    </contour>
    <contour>
      <point x="49" y="0" type="line"/>
      <point x="458" y="0" type="line"/>
      <point x="458" y="77" type="line"/>
      <point x="365" y="95"/>
      <point x="327" y="121"/>
      <point x="327" y="136" type="curve" smooth="yes"/>
      <point x="338" y="1144" type="line"/>
      <point x="189" y="1120" type="line"/>
      <point x="180" y="136" type="line" smooth="yes"/>
      <point x="180" y="119"/>
      <point x="137" y="95"/>
      <point x="49" y="77" type="curve"/>
    </contour>
  </outline>
</glyph>
<glyph name="N" format="2">
  <advance width="1366"/>
  <unicode hex="004E"/>
  <anchor x="1074" y="0" name="H"/>
  <anchor x="684" y="-100" name="L"/>
  <anchor x="684" y="1370" name="U"/>
  <outline>
    <contour>
      <point x="1326" y="1180" type="curve"/>
      <point x="1326" y="1260" type="line"/>
      <point x="898" y="1260" type="line"/>
      <point x="898" y="1180" type="line"/>
      <point x="1005" y="1165"/>
      <point x="1034" y="1134"/>
      <point x="1034" y="1118" type="curve" smooth="yes"/>
      <point x="1034" y="71" type="line"/>
      <point x="1190" y="32" type="line"/>
      <point x="1190" y="1118" type="line" smooth="yes"/>
      <point x="1190" y="1137"/>
      <point x="1230" y="1167"/>
    </contour>
    <contour>
      <point x="1190" y="-30" type="curve"/>
      <point x="1190" y="148" type="line"/>
      <point x="1190" y="148"/>
      <point x="1082" y="280"/>
      <point x="1054" y="319" type="curve" smooth="yes"/>
      <point x="432" y="1182" type="line" smooth="yes"/>
      <point x="382" y="1251"/>
      <point x="375" y="1260"/>
      <point x="336" y="1260" type="curve" smooth="yes"/>
      <point x="41" y="1260" type="line"/>
      <point x="41" y="1180" type="line"/>
      <point x="111" y="1169"/>
      <point x="183" y="1112"/>
      <point x="238" y="1035" type="curve" smooth="yes"/>
      <point x="924" y="86" type="line" smooth="yes"/>
      <point x="964" y="30"/>
      <point x="1050" y="-19"/>
    </contour>
    <contour>
      <point x="41" y="0" type="line"/>
      <point x="469" y="0" type="line"/>
      <point x="469" y="80" type="line"/>
      <point x="366" y="94"/>
      <point x="334" y="125"/>
      <point x="334" y="141" type="curve" smooth="yes"/>
      <point x="334" y="1221" type="line"/>
      <point x="176" y="1159" type="line"/>
      <point x="176" y="141" type="line" smooth="yes"/>
      <point x="176" y="123"/>
      <point x="139" y="92"/>
      <point x="41" y="80" type="curve"/>
    </contour>
  </outline>
</glyph>
<glyph name="O" format="2">
  <advance width="1240"/>
  <unicode hex="004F"/>
  <anchor x="590" y="0" name="H"/>
  <anchor x="622" y="-97" name="L"/>
  <anchor x="685" y="0" name="O"/>
  <anchor x="1213" y="1063" name="R"/>
  <anchor x="622" y="1323" name="U"/>
  <outline>
    <contour>
      <point x="582" y="-29" type="curve" smooth="yes"/>
      <point x="901" y="-29"/>
      <point x="1171" y="275"/>
      <point x="1171" y="625" type="curve" smooth="yes"/>
      <point x="1171" y="940"/>
      <point x="984" y="1246"/>
      <point x="639" y="1246" type="curve" smooth="yes"/>
      <point x="291" y="1246"/>
      <point x="50" y="942"/>
      <point x="50" y="591" type="curve" smooth="yes"/>
      <point x="50" y="267"/>
      <point x="253" y="-29"/>
    </contour>
    <contour>
      <point x="628" y="104" type="curve" smooth="yes"/>
      <point x="457" y="104"/>
      <point x="316" y="330"/>
      <point x="316" y="619" type="curve" smooth="yes"/>
      <point x="316" y="934"/>
      <point x="409" y="1117"/>
      <point x="583" y="1117" type="curve" smooth="yes"/>
      <point x="776" y="1117"/>
      <point x="905" y="874"/>
      <point x="905" y="608" type="curve" smooth="yes"/>
      <point x="905" y="267"/>
      <point x="788" y="104"/>
    </contour>
  </outline>
</glyph>
<glyph name="P" format="2">
  <advance width="1182"/>
  <unicode hex="0050"/>
  <anchor x="569" y="-100" name="L"/>
  <anchor x="569" y="1370" name="U"/>
  <outline>
    <contour>
      <point x="1112" y="936" type="curve"/>
      <point x="1112" y="1165"/>
      <point x="899" y="1290"/>
      <point x="584" y="1290" type="curve" smooth="yes"/>
      <point x="404" y="1290"/>
      <point x="175" y="1265"/>
      <point x="27" y="1230" type="curve"/>
      <point x="41" y="1131" type="line"/>
      <point x="170" y="1154"/>
      <point x="387" y="1178"/>
      <point x="527" y="1178" type="curve" smooth="yes"/>
      <point x="714" y="1178"/>
      <point x="836" y="1077"/>
      <point x="836" y="895" type="curve" smooth="yes"/>
      <point x="836" y="707"/>
      <point x="731" y="628"/>
      <point x="617" y="628" type="curve" smooth="yes"/>
      <point x="570" y="628"/>
      <point x="536" y="634"/>
      <point x="482" y="658" type="curve"/>
      <point x="514" y="546" type="line"/>
      <point x="559" y="526"/>
      <point x="623" y="516"/>
      <point x="684" y="516" type="curve" smooth="yes"/>
      <point x="866" y="516"/>
      <point x="1112" y="659"/>
    </contour>
    <contour>
      <point x="41" y="0" type="line"/>
      <point x="613" y="0" type="line"/>
      <point x="613" y="80" type="line"/>
      <point x="474" y="103"/>
      <point x="448" y="125"/>
      <point x="448" y="141" type="curve" smooth="yes"/>
      <point x="448" y="1182" type="line"/>
      <point x="176" y="1182" type="line"/>
      <point x="176" y="141" type="line" smooth="yes"/>
      <point x="176" y="123"/>
      <point x="131" y="98"/>
      <point x="41" y="80" type="curve"/>
    </contour>
  </outline>
</glyph>
<glyph name="Q" format="2">
  <advance width="1185"/>
  <unicode hex="0051"/>
  <anchor x="590" y="-253" name="L"/>
  <anchor x="590" y="1323" name="U"/>
  <outline>
    <contour>
      <point x="1102" y="625" type="curve"/>
      <point x="1102" y="940"/>
      <point x="931" y="1246"/>
      <point x="610" y="1246" type="curve" smooth="yes"/>
      <point x="301" y="1246"/>
      <point x="63" y="942"/>
      <point x="63" y="591" type="curve" smooth="yes"/>
      <point x="63" y="254"/>
      <point x="265" y="-29"/>
      <point x="555" y="-29" type="curve" smooth="yes"/>
      <point x="851" y="-29"/>
      <point x="1102" y="275"/>
    </contour>
    <contour>
      <point x="1259" y="-115" type="curve"/>
      <point x="1227" y="-73" type="line"/>
      <point x="1152" y="-130"/>
      <point x="1120" y="-147"/>
      <point x="1089" y="-147" type="curve" smooth="yes"/>
      <point x="967" y="-147"/>
      <point x="818" y="8"/>
      <point x="665" y="47" type="curve" smooth="yes"/>
      <point x="631" y="56"/>
      <point x="483" y="19"/>
      <point x="483" y="19" type="curve"/>
      <point x="684" y="-15"/>
      <point x="880" y="-300"/>
      <point x="1083" y="-300" type="curve" smooth="yes"/>
      <point x="1122" y="-300"/>
      <point x="1199" y="-227"/>
    </contour>
    <contour>
      <point x="929" y="608" type="curve"/>
      <point x="929" y="267"/>
      <point x="786" y="91"/>
      <point x="586" y="91" type="curve" smooth="yes"/>
      <point x="396" y="91"/>
      <point x="236" y="330"/>
      <point x="236" y="619" type="curve" smooth="yes"/>
      <point x="236" y="934"/>
      <point x="362" y="1131"/>
      <point x="577" y="1131" type="curve" smooth="yes"/>
      <point x="788" y="1131"/>
      <point x="929" y="874"/>
    </contour>
  </outline>
</glyph>
<glyph name="R" format="2">
  <advance width="1260"/>
  <unicode hex="0052"/>
  <anchor x="317" y="0" name="H"/>
  <anchor x="568" y="-100" name="L"/>
  <anchor x="568" y="1370" name="U"/>
  <outline>
    <contour>
      <point x="1056" y="987" type="curve"/>
      <point x="1056" y="1159"/>
      <point x="917" y="1290"/>
      <point x="543" y="1290" type="curve" smooth="yes"/>
      <point x="348" y="1290"/>
      <point x="171" y="1261"/>
      <point x="27" y="1230" type="curve"/>
      <point x="41" y="1131" type="line"/>
      <point x="178" y="1152"/>
      <point x="380" y="1178"/>
      <point x="497" y="1178" type="curve" smooth="yes"/>
      <point x="726" y="1178"/>
      <point x="781" y="1074"/>
      <point x="781" y="956" type="curve" smooth="yes"/>
      <point x="781" y="798"/>
      <point x="710" y="702"/>
      <point x="536" y="702" type="curve" smooth="yes"/>
      <point x="502" y="702"/>
      <point x="476" y="704"/>
      <point x="430" y="712" type="curve"/>
      <point x="436" y="596" type="line"/>
      <point x="476" y="586"/>
      <point x="516" y="582"/>
      <point x="554" y="582" type="curve" smooth="yes"/>
      <point x="830" y="582"/>
      <point x="1056" y="731"/>
    </contour>
    <contour>
      <point x="1268" y="56" type="curve"/>
      <point x="1253" y="136" type="line"/>
      <point x="1163" y="128"/>
      <point x="1139" y="138"/>
      <point x="1096" y="194" type="curve" smooth="yes"/>
      <point x="733" y="678" type="line"/>
      <point x="574" y="612" type="line"/>
      <point x="872" y="41" type="line" smooth="yes"/>
      <point x="890" y="11"/>
      <point x="932" y="-14"/>
      <point x="970" y="-14" type="curve" smooth="yes"/>
      <point x="1022" y="-14"/>
      <point x="1180" y="26"/>
    </contour>
    <contour>
      <point x="41" y="0" type="line"/>
      <point x="583" y="0" type="line"/>
      <point x="583" y="80" type="line"/>
      <point x="486" y="98"/>
      <point x="448" y="125"/>
      <point x="448" y="141" type="curve" smooth="yes"/>
      <point x="448" y="1193" type="line"/>
      <point x="176" y="1193" type="line"/>
      <point x="176" y="141" type="line" smooth="yes"/>
      <point x="176" y="123"/>
      <point x="131" y="98"/>
      <point x="41" y="80" type="curve"/>
    </contour>
  </outline>
</glyph>
<glyph name="S" format="2">
  <advance width="1068"/>
  <unicode hex="0053"/>
  <anchor x="519" y="0" name="H"/>
  <anchor x="543" y="-100" name="L"/>
  <anchor x="543" y="1370" name="U"/>
  <outline>
    <contour>
      <point x="838" y="991" type="line"/>
      <point x="870" y="1020"/>
      <point x="944" y="1182"/>
      <point x="925" y="1198" type="curve"/>
      <point x="876" y="1251"/>
      <point x="730" y="1290"/>
      <point x="582" y="1290" type="curve" smooth="yes"/>
      <point x="252" y="1290"/>
      <point x="108" y="1083"/>
      <point x="108" y="958" type="curve" smooth="yes"/>
      <point x="108" y="571"/>
      <point x="741" y="630"/>
      <point x="741" y="306" type="curve" smooth="yes"/>
      <point x="741" y="178"/>
      <point x="634" y="118"/>
      <point x="514" y="118" type="curve" smooth="yes"/>
      <point x="378" y="118"/>
      <point x="261" y="236"/>
      <point x="200" y="393" type="curve"/>
      <point x="122" y="398" type="line"/>
      <point x="92" y="289"/>
      <point x="94" y="78"/>
      <point x="112" y="68" type="curve" smooth="yes"/>
      <point x="206" y="8"/>
      <point x="380" y="-30"/>
      <point x="477" y="-30" type="curve" smooth="yes"/>
      <point x="824" y="-30"/>
      <point x="987" y="199"/>
      <point x="987" y="377" type="curve" smooth="yes"/>
      <point x="987" y="772"/>
      <point x="350" y="771"/>
      <point x="350" y="1023" type="curve" smooth="yes"/>
      <point x="350" y="1099"/>
      <point x="402" y="1171"/>
      <point x="532" y="1171" type="curve" smooth="yes"/>
      <point x="608" y="1171"/>
      <point x="710" y="1130"/>
      <point x="764" y="997" type="curve"/>
    </contour>
  </outline>
</glyph>
<glyph name="T" format="2">
  <advance width="1202"/>
  <unicode hex="0054"/>
  <anchor x="583" y="0" name="H"/>
  <anchor x="583" y="-100" name="L"/>
  <anchor x="583" y="1370" name="U"/>
  <outline>
    <contour>
      <point x="1166" y="1226" type="curve"/>
      <point x="1127" y="1260" type="line"/>
      <point x="704" y="1260" type="line"/>
      <point x="675" y="1133" type="line"/>
      <point x="961" y="1133" type="line" smooth="yes"/>
      <point x="1018" y="1133"/>
      <point x="1019" y="1050"/>
      <point x="1045" y="926" type="curve"/>
      <point x="1127" y="926" type="line"/>
      <point x="1143" y="1010"/>
      <point x="1164" y="1158"/>
    </contour>
    <contour>
      <point x="209" y="1133" type="curve" smooth="yes"/>
      <point x="494" y="1133" type="line"/>
      <point x="485" y="1260" type="line"/>
      <point x="43" y="1260" type="line"/>
      <point x="29" y="1190"/>
      <point x="7" y="1023"/>
      <point x="1" y="945" type="curve"/>
      <point x="81" y="916" type="line"/>
      <point x="141" y="1072"/>
      <point x="168" y="1133"/>
    </contour>
    <contour>
      <point x="298" y="0" type="line"/>
      <point x="878" y="0" type="line"/>
      <point x="878" y="80" type="line"/>
      <point x="755" y="105"/>
      <point x="724" y="135"/>
      <point x="724" y="152" type="curve" smooth="yes"/>
      <point x="724" y="1140" type="line" smooth="yes"/>
      <point x="724" y="1158"/>
      <point x="776" y="1161"/>
      <point x="866" y="1180" type="curve"/>
      <point x="866" y="1260" type="line"/>
      <point x="326" y="1260" type="line"/>
      <point x="326" y="1180" type="line"/>
      <point x="422" y="1161"/>
      <point x="452" y="1156"/>
      <point x="452" y="1140" type="curve" smooth="yes"/>
      <point x="452" y="152" type="line" smooth="yes"/>
      <point x="452" y="133"/>
      <point x="421" y="105"/>
      <point x="298" y="80" type="curve"/>
    </contour>
  </outline>
</glyph>
<glyph name="U" format="2">
  <advance width="1329"/>
  <unicode hex="0055"/>
  <anchor x="672" y="0" name="H"/>
  <anchor x="672" y="-97" name="L"/>
  <anchor x="755" y="0" name="O"/>
  <anchor x="1329" y="1063" name="R"/>
  <anchor x="672" y="1323" name="U"/>
  <outline>
    <contour>
      <point x="1276" y="1140" type="curve"/>
      <point x="1276" y="1217" type="line"/>
      <point x="835" y="1217" type="line"/>
      <point x="835" y="1140" type="line"/>
      <point x="927" y="1122"/>
      <point x="966" y="1095"/>
      <point x="966" y="1080" type="curve" smooth="yes"/>
      <point x="966" y="485" type="line" smooth="yes"/>
      <point x="966" y="294"/>
      <point x="909" y="118"/>
      <point x="725" y="118" type="curve" smooth="yes"/>
      <point x="505" y="118"/>
      <point x="433" y="247"/>
      <point x="433" y="495" type="curve" smooth="yes"/>
      <point x="433" y="1080" type="line" smooth="yes"/>
      <point x="433" y="1098"/>
      <point x="476" y="1122"/>
      <point x="563" y="1140" type="curve"/>
      <point x="563" y="1217" type="line"/>
      <point x="40" y="1217" type="line"/>
      <point x="40" y="1140" type="line"/>
      <point x="132" y="1122"/>
      <point x="170" y="1095"/>
      <point x="170" y="1080" type="curve" smooth="yes"/>
      <point x="170" y="429" type="line" smooth="yes"/>
      <point x="170" y="115"/>
      <point x="396" y="-29"/>
      <point x="661" y="-29" type="curve" smooth="yes"/>
      <point x="939" y="-29"/>
      <point x="1146" y="168"/>
      <point x="1146" y="506" type="curve" smooth="yes"/>
      <point x="1146" y="1080" type="line" smooth="yes"/>
      <point x="1146" y="1098"/>
      <point x="1189" y="1122"/>
    </contour>
  </outline>
</glyph>
<glyph name="V" format="2">
  <advance width="1321"/>
  <unicode hex="0056"/>
  <anchor x="648" y="0" name="H"/>
  <anchor x="651" y="-97" name="L"/>
  <anchor x="605" y="0" name="O"/>
  <anchor x="661" y="1323" name="U"/>
  <outline>
    <contour>
      <point x="1291" y="1140" type="curve"/>
      <point x="1291" y="1217" type="line"/>
      <point x="871" y="1217" type="line"/>
      <point x="871" y="1140" type="line"/>
      <point x="977" y="1127"/>
      <point x="1004" y="1114"/>
      <point x="990" y="1076" type="curve" smooth="yes"/>
      <point x="712" y="295" type="line"/>
      <point x="406" y="1078" type="line" smooth="yes"/>
      <point x="391" y="1115"/>
      <point x="417" y="1132"/>
      <point x="520" y="1140" type="curve"/>
      <point x="520" y="1217" type="line"/>
      <point x="11" y="1217" type="line"/>
      <point x="11" y="1140" type="line"/>
      <point x="92" y="1129"/>
      <point x="126" y="1110"/>
      <point x="139" y="1076" type="curve" smooth="yes"/>
      <point x="582" y="-29" type="line"/>
      <point x="651" y="-13"/>
      <point x="759" y="27"/>
      <point x="781" y="84" type="curve" smooth="yes"/>
      <point x="1141" y="1076" type="line"/>
      <point x="1153" y="1112"/>
      <point x="1204" y="1123"/>
    </contour>
  </outline>
</glyph>
<glyph name="W" format="2">
  <advance width="1681"/>
  <unicode hex="0057"/>
  <anchor x="850" y="-97" name="L"/>
  <anchor x="850" y="1323" name="U"/>
  <outline>
    <contour>
      <point x="1680" y="1140" type="curve"/>
      <point x="1680" y="1217" type="line"/>
      <point x="1243" y="1217" type="line"/>
      <point x="1243" y="1140" type="line"/>
      <point x="1330" y="1125"/>
      <point x="1398" y="1110"/>
      <point x="1392" y="1080" type="curve"/>
      <point x="1243" y="402" type="line"/>
      <point x="923" y="1217" type="line"/>
      <point x="816" y="1217" type="line"/>
      <point x="542" y="402" type="line"/>
      <point x="383" y="1072" type="line" smooth="yes"/>
      <point x="377" y="1100"/>
      <point x="380" y="1127"/>
      <point x="505" y="1140" type="curve"/>
      <point x="505" y="1217" type="line"/>
      <point x="19" y="1217" type="line"/>
      <point x="19" y="1140" type="line"/>
      <point x="111" y="1123"/>
      <point x="146" y="1104"/>
      <point x="153" y="1072" type="curve" smooth="yes"/>
      <point x="404" y="-29" type="line"/>
      <point x="456" y="-17"/>
      <point x="540" y="2"/>
      <point x="558" y="57" type="curve" smooth="yes"/>
      <point x="836" y="832" type="line"/>
      <point x="1169" y="-29" type="line"/>
      <point x="1208" y="-20"/>
      <point x="1300" y="2"/>
      <point x="1312" y="57" type="curve" smooth="yes"/>
      <point x="1533" y="1080" type="line" smooth="yes"/>
      <point x="1537" y="1100"/>
      <point x="1566" y="1117"/>
    </contour>
  </outline>
</glyph>
<glyph name="X" format="2">
  <advance width="1252"/>
  <unicode hex="0058"/>
  <anchor x="626" y="-97" name="L"/>
  <anchor x="626" y="1323" name="U"/>
  <outline>
    <contour>
      <point x="1184" y="1140" type="curve"/>
      <point x="1184" y="1217" type="line"/>
      <point x="747" y="1217" type="line"/>
      <point x="747" y="1140" type="line"/>
      <point x="862" y="1131"/>
      <point x="874" y="1118"/>
      <point x="838" y="1059" type="curve" smooth="yes"/>
      <point x="562" y="622" type="line"/>
      <point x="634" y="475" type="line"/>
      <point x="1008" y="1059" type="line" smooth="yes"/>
      <point x="1042" y="1113"/>
      <point x="1091" y="1129"/>
    </contour>
    <contour>
      <point x="697" y="0" type="line"/>
      <point x="1232" y="0" type="line"/>
      <point x="1232" y="77" type="line"/>
      <point x="1156" y="87"/>
      <point x="1126" y="103"/>
      <point x="1088" y="158" type="curve" smooth="yes"/>
      <point x="470" y="1059" type="line" smooth="yes"/>
      <point x="432" y="1115"/>
      <point x="465" y="1129"/>
      <point x="574" y="1140" type="curve"/>
      <point x="574" y="1217" type="line"/>
      <point x="31" y="1217" type="line"/>
      <point x="31" y="1140" type="line"/>
      <point x="116" y="1127"/>
      <point x="142" y="1116"/>
      <point x="182" y="1059" type="curve" smooth="yes"/>
      <point x="800" y="158" type="line" smooth="yes"/>
      <point x="835" y="107"/>
      <point x="811" y="89"/>
      <point x="697" y="77" type="curve"/>
    </contour>
    <contour>
      <point x="367" y="158" type="curve" smooth="yes"/>
      <point x="637" y="558" type="line"/>
      <point x="576" y="726" type="line"/>
      <point x="197" y="158" type="line" smooth="yes"/>
      <point x="162" y="107"/>
      <point x="104" y="83"/>
      <point x="21" y="77" type="curve"/>
      <point x="21" y="0" type="line"/>
      <point x="456" y="0" type="line"/>
      <point x="456" y="77" type="line"/>
      <point x="337" y="85"/>
      <point x="329" y="102"/>
    </contour>
  </outline>
</glyph>
<glyph name="Y" format="2">
  <advance width="1227"/>
  <unicode hex="0059"/>
  <anchor x="610" y="-100" name="L"/>
  <anchor x="610" y="1370" name="U"/>
  <outline>
    <contour>
      <point x="1188" y="1209" type="curve"/>
      <point x="1188" y="1260" type="line"/>
      <point x="786" y="1260" type="line"/>
      <point x="786" y="1209" type="line"/>
      <point x="889" y="1196"/>
      <point x="917" y="1178"/>
      <point x="897" y="1143" type="curve" smooth="yes"/>
      <point x="638" y="680" type="line"/>
      <point x="545" y="872"/>
      <point x="415" y="1099"/>
      <point x="315" y="1229" type="curve" smooth="yes"/>
      <point x="294" y="1256"/>
      <point x="262" y="1270"/>
      <point x="231" y="1270" type="curve" smooth="yes"/>
      <point x="176" y="1270"/>
      <point x="78" y="1258"/>
      <point x="0" y="1247" type="curve"/>
      <point x="4" y="1196" type="line"/>
      <point x="115" y="1196"/>
      <point x="141" y="1172"/>
      <point x="166" y="1143" type="curve"/>
      <point x="266" y="1007"/>
      <point x="445" y="709"/>
      <point x="539" y="487" type="curve"/>
      <point x="675" y="487" type="line"/>
      <point x="1034" y="1143" type="line" smooth="yes"/>
      <point x="1053" y="1177"/>
      <point x="1097" y="1192"/>
    </contour>
    <contour>
      <point x="356" y="0" type="line"/>
      <point x="866" y="0" type="line"/>
      <point x="866" y="51" type="line"/>
      <point x="741" y="76"/>
      <point x="702" y="106"/>
      <point x="702" y="123" type="curve" smooth="yes"/>
      <point x="702" y="637" type="line"/>
      <point x="518" y="637" type="line"/>
      <point x="518" y="123" type="line" smooth="yes"/>
      <point x="518" y="104"/>
      <point x="477" y="76"/>
      <point x="356" y="51" type="curve"/>
    </contour>
  </outline>
</glyph>
<glyph name="Z" format="2">
  <advance width="1126"/>
  <unicode hex="005A"/>
  <anchor x="563" y="-100" name="L"/>
  <anchor x="585" y="1370" name="U"/>
  <outline>
    <contour>
      <point x="1056" y="367" type="curve"/>
      <point x="964" y="390" type="line"/>
      <point x="913" y="226"/>
      <point x="884" y="137"/>
      <point x="827" y="137" type="curve" smooth="yes"/>
      <point x="387" y="137" type="line"/>
      <point x="1046" y="1208" type="line"/>
      <point x="1012" y="1260" type="line"/>
      <point x="331" y="1260" type="line" smooth="yes"/>
      <point x="253" y="1260"/>
      <point x="214" y="1260"/>
      <point x="141" y="1276" type="curve"/>
      <point x="102" y="901" type="line"/>
      <point x="196" y="880" type="line"/>
      <point x="226" y="1019"/>
      <point x="296" y="1123"/>
      <point x="339" y="1123" type="curve" smooth="yes"/>
      <point x="714" y="1123" type="line"/>
      <point x="50" y="54" type="line"/>
      <point x="88" y="0" type="line"/>
      <point x="1044" y="0" type="line"/>
      <point x="1046" y="78"/>
      <point x="1052" y="281"/>
    </contour>
  </outline>
</glyph>
<glyph name="bracketleft" format="2">
  <advance width="557"/>
  <unicode hex="005B"/>
  <outline>
    <contour>
      <point x="491" y="-194" type="line"/>
      <point x="248" y="-194" type="line"/>
      <point x="248" y="1312" type="line"/>
      <point x="496" y="1312" type="line"/>
      <point x="507" y="1335"/>
      <point x="515" y="1361"/>
      <point x="519" y="1389" type="curve"/>
      <point x="491" y="1413" type="line"/>
      <point x="124" y="1413" type="line"/>
      <point x="124" y="-295" type="line"/>
      <point x="496" y="-295" type="line"/>
      <point x="508" y="-268"/>
      <point x="516" y="-243"/>
      <point x="521" y="-219" type="curve"/>
    </contour>
  </outline>
</glyph>
<glyph name="backslash" format="2">
  <advance width="848"/>
  <unicode hex="005C"/>
  <outline>
    <contour>
      <point x="181" y="1369" type="line"/>
      <point x="148" y="1389"/>
      <point x="115" y="1404"/>
      <point x="82" y="1413" type="curve"/>
      <point x="49" y="1393" type="line"/>
      <point x="667" y="-250" type="line"/>
      <point x="686" y="-265"/>
      <point x="720" y="-280"/>
      <point x="768" y="-295" type="curve"/>
      <point x="800" y="-275" type="line"/>
    </contour>
  </outline>
</glyph>
<glyph name="bracketright" format="2">
  <advance width="667"/>
  <unicode hex="005D"/>
  <outline>
    <contour>
      <point x="543" y="1413" type="line"/>
      <point x="109" y="1413" type="line"/>
      <point x="98" y="1387"/>
      <point x="60" y="1312"/>
      <point x="55" y="1287" type="curve"/>
      <point x="95" y="1252" type="line"/>
      <point x="358" y="1252" type="line"/>
      <point x="358" y="-110" type="line"/>
      <point x="99" y="-110" type="line"/>
      <point x="78" y="-143"/>
      <point x="51" y="-208"/>
      <point x="36" y="-261" type="curve"/>
      <point x="75" y="-295" type="line"/>
      <point x="543" y="-295" type="line"/>
    </contour>
  </outline>
</glyph>
<glyph name="underscore" format="2">
  <advance width="762"/>
  <unicode hex="005F"/>
  <outline>
    <contour>
      <point x="803" y="-155" type="curve"/>
      <point x="770" y="-123" type="line"/>
      <point x="7" y="-123" type="line"/>
      <point x="-4" y="-148"/>
      <point x="-34" y="-210"/>
      <point x="-40" y="-237" type="curve"/>
      <point x="-7" y="-270" type="line"/>
      <point x="755" y="-270" type="line"/>
      <point x="765" y="-249"/>
      <point x="796" y="-183"/>
    </contour>
  </outline>
</glyph>
<glyph name="a" format="2">
  <advance width="1042"/>
  <unicode hex="0061"/>
  <anchor x="412" y="0" name="H"/>
  <anchor x="499" y="-100" name="L"/>
  <anchor x="794" y="0" name="O"/>
  <anchor x="1042" y="900" name="R"/>
  <anchor x="523" y="1050" name="U"/>
  <outline>
    <contour>
      <point x="1037" y="119" type="curve"/>
      <point x="1013" y="201" type="line"/>
      <point x="960" y="179"/>
      <point x="943" y="174"/>
      <point x="924" y="174" type="curve" smooth="yes"/>
      <point x="900" y="174"/>
      <point x="884" y="196"/>
      <point x="884" y="252" type="curve" smooth="yes"/>
      <point x="884" y="714" type="line" smooth="yes"/>
      <point x="884" y="851"/>
      <point x="801" y="960"/>
      <point x="609" y="960" type="curve" smooth="yes"/>
      <point x="375" y="960"/>
      <point x="146" y="833"/>
      <point x="80" y="669" type="curve"/>
      <point x="104" y="612" type="line"/>
      <point x="136" y="604"/>
      <point x="388" y="671"/>
      <point x="384" y="696" type="curve" smooth="yes"/>
      <point x="376" y="776"/>
      <point x="443" y="823"/>
      <point x="501" y="823" type="curve" smooth="yes"/>
      <point x="595" y="823"/>
      <point x="623" y="764"/>
      <point x="623" y="684" type="curve" smooth="yes"/>
      <point x="623" y="164" type="line" smooth="yes"/>
      <point x="623" y="45"/>
      <point x="664" y="-30"/>
      <point x="720" y="-30" type="curve" smooth="yes"/>
      <point x="772" y="-30"/>
      <point x="924" y="41"/>
    </contour>
    <contour>
      <point x="633" y="470" type="curve"/>
      <point x="633" y="572" type="line"/>
      <point x="300" y="522"/>
      <point x="212" y="466"/>
      <point x="147" y="401" type="curve" smooth="yes"/>
      <point x="98" y="352"/>
      <point x="62" y="292"/>
      <point x="62" y="204" type="curve" smooth="yes"/>
      <point x="62" y="50"/>
      <point x="178" y="-30"/>
      <point x="293" y="-30" type="curve" smooth="yes"/>
      <point x="383" y="-30"/>
      <point x="516" y="8"/>
      <point x="641" y="144" type="curve"/>
      <point x="633" y="264" type="line"/>
      <point x="528" y="171"/>
      <point x="471" y="156"/>
      <point x="426" y="156" type="curve" smooth="yes"/>
      <point x="391" y="156"/>
      <point x="336" y="178"/>
      <point x="336" y="266" type="curve" smooth="yes"/>
      <point x="336" y="321"/>
      <point x="360" y="355"/>
      <point x="394" y="390" type="curve" smooth="yes"/>
      <point x="428" y="424"/>
      <point x="480" y="445"/>
    </contour>
  </outline>
</glyph>
<glyph name="b" format="2">
  <advance width="1056"/>
  <unicode hex="0062"/>
  <anchor x="488" y="0" name="H"/>
  <anchor x="488" y="-100" name="L"/>
  <anchor x="1078" y="900" name="R"/>
  <anchor x="533" y="1620" name="U"/>
  <outline>
    <contour>
      <point x="970" y="496" type="curve"/>
      <point x="970" y="784"/>
      <point x="841" y="960"/>
      <point x="655" y="960" type="curve" smooth="yes"/>
      <point x="579" y="960"/>
      <point x="443" y="895"/>
      <point x="310" y="747" type="curve"/>
      <point x="310" y="1514" type="line"/>
      <point x="298" y="1526"/>
      <point x="285" y="1538"/>
      <point x="271" y="1550" type="curve"/>
      <point x="189" y="1509"/>
      <point x="105" y="1490"/>
      <point x="8" y="1470" type="curve"/>
      <point x="8" y="1422" type="line"/>
      <point x="117" y="1409"/>
      <point x="136" y="1406"/>
      <point x="136" y="1288" type="curve" smooth="yes"/>
      <point x="136" y="96" type="line"/>
      <point x="280" y="18"/>
      <point x="420" y="-30"/>
      <point x="477" y="-30" type="curve" smooth="yes"/>
      <point x="762" y="-30"/>
      <point x="970" y="264"/>
    </contour>
    <contour>
      <point x="812" y="410" type="curve"/>
      <point x="812" y="256"/>
      <point x="731" y="110"/>
      <point x="575" y="110" type="curve" smooth="yes"/>
      <point x="530" y="110"/>
      <point x="416" y="133"/>
      <point x="310" y="207" type="curve"/>
      <point x="310" y="628" type="line"/>
      <point x="418" y="772"/>
      <point x="524" y="815"/>
      <point x="571" y="815" type="curve" smooth="yes"/>
      <point x="698" y="815"/>
      <point x="812" y="676"/>
    </contour>
  </outline>
</glyph>
<glyph name="c" format="2">
  <advance width="890"/>
  <unicode hex="0063"/>
  <anchor x="488" y="0" name="H"/>
  <anchor x="488" y="-95" name="L"/>
  <anchor x="894" y="851" name="R"/>
  <anchor x="488" y="993" name="U"/>
  <outline>
    <contour>
      <point x="856" y="180" type="curve"/>
      <point x="801" y="245" type="line"/>
      <point x="670" y="151"/>
      <point x="614" y="138"/>
      <point x="543" y="138" type="curve" smooth="yes"/>
      <point x="409" y="138"/>
      <point x="305" y="252"/>
      <point x="305" y="449" type="curve" smooth="yes"/>
      <point x="305" y="695"/>
      <point x="402" y="787"/>
      <point x="508" y="787" type="curve" smooth="yes"/>
      <point x="603" y="787"/>
      <point x="654" y="716"/>
      <point x="700" y="574" type="curve"/>
      <point x="770" y="565" type="line"/>
      <point x="794" y="600"/>
      <point x="856" y="802"/>
      <point x="850" y="833" type="curve"/>
      <point x="808" y="878"/>
      <point x="658" y="908"/>
      <point x="575" y="908" type="curve" smooth="yes"/>
      <point x="269" y="908"/>
      <point x="59" y="692"/>
      <point x="59" y="420" type="curve" smooth="yes"/>
      <point x="59" y="139"/>
      <point x="247" y="-28"/>
      <point x="458" y="-28" type="curve" smooth="yes"/>
      <point x="575" y="-28"/>
      <point x="692" y="-5"/>
    </contour>
  </outline>
</glyph>
<glyph name="d" format="2">
  <advance width="1087"/>
  <unicode hex="0064"/>
  <anchor x="556" y="0" name="H"/>
  <anchor x="534" y="-100" name="L"/>
  <anchor x="1087" y="900" name="R"/>
  <anchor x="534" y="1690" name="U"/>
  <outline>
    <contour>
      <point x="1075" y="92" type="curve"/>
      <point x="1058" y="143" type="line"/>
      <point x="980" y="112"/>
      <point x="954" y="108"/>
      <point x="942" y="122" type="curve" smooth="yes"/>
      <point x="928" y="139"/>
      <point x="919" y="172"/>
      <point x="919" y="266" type="curve" smooth="yes"/>
      <point x="919" y="1518" type="line"/>
      <point x="886" y="1550" type="line"/>
      <point x="817" y="1527"/>
      <point x="721" y="1499"/>
      <point x="602" y="1485" type="curve"/>
      <point x="602" y="1438" type="line"/>
      <point x="741" y="1428"/>
      <point x="745" y="1413"/>
      <point x="745" y="1266" type="curve" smooth="yes"/>
      <point x="745" y="280" type="line" smooth="yes"/>
      <point x="745" y="59"/>
      <point x="776" y="-30"/>
      <point x="833" y="-30" type="curve" smooth="yes"/>
      <point x="870" y="-30"/>
      <point x="952" y="10"/>
    </contour>
    <contour>
      <point x="819" y="248" type="curve"/>
      <point x="814" y="258"/>
      <point x="797" y="289"/>
      <point x="780" y="297" type="curve"/>
      <point x="686" y="207"/>
      <point x="598" y="116"/>
      <point x="499" y="116" type="curve" smooth="yes"/>
      <point x="389" y="116"/>
      <point x="250" y="258"/>
      <point x="250" y="481" type="curve" smooth="yes"/>
      <point x="250" y="726"/>
      <point x="364" y="844"/>
      <point x="524" y="844" type="curve" smooth="yes"/>
      <point x="623" y="844"/>
      <point x="709" y="795"/>
      <point x="752" y="711" type="curve"/>
      <point x="795" y="737"/>
      <point x="811" y="762"/>
      <point x="811" y="842" type="curve"/>
      <point x="707" y="944"/>
      <point x="631" y="960"/>
      <point x="551" y="960" type="curve" smooth="yes"/>
      <point x="270" y="960"/>
      <point x="76" y="684"/>
      <point x="76" y="444" type="curve" smooth="yes"/>
      <point x="76" y="147"/>
      <point x="264" y="-30"/>
      <point x="420" y="-30" type="curve" smooth="yes"/>
      <point x="582" y="-30"/>
      <point x="676" y="72"/>
    </contour>
  </outline>
</glyph>
<glyph name="e" format="2">
  <advance width="902"/>
  <unicode hex="0065"/>
  <outline>
    <contour>
      <point x="831" y="524" type="curve"/>
      <point x="831" y="695"/>
      <point x="748" y="908"/>
      <point x="502" y="908" type="curve" smooth="yes"/>
      <point x="427" y="908"/>
      <point x="337" y="870"/>
      <point x="279" y="830" type="curve" smooth="yes"/>
      <point x="149" y="739"/>
      <point x="71" y="579"/>
      <point x="71" y="410" type="curve" smooth="yes"/>
      <point x="71" y="145"/>
      <point x="246" y="-28"/>
      <point x="445" y="-28" type="curve" smooth="yes"/>
      <point x="579" y="-28"/>
      <point x="656" y="2"/>
      <point x="825" y="183" type="curve"/>
      <point x="820" y="193"/>
      <point x="803" y="219"/>
      <point x="787" y="227" type="curve"/>
      <point x="645" y="116"/>
      <point x="587" y="105"/>
      <point x="508" y="105" type="curve" smooth="yes"/>
      <point x="348" y="105"/>
      <point x="248" y="258"/>
      <point x="241" y="431" type="curve"/>
      <point x="239" y="437"/>
      <point x="237" y="446"/>
      <point x="237" y="457" type="curve"/>
      <point x="720" y="457" type="line"/>
      <point x="760" y="473"/>
      <point x="808" y="498"/>
    </contour>
    <contour>
      <point x="474" y="807" type="curve" smooth="yes"/>
      <point x="628" y="807"/>
      <point x="658" y="654"/>
      <point x="658" y="581" type="curve" smooth="yes"/>
      <point x="658" y="555"/>
      <point x="650" y="547"/>
      <point x="622" y="547" type="curve" smooth="yes"/>
      <point x="243" y="547" type="line"/>
      <point x="265" y="702"/>
      <point x="349" y="807"/>
    </contour>
  </outline>
</glyph>
<glyph name="f" format="2">
  <advance width="614"/>
  <unicode hex="0066"/>
  <outline>
    <contour>
      <point x="789" y="1369" type="curve" smooth="yes"/>
      <point x="789" y="1393"/>
      <point x="681" y="1457"/>
      <point x="599" y="1457" type="curve" smooth="yes"/>
      <point x="515" y="1457"/>
      <point x="395" y="1400"/>
      <point x="308" y="1308" type="curve" smooth="yes"/>
      <point x="234" y="1230"/>
      <point x="185" y="1120"/>
      <point x="184" y="909" type="curve"/>
      <point x="184" y="880" type="line"/>
      <point x="114" y="880" type="line"/>
      <point x="40" y="812" type="line"/>
      <point x="47" y="803"/>
      <point x="55" y="792"/>
      <point x="62" y="784" type="curve"/>
      <point x="184" y="784" type="line"/>
      <point x="184" y="103" type="line" smooth="yes"/>
      <point x="184" y="88"/>
      <point x="140" y="63"/>
      <point x="55" y="48" type="curve"/>
      <point x="55" y="0" type="line"/>
      <point x="542" y="0" type="line"/>
      <point x="542" y="48" type="line"/>
      <point x="396" y="75"/>
      <point x="348" y="88"/>
      <point x="348" y="103" type="curve" smooth="yes"/>
      <point x="348" y="784" type="line"/>
      <point x="448" y="784"/>
      <point x="496" y="766"/>
      <point x="525" y="751" type="curve"/>
      <point x="548" y="764"/>
      <point x="594" y="814"/>
      <point x="618" y="851" type="curve"/>
      <point x="607" y="860"/>
      <point x="598" y="869"/>
      <point x="588" y="880" type="curve"/>
      <point x="348" y="880" type="line"/>
      <point x="348" y="961" type="line" smooth="yes"/>
      <point x="348" y="1265"/>
      <point x="435" y="1336"/>
      <point x="500" y="1336" type="curve" smooth="yes"/>
      <point x="535" y="1336"/>
      <point x="601" y="1308"/>
      <point x="660" y="1249" type="curve"/>
      <point x="697" y="1267"/>
      <point x="789" y="1342"/>
    </contour>
  </outline>
</glyph>
<glyph name="g" format="2">
  <advance width="1015"/>
  <unicode hex="0067"/>
  <anchor x="502" y="-445" name="H"/>
  <anchor x="502" y="-568" name="L"/>
  <anchor x="1015" y="851" name="R"/>
  <anchor x="502" y="993" name="U"/>
  <outline>
    <contour>
      <point x="996" y="-96" type="curve" smooth="yes"/>
      <point x="996" y="37"/>
      <point x="915" y="100"/>
      <point x="613" y="139" type="curve"/>
      <point x="416" y="165"/>
      <point x="406" y="182"/>
      <point x="406" y="202" type="curve" smooth="yes"/>
      <point x="406" y="214"/>
      <point x="416" y="255"/>
      <point x="520" y="331" type="curve"/>
      <point x="342" y="315" type="line"/>
      <point x="196" y="220"/>
      <point x="137" y="141"/>
      <point x="137" y="110" type="curve" smooth="yes"/>
      <point x="137" y="49"/>
      <point x="286" y="-15"/>
      <point x="534" y="-47" type="curve" smooth="yes"/>
      <point x="727" y="-73"/>
      <point x="759" y="-122"/>
      <point x="759" y="-166" type="curve" smooth="yes"/>
      <point x="759" y="-244"/>
      <point x="699" y="-322"/>
      <point x="555" y="-322" type="curve" smooth="yes"/>
      <point x="383" y="-322"/>
      <point x="257" y="-251"/>
      <point x="257" y="-171" type="curve" smooth="yes"/>
      <point x="257" y="-129"/>
      <point x="267" y="-78"/>
      <point x="435" y="28" type="curve"/>
      <point x="429" y="54"/>
      <point x="316" y="58"/>
      <point x="316" y="58" type="curve"/>
      <point x="69" y="-69"/>
      <point x="11" y="-139"/>
      <point x="11" y="-208" type="curve" smooth="yes"/>
      <point x="11" y="-392"/>
      <point x="284" y="-464"/>
      <point x="485" y="-464" type="curve" smooth="yes"/>
      <point x="734" y="-464"/>
      <point x="996" y="-269"/>
    </contour>
    <contour>
      <point x="1014" y="871" type="curve"/>
      <point x="987" y="908" type="line"/>
      <point x="928" y="886"/>
      <point x="802" y="844"/>
      <point x="679" y="834" type="curve"/>
      <point x="715" y="744" type="line"/>
      <point x="822" y="740"/>
      <point x="892" y="747"/>
      <point x="960" y="759" type="curve"/>
      <point x="981" y="790"/>
      <point x="1008" y="845"/>
    </contour>
    <contour>
      <point x="864" y="606" type="curve" smooth="yes"/>
      <point x="864" y="770"/>
      <point x="713" y="908"/>
      <point x="502" y="908" type="curve" smooth="yes"/>
      <point x="275" y="908"/>
      <point x="78" y="755"/>
      <point x="78" y="569" type="curve" smooth="yes"/>
      <point x="78" y="394"/>
      <point x="246" y="279"/>
      <point x="467" y="279" type="curve" smooth="yes"/>
      <point x="683" y="279"/>
      <point x="864" y="413"/>
    </contour>
    <contour>
      <point x="626" y="568" type="curve" smooth="yes"/>
      <point x="626" y="450"/>
      <point x="569" y="395"/>
      <point x="495" y="395" type="curve" smooth="yes"/>
      <point x="370" y="395"/>
      <point x="314" y="498"/>
      <point x="314" y="623" type="curve" smooth="yes"/>
      <point x="314" y="740"/>
      <point x="384" y="797"/>
      <point x="447" y="797" type="curve" smooth="yes"/>
      <point x="564" y="797"/>
      <point x="626" y="693"/>
    </contour>
  </outline>
</glyph>
<glyph name="h" format="2">
  <advance width="1204"/>
  <unicode hex="0068"/>
  <anchor x="315" y="0" name="H"/>
  <anchor x="614" y="-100" name="L"/>
  <anchor x="614" y="1620" name="U"/>
  <outline>
    <contour>
      <point x="661" y="0" type="line"/>
      <point x="1183" y="0" type="line"/>
      <point x="1183" y="80" type="line"/>
      <point x="1078" y="107"/>
      <point x="1052" y="123"/>
      <point x="1052" y="141" type="curve" smooth="yes"/>
      <point x="1052" y="695" type="line" smooth="yes"/>
      <point x="1052" y="891"/>
      <point x="946" y="960"/>
      <point x="832" y="960" type="curve" smooth="yes"/>
      <point x="728" y="960"/>
      <point x="599" y="919"/>
      <point x="438" y="804" type="curve"/>
      <point x="438" y="1507" type="line"/>
      <point x="391" y="1550" type="line"/>
      <point x="288" y="1511"/>
      <point x="205" y="1491"/>
      <point x="46" y="1470" type="curve"/>
      <point x="46" y="1393" type="line"/>
      <point x="175" y="1378"/>
      <point x="176" y="1372"/>
      <point x="176" y="1261" type="curve" smooth="yes"/>
      <point x="176" y="141" type="line" smooth="yes"/>
      <point x="176" y="119"/>
      <point x="134" y="103"/>
      <point x="46" y="80" type="curve"/>
      <point x="46" y="0" type="line"/>
      <point x="568" y="0" type="line"/>
      <point x="568" y="80" type="line"/>
      <point x="482" y="98"/>
      <point x="438" y="121"/>
      <point x="438" y="141" type="curve" smooth="yes"/>
      <point x="438" y="660" type="line"/>
      <point x="540" y="726"/>
      <point x="608" y="765"/>
      <point x="682" y="765" type="curve" smooth="yes"/>
      <point x="761" y="765"/>
      <point x="792" y="721"/>
      <point x="792" y="559" type="curve" smooth="yes"/>
      <point x="792" y="141" type="line" smooth="yes"/>
      <point x="792" y="123"/>
      <point x="757" y="105"/>
      <point x="661" y="80" type="curve"/>
    </contour>
  </outline>
</glyph>
<glyph name="i" format="2">
  <advance width="629"/>
  <unicode hex="0069"/>
  <anchor x="322" y="0" name="H"/>
  <anchor x="322" y="-100" name="L"/>
  <anchor x="382" y="0" name="O"/>
  <anchor x="629" y="900" name="R"/>
  <anchor x="322" y="1050" name="U"/>
  <outline>
    <contour>
      <point x="492" y="1261" type="curve" smooth="yes"/>
      <point x="492" y="1342"/>
      <point x="418" y="1374"/>
      <point x="342" y="1374" type="curve" smooth="yes"/>
      <point x="242" y="1374"/>
      <point x="162" y="1314"/>
      <point x="162" y="1220" type="curve" smooth="yes"/>
      <point x="162" y="1140"/>
      <point x="234" y="1106"/>
      <point x="312" y="1106" type="curve" smooth="yes"/>
      <point x="415" y="1106"/>
      <point x="492" y="1168"/>
    </contour>
    <contour>
      <point x="61" y="0" type="line"/>
      <point x="583" y="0" type="line"/>
      <point x="583" y="80" type="line"/>
      <point x="486" y="98"/>
      <point x="452" y="125"/>
      <point x="452" y="141" type="curve" smooth="yes"/>
      <point x="452" y="960" type="line"/>
      <point x="382" y="960" type="line"/>
      <point x="286" y="927"/>
      <point x="182" y="905"/>
      <point x="61" y="889" type="curve"/>
      <point x="61" y="812" type="line"/>
      <point x="190" y="800"/>
      <point x="192" y="779"/>
      <point x="192" y="642" type="curve" smooth="yes"/>
      <point x="192" y="141" type="line" smooth="yes"/>
      <point x="192" y="123"/>
      <point x="151" y="98"/>
      <point x="61" y="80" type="curve"/>
    </contour>
  </outline>
</glyph>
<glyph name="j" format="2">
  <advance width="571"/>
  <unicode hex="006A"/>
  <anchor x="300" y="-568" name="L"/>
  <anchor x="300" y="993" name="U"/>
  <outline>
    <contour>
      <point x="464" y="1193" type="curve" smooth="yes"/>
      <point x="464" y="1270"/>
      <point x="394" y="1300"/>
      <point x="324" y="1300" type="curve" smooth="yes"/>
      <point x="229" y="1300"/>
      <point x="153" y="1243"/>
      <point x="153" y="1154" type="curve" smooth="yes"/>
      <point x="153" y="1078"/>
      <point x="221" y="1046"/>
      <point x="295" y="1046" type="curve" smooth="yes"/>
      <point x="393" y="1046"/>
      <point x="464" y="1105"/>
    </contour>
    <contour>
      <point x="424" y="102" type="curve" smooth="yes"/>
      <point x="424" y="908" type="line"/>
      <point x="354" y="908" type="line"/>
      <point x="248" y="875"/>
      <point x="193" y="860"/>
      <point x="53" y="841" type="curve"/>
      <point x="53" y="768" type="line"/>
      <point x="176" y="755"/>
      <point x="176" y="737"/>
      <point x="176" y="607" type="curve" smooth="yes"/>
      <point x="176" y="41" type="line" smooth="yes"/>
      <point x="176" y="-238"/>
      <point x="124" y="-293"/>
      <point x="61" y="-293" type="curve" smooth="yes"/>
      <point x="13" y="-293"/>
      <point x="-73" y="-259"/>
      <point x="-114" y="-206" type="curve"/>
      <point x="-151" y="-223"/>
      <point x="-287" y="-333"/>
      <point x="-287" y="-373" type="curve" smooth="yes"/>
      <point x="-287" y="-402"/>
      <point x="-155" y="-464"/>
      <point x="-51" y="-464" type="curve" smooth="yes"/>
      <point x="24" y="-464"/>
      <point x="131" y="-413"/>
      <point x="200" y="-361" type="curve" smooth="yes"/>
      <point x="301" y="-284"/>
      <point x="424" y="-188"/>
    </contour>
  </outline>
</glyph>
<glyph name="k" format="2">
  <advance width="1152"/>
  <unicode hex="006B"/>
  <anchor x="297" y="0" name="H"/>
  <anchor x="602" y="-100" name="L"/>
  <anchor x="1152" y="900" name="R"/>
  <anchor x="602" y="1620" name="U"/>
  <outline>
    <contour>
      <point x="1126" y="850" type="curve"/>
      <point x="1126" y="930" type="line"/>
      <point x="664" y="930" type="line"/>
      <point x="664" y="850" type="line"/>
      <point x="734" y="850"/>
      <point x="775" y="841"/>
      <point x="688" y="762" type="curve" smooth="yes"/>
      <point x="426" y="526" type="line"/>
      <point x="568" y="496" type="line"/>
      <point x="947" y="779" type="line" smooth="yes"/>
      <point x="1005" y="822"/>
      <point x="1067" y="844"/>
    </contour>
    <contour>
      <point x="44" y="0" type="line"/>
      <point x="546" y="0" type="line"/>
      <point x="546" y="80" type="line"/>
      <point x="447" y="111"/>
      <point x="436" y="121"/>
      <point x="436" y="141" type="curve" smooth="yes"/>
      <point x="436" y="1507" type="line"/>
      <point x="389" y="1550" type="line"/>
      <point x="295" y="1509"/>
      <point x="182" y="1489"/>
      <point x="44" y="1470" type="curve"/>
      <point x="44" y="1393" type="line"/>
      <point x="159" y="1380"/>
      <point x="175" y="1378"/>
      <point x="175" y="1259" type="curve" smooth="yes"/>
      <point x="175" y="141" type="line" smooth="yes"/>
      <point x="175" y="117"/>
      <point x="132" y="103"/>
      <point x="44" y="80" type="curve"/>
    </contour>
    <contour>
      <point x="1161" y="36" type="curve"/>
      <point x="1155" y="116" type="line"/>
      <point x="1077" y="110"/>
      <point x="1048" y="114"/>
      <point x="1010" y="157" type="curve" smooth="yes"/>
      <point x="615" y="602" type="line"/>
      <point x="428" y="526" type="line"/>
      <point x="788" y="43" type="line" smooth="yes"/>
      <point x="817" y="4"/>
      <point x="856" y="-10"/>
      <point x="912" y="-10" type="curve" smooth="yes"/>
      <point x="940" y="-10"/>
      <point x="1083" y="18"/>
    </contour>
  </outline>
</glyph>
<glyph name="l" format="2">
  <advance width="595"/>
  <unicode hex="006C"/>
  <anchor x="305" y="0" name="H"/>
  <anchor x="305" y="-95" name="L"/>
  <anchor x="576" y="851" name="R"/>
  <anchor x="305" y="1599" name="U"/>
  <outline>
    <contour>
      <point x="48" y="0" type="line"/>
      <point x="561" y="0" type="line"/>
      <point x="561" y="76" type="line"/>
      <point x="458" y="93"/>
      <point x="428" y="114"/>
      <point x="428" y="133" type="curve" smooth="yes"/>
      <point x="428" y="1426" type="line"/>
      <point x="385" y="1466" type="line"/>
      <point x="282" y="1426"/>
      <point x="192" y="1409"/>
      <point x="58" y="1391" type="curve"/>
      <point x="58" y="1318" type="line"/>
      <point x="164" y="1305"/>
      <point x="182" y="1303"/>
      <point x="182" y="1191" type="curve" smooth="yes"/>
      <point x="182" y="133" type="line" smooth="yes"/>
      <point x="182" y="113"/>
      <point x="157" y="95"/>
      <point x="48" y="76" type="curve"/>
    </contour>
  </outline>
</glyph>
<glyph name="m" format="2">
  <advance width="1644"/>
  <unicode hex="006D"/>
  <anchor x="1368" y="0" name="H"/>
  <anchor x="834" y="-95" name="L"/>
  <anchor x="834" y="993" name="U"/>
  <outline>
    <contour>
      <point x="1139" y="0" type="line"/>
      <point x="1627" y="0" type="line"/>
      <point x="1627" y="79" type="line"/>
      <point x="1528" y="104"/>
      <point x="1495" y="119"/>
      <point x="1495" y="136" type="curve" smooth="yes"/>
      <point x="1495" y="654" type="line" smooth="yes"/>
      <point x="1495" y="843"/>
      <point x="1387" y="908"/>
      <point x="1268" y="908" type="curve" smooth="yes"/>
      <point x="1176" y="908"/>
      <point x="1089" y="890"/>
      <point x="937" y="780" type="curve"/>
      <point x="933" y="790" type="line" smooth="yes"/>
      <point x="915" y="842"/>
      <point x="857" y="908"/>
      <point x="738" y="908" type="curve" smooth="yes"/>
      <point x="648" y="908"/>
      <point x="562" y="892"/>
      <point x="413" y="781" type="curve"/>
      <point x="403" y="866" type="line"/>
      <point x="361" y="908" type="line"/>
      <point x="265" y="875"/>
      <point x="184" y="857"/>
      <point x="42" y="842" type="curve"/>
      <point x="42" y="766" type="line"/>
      <point x="163" y="752"/>
      <point x="164" y="745"/>
      <point x="164" y="644" type="curve" smooth="yes"/>
      <point x="164" y="136" type="line" smooth="yes"/>
      <point x="164" y="115"/>
      <point x="125" y="100"/>
      <point x="42" y="79" type="curve"/>
      <point x="42" y="0" type="line"/>
      <point x="529" y="0" type="line"/>
      <point x="529" y="79" type="line"/>
      <point x="449" y="96"/>
      <point x="417" y="117"/>
      <point x="417" y="136" type="curve" smooth="yes"/>
      <point x="417" y="656" type="line"/>
      <point x="504" y="710"/>
      <point x="569" y="728"/>
      <point x="616" y="728" type="curve" smooth="yes"/>
      <point x="683" y="728"/>
      <point x="703" y="716"/>
      <point x="703" y="561" type="curve" smooth="yes"/>
      <point x="703" y="136" type="line" smooth="yes"/>
      <point x="703" y="119"/>
      <point x="691" y="102"/>
      <point x="601" y="79" type="curve"/>
      <point x="601" y="0" type="line"/>
      <point x="1069" y="0" type="line"/>
      <point x="1069" y="79" type="line"/>
      <point x="971" y="104"/>
      <point x="956" y="119"/>
      <point x="956" y="136" type="curve" smooth="yes"/>
      <point x="956" y="656" type="line"/>
      <point x="1032" y="709"/>
      <point x="1100" y="728"/>
      <point x="1145" y="728" type="curve" smooth="yes"/>
      <point x="1211" y="728"/>
      <point x="1242" y="716"/>
      <point x="1242" y="561" type="curve" smooth="yes"/>
      <point x="1242" y="136" type="line" smooth="yes"/>
      <point x="1242" y="119"/>
      <point x="1229" y="102"/>
      <point x="1139" y="79" type="curve"/>
    </contour>
  </outline>
</glyph>
<glyph name="n" format="2">
  <advance width="1204"/>
  <unicode hex="006E"/>
  <anchor x="922" y="0" name="H"/>
  <anchor x="614" y="-100" name="L"/>
  <anchor x="614" y="1050" name="U"/>
  <outline>
    <contour>
      <point x="661" y="0" type="line"/>
      <point x="1183" y="0" type="line"/>
      <point x="1183" y="80" type="line"/>
      <point x="1078" y="107"/>
      <point x="1052" y="123"/>
      <point x="1052" y="141" type="curve" smooth="yes"/>
      <point x="1052" y="695" type="line" smooth="yes"/>
      <point x="1052" y="891"/>
      <point x="946" y="960"/>
      <point x="832" y="960" type="curve" smooth="yes"/>
      <point x="728" y="960"/>
      <point x="597" y="919"/>
      <point x="434" y="796" type="curve"/>
      <point x="422" y="916" type="line"/>
      <point x="378" y="960" type="line"/>
      <point x="276" y="923"/>
      <point x="182" y="903"/>
      <point x="46" y="889" type="curve"/>
      <point x="46" y="812" type="line"/>
      <point x="175" y="797"/>
      <point x="176" y="787"/>
      <point x="176" y="683" type="curve" smooth="yes"/>
      <point x="176" y="141" type="line" smooth="yes"/>
      <point x="176" y="119"/>
      <point x="134" y="103"/>
      <point x="46" y="80" type="curve"/>
      <point x="46" y="0" type="line"/>
      <point x="568" y="0" type="line"/>
      <point x="568" y="80" type="line"/>
      <point x="482" y="98"/>
      <point x="438" y="121"/>
      <point x="438" y="141" type="curve" smooth="yes"/>
      <point x="438" y="660" type="line"/>
      <point x="566" y="747"/>
      <point x="632" y="765"/>
      <point x="691" y="765" type="curve" smooth="yes"/>
      <point x="767" y="765"/>
      <point x="792" y="721"/>
      <point x="792" y="578" type="curve" smooth="yes"/>
      <point x="792" y="141" type="line" smooth="yes"/>
      <point x="792" y="123"/>
      <point x="757" y="105"/>
      <point x="661" y="80" type="curve"/>
    </contour>
  </outline>
</glyph>
<glyph name="o" format="2">
  <advance width="1027"/>
  <unicode hex="006F"/>
  <anchor x="534" y="0" name="H"/>
  <anchor x="534" y="-95" name="L"/>
  <anchor x="575" y="0" name="O"/>
  <anchor x="1028" y="851" name="R"/>
  <anchor x="534" y="993" name="U"/>
  <outline>
    <contour>
      <point x="969" y="459" type="curve" smooth="yes"/>
      <point x="969" y="717"/>
      <point x="797" y="908"/>
      <point x="533" y="908" type="curve" smooth="yes"/>
      <point x="252" y="908"/>
      <point x="59" y="671"/>
      <point x="59" y="420" type="curve" smooth="yes"/>
      <point x="59" y="163"/>
      <point x="231" y="-28"/>
      <point x="496" y="-28" type="curve" smooth="yes"/>
      <point x="751" y="-28"/>
      <point x="969" y="207"/>
    </contour>
    <contour>
      <point x="709" y="412" type="curve" smooth="yes"/>
      <point x="709" y="206"/>
      <point x="666" y="93"/>
      <point x="522" y="93" type="curve" smooth="yes"/>
      <point x="406" y="93"/>
      <point x="319" y="248"/>
      <point x="319" y="447" type="curve" smooth="yes"/>
      <point x="319" y="640"/>
      <point x="357" y="787"/>
      <point x="505" y="787" type="curve" smooth="yes"/>
      <point x="635" y="787"/>
      <point x="709" y="613"/>
    </contour>
  </outline>
</glyph>
<glyph name="p" format="2">
  <advance width="1096"/>
  <unicode hex="0070"/>
  <anchor x="293" y="-455" name="H"/>
  <anchor x="726" y="-95" name="L"/>
  <anchor x="1099" y="851" name="R"/>
  <anchor x="540" y="993" name="U"/>
  <outline>
    <contour>
      <point x="668" y="-28" type="curve" smooth="yes"/>
      <point x="817" y="-28"/>
      <point x="1039" y="219"/>
      <point x="1039" y="474" type="curve" smooth="yes"/>
      <point x="1039" y="777"/>
      <point x="886" y="908"/>
      <point x="714" y="908" type="curve" smooth="yes"/>
      <point x="642" y="908"/>
      <point x="552" y="883"/>
      <point x="409" y="766" type="curve"/>
      <point x="399" y="867" type="line"/>
      <point x="358" y="908" type="line"/>
      <point x="257" y="873"/>
      <point x="201" y="860"/>
      <point x="44" y="841" type="curve"/>
      <point x="44" y="768" type="line"/>
      <point x="164" y="762"/>
      <point x="166" y="741"/>
      <point x="166" y="646" type="curve" smooth="yes"/>
      <point x="166" y="-320" type="line" smooth="yes"/>
      <point x="166" y="-342"/>
      <point x="127" y="-359"/>
      <point x="44" y="-378" type="curve"/>
      <point x="44" y="-454" type="line"/>
      <point x="573" y="-454" type="line"/>
      <point x="573" y="-378" type="line"/>
      <point x="456" y="-360"/>
      <point x="414" y="-340"/>
      <point x="414" y="-320" type="curve" smooth="yes"/>
      <point x="414" y="76" type="line"/>
      <point x="529" y="-2"/>
      <point x="594" y="-28"/>
    </contour>
    <contour>
      <point x="589" y="738" type="curve" smooth="yes"/>
      <point x="694" y="738"/>
      <point x="806" y="650"/>
      <point x="806" y="403" type="curve" smooth="yes"/>
      <point x="806" y="234"/>
      <point x="746" y="138"/>
      <point x="657" y="138" type="curve" smooth="yes"/>
      <point x="598" y="138"/>
      <point x="552" y="143"/>
      <point x="414" y="219" type="curve"/>
      <point x="414" y="656" type="line"/>
      <point x="524" y="731"/>
      <point x="544" y="738"/>
    </contour>
  </outline>
</glyph>
<glyph name="q" format="2">
  <advance width="1076"/>
  <unicode hex="0071"/>
  <anchor x="333" y="-95" name="L"/>
  <anchor x="1078" y="851" name="R"/>
  <anchor x="562" y="993" name="U"/>
  <outline>
    <contour>
      <point x="535" y="-454" type="line"/>
      <point x="1065" y="-454" type="line"/>
      <point x="1065" y="-378" type="line"/>
      <point x="969" y="-360"/>
      <point x="943" y="-340"/>
      <point x="943" y="-320" type="curve" smooth="yes"/>
      <point x="943" y="652" type="line" smooth="yes"/>
      <point x="943" y="766"/>
      <point x="972" y="871"/>
      <point x="972" y="871" type="curve"/>
      <point x="935" y="908" type="line"/>
      <point x="902" y="877"/>
      <point x="737" y="789"/>
      <point x="696" y="776" type="curve"/>
      <point x="696" y="-320" type="line" smooth="yes"/>
      <point x="696" y="-342"/>
      <point x="654" y="-360"/>
      <point x="535" y="-378" type="curve"/>
    </contour>
    <contour>
      <point x="766" y="193" type="curve"/>
      <point x="761" y="202"/>
      <point x="738" y="273"/>
      <point x="723" y="281" type="curve"/>
      <point x="634" y="196"/>
      <point x="577" y="165"/>
      <point x="504" y="165" type="curve" smooth="yes"/>
      <point x="400" y="165"/>
      <point x="305" y="270"/>
      <point x="305" y="484" type="curve" smooth="yes"/>
      <point x="305" y="694"/>
      <point x="386" y="778"/>
      <point x="500" y="778" type="curve" smooth="yes"/>
      <point x="569" y="778"/>
      <point x="664" y="723"/>
      <point x="703" y="643" type="curve"/>
      <point x="744" y="668"/>
      <point x="759" y="719"/>
      <point x="759" y="795" type="curve"/>
      <point x="660" y="893"/>
      <point x="597" y="908"/>
      <point x="521" y="908" type="curve" smooth="yes"/>
      <point x="438" y="908"/>
      <point x="335" y="868"/>
      <point x="264" y="820" type="curve" smooth="yes"/>
      <point x="175" y="760"/>
      <point x="59" y="641"/>
      <point x="59" y="420" type="curve" smooth="yes"/>
      <point x="59" y="139"/>
      <point x="236" y="-28"/>
      <point x="385" y="-28" type="curve" smooth="yes"/>
      <point x="526" y="-28"/>
      <point x="604" y="26"/>
    </contour>
  </outline>
</glyph>
<glyph name="r" format="2">
  <advance width="837"/>
  <unicode hex="0072"/>
  <anchor x="277" y="0" name="H"/>
  <anchor x="277" y="-100" name="L"/>
  <anchor x="464" y="1050" name="U"/>
  <outline>
    <contour>
      <point x="798" y="921" type="curve" smooth="yes"/>
      <point x="750" y="949"/>
      <point x="696" y="960"/>
      <point x="651" y="960" type="curve" smooth="yes"/>
      <point x="536" y="960"/>
      <point x="435" y="854"/>
      <point x="363" y="718" type="curve"/>
      <point x="350" y="923" type="line"/>
      <point x="313" y="960" type="line"/>
      <point x="235" y="923"/>
      <point x="155" y="903"/>
      <point x="53" y="882" type="curve"/>
      <point x="53" y="834" type="line"/>
      <point x="127" y="830"/>
      <point x="150" y="825"/>
      <point x="168" y="807" type="curve" smooth="yes"/>
      <point x="180" y="795"/>
      <point x="191" y="768"/>
      <point x="191" y="680" type="curve" smooth="yes"/>
      <point x="191" y="112" type="line" smooth="yes"/>
      <point x="191" y="90"/>
      <point x="141" y="71"/>
      <point x="53" y="51" type="curve"/>
      <point x="53" y="0" type="line"/>
      <point x="536" y="0" type="line"/>
      <point x="536" y="51" type="line"/>
      <point x="411" y="69"/>
      <point x="365" y="92"/>
      <point x="365" y="112" type="curve" smooth="yes"/>
      <point x="365" y="516" type="line"/>
      <point x="433" y="729"/>
      <point x="530" y="808"/>
      <point x="587" y="808" type="curve" smooth="yes"/>
      <point x="641" y="808"/>
      <point x="684" y="758"/>
      <point x="698" y="650" type="curve"/>
      <point x="749" y="650" type="line"/>
      <point x="782" y="722"/>
      <point x="823" y="906"/>
    </contour>
  </outline>
</glyph>
<glyph name="s" format="2">
  <advance width="873"/>
  <unicode hex="0073"/>
  <anchor x="421" y="0" name="H"/>
  <anchor x="436" y="-100" name="L"/>
  <anchor x="436" y="1050" name="U"/>
  <outline>
    <contour>
      <point x="801" y="283" type="curve" smooth="yes"/>
      <point x="801" y="432"/>
      <point x="672" y="500"/>
      <point x="556" y="559" type="curve" smooth="yes"/>
      <point x="408" y="635"/>
      <point x="326" y="673"/>
      <point x="326" y="759" type="curve" smooth="yes"/>
      <point x="326" y="814"/>
      <point x="369" y="852"/>
      <point x="448" y="852" type="curve" smooth="yes"/>
      <point x="541" y="852"/>
      <point x="604" y="780"/>
      <point x="630" y="658" type="curve"/>
      <point x="706" y="650" type="line"/>
      <point x="741" y="698"/>
      <point x="782" y="870"/>
      <point x="765" y="883" type="curve" smooth="yes"/>
      <point x="702" y="930"/>
      <point x="577" y="960"/>
      <point x="456" y="960" type="curve" smooth="yes"/>
      <point x="268" y="960"/>
      <point x="85" y="857"/>
      <point x="85" y="691" type="curve" smooth="yes"/>
      <point x="85" y="564"/>
      <point x="210" y="488"/>
      <point x="321" y="430" type="curve" smooth="yes"/>
      <point x="443" y="366"/>
      <point x="560" y="306"/>
      <point x="560" y="199" type="curve" smooth="yes"/>
      <point x="560" y="128"/>
      <point x="515" y="98"/>
      <point x="424" y="98" type="curve" smooth="yes"/>
      <point x="313" y="98"/>
      <point x="217" y="188"/>
      <point x="183" y="337" type="curve"/>
      <point x="94" y="348" type="line"/>
      <point x="65" y="242"/>
      <point x="70" y="53"/>
      <point x="87" y="43" type="curve" smooth="yes"/>
      <point x="176" y="-8"/>
      <point x="301" y="-30"/>
      <point x="392" y="-30" type="curve" smooth="yes"/>
      <point x="516" y="-30"/>
      <point x="801" y="0"/>
    </contour>
  </outline>
</glyph>
<glyph name="t" format="2">
  <advance width="728"/>
  <unicode hex="0074"/>
  <anchor x="356" y="0" name="H"/>
  <anchor x="356" y="-95" name="L"/>
  <anchor x="534" y="851" name="R"/>
  <anchor x="356" y="1249" name="U"/>
  <outline>
    <contour>
      <point x="710" y="154" type="curve"/>
      <point x="664" y="229" type="line"/>
      <point x="557" y="170"/>
      <point x="510" y="156"/>
      <point x="465" y="156" type="curve" smooth="yes"/>
      <point x="425" y="156"/>
      <point x="390" y="201"/>
      <point x="390" y="325" type="curve" smooth="yes"/>
      <point x="390" y="755" type="line"/>
      <point x="457" y="755" type="line" smooth="yes"/>
      <point x="517" y="755"/>
      <point x="584" y="737"/>
      <point x="614" y="722" type="curve"/>
      <point x="639" y="742"/>
      <point x="686" y="800"/>
      <point x="710" y="844" type="curve"/>
      <point x="674" y="880" type="line"/>
      <point x="390" y="880" type="line"/>
      <point x="390" y="1187" type="line"/>
      <point x="352" y="1219" type="line"/>
      <point x="144" y="1069" type="line"/>
      <point x="144" y="880" type="line"/>
      <point x="76" y="880" type="line"/>
      <point x="2" y="790" type="line"/>
      <point x="30" y="755" type="line"/>
      <point x="144" y="755" type="line"/>
      <point x="144" y="236" type="line" smooth="yes"/>
      <point x="144" y="60"/>
      <point x="237" y="-28"/>
      <point x="351" y="-28" type="curve" smooth="yes"/>
      <point x="417" y="-28"/>
      <point x="534" y="27"/>
    </contour>
  </outline>
</glyph>
<glyph name="u" format="2">
  <advance width="1168"/>
  <unicode hex="0075"/>
  <anchor x="533" y="0" name="H"/>
  <anchor x="585" y="-100" name="L"/>
  <anchor x="884" y="0" name="O"/>
  <anchor x="1261" y="900" name="R"/>
  <anchor x="585" y="1050" name="U"/>
  <outline>
    <contour>
      <point x="1162" y="119" type="curve"/>
      <point x="1133" y="201" type="line"/>
      <point x="1065" y="172"/>
      <point x="1046" y="166"/>
      <point x="1030" y="178" type="curve" smooth="yes"/>
      <point x="1013" y="192"/>
      <point x="1008" y="209"/>
      <point x="1008" y="291" type="curve" smooth="yes"/>
      <point x="1008" y="912" type="line"/>
      <point x="968" y="960" type="line"/>
      <point x="867" y="936"/>
      <point x="758" y="915"/>
      <point x="616" y="903" type="curve"/>
      <point x="616" y="826" type="line"/>
      <point x="739" y="820"/>
      <point x="746" y="803"/>
      <point x="746" y="683" type="curve" smooth="yes"/>
      <point x="746" y="262" type="line"/>
      <point x="639" y="174"/>
      <point x="568" y="155"/>
      <point x="519" y="155" type="curve" smooth="yes"/>
      <point x="451" y="155"/>
      <point x="412" y="184"/>
      <point x="412" y="343" type="curve" smooth="yes"/>
      <point x="412" y="912" type="line"/>
      <point x="375" y="960" type="line"/>
      <point x="260" y="925"/>
      <point x="174" y="915"/>
      <point x="32" y="903" type="curve"/>
      <point x="32" y="826" type="line"/>
      <point x="150" y="814"/>
      <point x="152" y="810"/>
      <point x="152" y="683" type="curve" smooth="yes"/>
      <point x="152" y="279" type="line" smooth="yes"/>
      <point x="152" y="29"/>
      <point x="284" y="-30"/>
      <point x="408" y="-30" type="curve" smooth="yes"/>
      <point x="493" y="-30"/>
      <point x="580" y="-9"/>
      <point x="746" y="129" type="curve"/>
      <point x="764" y="-8"/>
      <point x="812" y="-30"/>
      <point x="859" y="-30" type="curve" smooth="yes"/>
      <point x="892" y="-30"/>
      <point x="1064" y="55"/>
    </contour>
  </outline>
</glyph>
<glyph name="v" format="2">
  <advance width="983"/>
  <unicode hex="0076"/>
  <anchor x="482" y="0" name="H"/>
  <anchor x="502" y="-95" name="L"/>
  <anchor x="447" y="0" name="O"/>
  <anchor x="522" y="993" name="U"/>
  <outline>
    <contour>
      <point x="974" y="801" type="curve"/>
      <point x="974" y="880" type="line"/>
      <point x="671" y="880" type="line"/>
      <point x="671" y="801" type="line"/>
      <point x="753" y="787"/>
      <point x="756" y="775"/>
      <point x="740" y="737" type="curve" smooth="yes"/>
      <point x="559" y="305" type="line"/>
      <point x="368" y="737" type="line" smooth="yes"/>
      <point x="350" y="777"/>
      <point x="359" y="789"/>
      <point x="455" y="801" type="curve"/>
      <point x="455" y="880" type="line"/>
      <point x="9" y="880" type="line"/>
      <point x="9" y="801" type="line"/>
      <point x="71" y="787"/>
      <point x="89" y="771"/>
      <point x="104" y="737" type="curve" smooth="yes"/>
      <point x="441" y="-28" type="line"/>
      <point x="512" y="-11"/>
      <point x="592" y="28"/>
      <point x="615" y="84" type="curve" smooth="yes"/>
      <point x="880" y="737" type="line" smooth="yes"/>
      <point x="895" y="773"/>
      <point x="900" y="783"/>
    </contour>
  </outline>
</glyph>
<glyph name="w" format="2">
  <advance width="1474"/>
  <unicode hex="0077"/>
  <anchor x="744" y="-100" name="L"/>
  <anchor x="764" y="1050" name="U"/>
  <outline>
    <contour>
      <point x="1462" y="850" type="curve"/>
      <point x="1462" y="930" type="line"/>
      <point x="1137" y="930" type="line"/>
      <point x="1137" y="850" type="line"/>
      <point x="1229" y="835"/>
      <point x="1227" y="818"/>
      <point x="1217" y="788" type="curve" smooth="yes"/>
      <point x="1080" y="354" type="line"/>
      <point x="830" y="930" type="line"/>
      <point x="814" y="930"/>
      <point x="758" y="930"/>
      <point x="758" y="930" type="curve"/>
      <point x="704" y="604" type="line"/>
      <point x="995" y="-30" type="line"/>
      <point x="1029" y="-22"/>
      <point x="1124" y="0"/>
      <point x="1141" y="59" type="curve" smooth="yes"/>
      <point x="1362" y="788" type="line" smooth="yes"/>
      <point x="1372" y="819"/>
      <point x="1389" y="831"/>
    </contour>
    <contour>
      <point x="533" y="59" type="curve" smooth="yes"/>
      <point x="828" y="751" type="line"/>
      <point x="826" y="930" type="line"/>
      <point x="826" y="930"/>
      <point x="770" y="930"/>
      <point x="752" y="930" type="curve"/>
      <point x="514" y="354" type="line"/>
      <point x="374" y="788" type="line" smooth="yes"/>
      <point x="364" y="813"/>
      <point x="368" y="837"/>
      <point x="480" y="850" type="curve"/>
      <point x="480" y="930" type="line"/>
      <point x="11" y="930" type="line"/>
      <point x="11" y="850" type="line"/>
      <point x="77" y="835"/>
      <point x="112" y="812"/>
      <point x="120" y="788" type="curve"/>
      <point x="391" y="-30" type="line"/>
      <point x="426" y="-22"/>
      <point x="513" y="-2"/>
    </contour>
  </outline>
</glyph>
<glyph name="x" format="2">
  <advance width="1076"/>
  <unicode hex="0078"/>
  <anchor x="833" y="0" name="H"/>
  <anchor x="536" y="-100" name="L"/>
  <anchor x="536" y="1050" name="U"/>
  <outline>
    <contour>
      <point x="1032" y="850" type="curve"/>
      <point x="1032" y="930" type="line"/>
      <point x="651" y="930" type="line"/>
      <point x="651" y="850" type="line"/>
      <point x="733" y="842"/>
      <point x="747" y="830"/>
      <point x="697" y="767" type="curve" smooth="yes"/>
      <point x="491" y="505" type="line"/>
      <point x="590" y="428" type="line"/>
      <point x="854" y="765" type="line" smooth="yes"/>
      <point x="892" y="813"/>
      <point x="924" y="842"/>
    </contour>
    <contour>
      <point x="549" y="0" type="line"/>
      <point x="1062" y="0" type="line"/>
      <point x="1062" y="80" type="line"/>
      <point x="974" y="92"/>
      <point x="940" y="129"/>
      <point x="912" y="169" type="curve"/>
      <point x="484" y="767" type="line" smooth="yes"/>
      <point x="438" y="831"/>
      <point x="452" y="842"/>
      <point x="534" y="850" type="curve"/>
      <point x="534" y="930" type="line"/>
      <point x="22" y="930" type="line"/>
      <point x="22" y="850" type="line"/>
      <point x="120" y="842"/>
      <point x="148" y="813"/>
      <point x="182" y="765" type="curve" smooth="yes"/>
      <point x="614" y="163" type="line" smooth="yes"/>
      <point x="666" y="91"/>
      <point x="615" y="86"/>
      <point x="549" y="80" type="curve"/>
    </contour>
    <contour>
      <point x="329" y="163" type="curve" smooth="yes"/>
      <point x="546" y="437" type="line"/>
      <point x="449" y="517" type="line"/>
      <point x="174" y="169" type="line" smooth="yes"/>
      <point x="143" y="129"/>
      <point x="108" y="96"/>
      <point x="11" y="80" type="curve"/>
      <point x="11" y="0" type="line"/>
      <point x="399" y="0" type="line"/>
      <point x="399" y="80" type="line"/>
      <point x="336" y="86"/>
      <point x="274" y="94"/>
    </contour>
  </outline>
</glyph>
<glyph name="y" format="2">
  <advance width="1018"/>
  <unicode hex="0079"/>
  <anchor x="782" y="-100" name="L"/>
  <anchor x="1045" y="900" name="R"/>
  <anchor x="534" y="1050" name="U"/>
  <outline>
    <contour>
      <point x="999" y="879" type="curve"/>
      <point x="999" y="930" type="line"/>
      <point x="667" y="930" type="line"/>
      <point x="667" y="879" type="line"/>
      <point x="762" y="864"/>
      <point x="787" y="853"/>
      <point x="772" y="811" type="curve" smooth="yes"/>
      <point x="550" y="210" type="line"/>
      <point x="315" y="811" type="line" smooth="yes"/>
      <point x="298" y="855"/>
      <point x="321" y="866"/>
      <point x="422" y="879" type="curve"/>
      <point x="422" y="930" type="line"/>
      <point x="18" y="930" type="line"/>
      <point x="18" y="879" type="line"/>
      <point x="84" y="864"/>
      <point x="115" y="848"/>
      <point x="129" y="811" type="curve" smooth="yes"/>
      <point x="459" y="-23" type="line"/>
      <point x="430" y="-92" type="line" smooth="yes"/>
      <point x="382" y="-207"/>
      <point x="305" y="-299"/>
      <point x="256" y="-316" type="curve" smooth="yes"/>
      <point x="206" y="-333"/>
      <point x="138" y="-333"/>
      <point x="74" y="-294" type="curve"/>
      <point x="31" y="-320"/>
      <point x="-51" y="-423"/>
      <point x="-51" y="-441" type="curve" smooth="yes"/>
      <point x="-51" y="-466"/>
      <point x="29" y="-498"/>
      <point x="131" y="-498" type="curve" smooth="yes"/>
      <point x="274" y="-498"/>
      <point x="444" y="-376"/>
      <point x="555" y="-80" type="curve" smooth="yes"/>
      <point x="889" y="812" type="line" smooth="yes"/>
      <point x="903" y="851"/>
      <point x="919" y="860"/>
    </contour>
  </outline>
</glyph>
<glyph name="z" format="2">
  <advance width="890"/>
  <unicode hex="007A"/>
  <anchor x="459" y="0" name="H"/>
  <anchor x="459" y="-100" name="L"/>
  <anchor x="487" y="1050" name="U"/>
  <outline>
    <contour>
      <point x="843" y="270" type="curve"/>
      <point x="790" y="282" type="line"/>
      <point x="758" y="155"/>
      <point x="733" y="98"/>
      <point x="696" y="98" type="curve" smooth="yes"/>
      <point x="295" y="98" type="line"/>
      <point x="845" y="887" type="line"/>
      <point x="823" y="930" type="line"/>
      <point x="313" y="930" type="line" smooth="yes"/>
      <point x="227" y="930"/>
      <point x="195" y="930"/>
      <point x="137" y="946" type="curve"/>
      <point x="117" y="680" type="line"/>
      <point x="172" y="666" type="line"/>
      <point x="201" y="795"/>
      <point x="250" y="832"/>
      <point x="297" y="832" type="curve" smooth="yes"/>
      <point x="620" y="832" type="line"/>
      <point x="72" y="45" type="line"/>
      <point x="98" y="0" type="line"/>
      <point x="831" y="0" type="line"/>
      <point x="839" y="47"/>
      <point x="843" y="186"/>
    </contour>
  </outline>
</glyph>
<glyph name="braceleft" format="2">
  <advance width="679"/>
  <unicode hex="007B"/>
  <outline>
    <contour>
      <point x="610" y="1413" type="line"/>
      <point x="389" y="1327"/>
      <point x="294" y="1207"/>
      <point x="294" y="1054" type="curve" smooth="yes"/>
      <point x="294" y="1005"/>
      <point x="300" y="956"/>
      <point x="312" y="907" type="curve" smooth="yes"/>
      <point x="324" y="858"/>
      <point x="330" y="809"/>
      <point x="330" y="762" type="curve" smooth="yes"/>
      <point x="330" y="663"/>
      <point x="250" y="615"/>
      <point x="90" y="579" type="curve"/>
      <point x="115" y="482" type="line"/>
      <point x="134" y="485"/>
      <point x="173" y="486"/>
      <point x="192" y="486" type="curve" smooth="yes"/>
      <point x="284" y="486"/>
      <point x="330" y="438"/>
      <point x="330" y="372" type="curve" smooth="yes"/>
      <point x="330" y="323"/>
      <point x="324" y="271"/>
      <point x="312" y="215" type="curve" smooth="yes"/>
      <point x="300" y="160"/>
      <point x="294" y="109"/>
      <point x="294" y="62" type="curve" smooth="yes"/>
      <point x="294" y="-20"/>
      <point x="316" y="-87"/>
      <point x="359" y="-139" type="curve" smooth="yes"/>
      <point x="403" y="-191"/>
      <point x="475" y="-237"/>
      <point x="605" y="-277" type="curve"/>
      <point x="634" y="-184" type="line"/>
      <point x="633" y="-191"/>
      <point x="592" y="-155"/>
      <point x="571" y="-116" type="curve" smooth="yes"/>
      <point x="551" y="-79"/>
      <point x="541" y="-28"/>
      <point x="541" y="38" type="curve" smooth="yes"/>
      <point x="541" y="75"/>
      <point x="547" y="123"/>
      <point x="558" y="180" type="curve" smooth="yes"/>
      <point x="570" y="238"/>
      <point x="576" y="291"/>
      <point x="576" y="339" type="curve" smooth="yes"/>
      <point x="576" y="477"/>
      <point x="523" y="557"/>
      <point x="377" y="578" type="curve"/>
      <point x="516" y="621"/>
      <point x="576" y="713"/>
      <point x="576" y="813" type="curve" smooth="yes"/>
      <point x="576" y="860"/>
      <point x="570" y="908"/>
      <point x="558" y="959" type="curve" smooth="yes"/>
      <point x="547" y="1010"/>
      <point x="541" y="1059"/>
      <point x="541" y="1105" type="curve" smooth="yes"/>
      <point x="541" y="1214"/>
      <point x="595" y="1302"/>
      <point x="644" y="1331" type="curve"/>
    </contour>
  </outline>
</glyph>
<glyph name="bar" format="2">
  <advance width="492"/>
  <unicode hex="007C"/>
  <outline>
    <contour>
      <point x="128" y="1108" type="curve"/>
      <point x="112" y="781"/>
      <point x="126" y="207"/>
      <point x="141" y="-209" type="curve"/>
      <point x="141" y="-209"/>
      <point x="210" y="-248"/>
      <point x="210" y="-248" type="curve"/>
      <point x="239" y="-230"/>
      <point x="381" y="-148"/>
      <point x="393" y="-117" type="curve"/>
      <point x="371" y="189"/>
      <point x="358" y="779"/>
      <point x="381" y="1161" type="curve"/>
      <point x="325" y="1203" type="line"/>
      <point x="284" y="1189"/>
      <point x="161" y="1137"/>
    </contour>
  </outline>
</glyph>
<glyph name="braceright" format="2">
  <advance width="680"/>
  <unicode hex="007D"/>
  <outline>
    <contour>
      <point x="564" y="654" type="line"/>
      <point x="545" y="651"/>
      <point x="506" y="650"/>
      <point x="487" y="650" type="curve" smooth="yes"/>
      <point x="395" y="650"/>
      <point x="349" y="698"/>
      <point x="349" y="764" type="curve" smooth="yes"/>
      <point x="349" y="813"/>
      <point x="355" y="865"/>
      <point x="367" y="921" type="curve" smooth="yes"/>
      <point x="379" y="976"/>
      <point x="385" y="1027"/>
      <point x="385" y="1074" type="curve" smooth="yes"/>
      <point x="385" y="1156"/>
      <point x="363" y="1223"/>
      <point x="320" y="1275" type="curve" smooth="yes"/>
      <point x="276" y="1327"/>
      <point x="204" y="1373"/>
      <point x="74" y="1413" type="curve"/>
      <point x="45" y="1320" type="line"/>
      <point x="46" y="1327"/>
      <point x="87" y="1291"/>
      <point x="108" y="1252" type="curve" smooth="yes"/>
      <point x="128" y="1215"/>
      <point x="138" y="1164"/>
      <point x="138" y="1098" type="curve" smooth="yes"/>
      <point x="138" y="1061"/>
      <point x="132" y="1013"/>
      <point x="121" y="956" type="curve" smooth="yes"/>
      <point x="109" y="898"/>
      <point x="103" y="845"/>
      <point x="103" y="797" type="curve" smooth="yes"/>
      <point x="103" y="659"/>
      <point x="156" y="579"/>
      <point x="302" y="558" type="curve"/>
      <point x="163" y="515"/>
      <point x="103" y="423"/>
      <point x="103" y="323" type="curve" smooth="yes"/>
      <point x="103" y="276"/>
      <point x="109" y="228"/>
      <point x="121" y="177" type="curve" smooth="yes"/>
      <point x="132" y="126"/>
      <point x="138" y="77"/>
      <point x="138" y="31" type="curve" smooth="yes"/>
      <point x="138" y="-78"/>
      <point x="84" y="-166"/>
      <point x="35" y="-195" type="curve"/>
      <point x="69" y="-277" type="line"/>
      <point x="290" y="-191"/>
      <point x="385" y="-71"/>
      <point x="385" y="82" type="curve" smooth="yes"/>
      <point x="385" y="131"/>
      <point x="379" y="180"/>
      <point x="367" y="229" type="curve" smooth="yes"/>
      <point x="355" y="278"/>
      <point x="349" y="327"/>
      <point x="349" y="374" type="curve" smooth="yes"/>
      <point x="349" y="473"/>
      <point x="429" y="521"/>
      <point x="589" y="557" type="curve"/>
    </contour>
  </outline>
</glyph>
<glyph name="asciitilde" format="2">
  <advance width="936"/>
  <unicode hex="007E"/>
  <outline>
    <contour>
      <point x="909" y="742" type="curve"/>
      <point x="840" y="775" type="line"/>
      <point x="789" y="672"/>
      <point x="716" y="623"/>
      <point x="666" y="623" type="curve" smooth="yes"/>
      <point x="566" y="623"/>
      <point x="466" y="775"/>
      <point x="330" y="775" type="curve" smooth="yes"/>
      <point x="192" y="775"/>
      <point x="81" y="589"/>
      <point x="27" y="465" type="curve"/>
      <point x="96" y="430" type="line"/>
      <point x="148" y="535"/>
      <point x="216" y="584"/>
      <point x="268" y="584" type="curve" smooth="yes"/>
      <point x="376" y="584"/>
      <point x="501" y="432"/>
      <point x="606" y="432" type="curve" smooth="yes"/>
      <point x="744" y="432"/>
      <point x="857" y="618"/>
    </contour>
  </outline>
</glyph>
<glyph name="cent" format="2">
  <advance width="927"/>
  <unicode hex="00A2"/>
  <outline>
    <contour>
      <point x="547" y="-4" type="curve"/>
      <point x="547" y="126" type="line"/>
      <point x="632" y="138"/>
      <point x="708" y="182"/>
      <point x="837" y="333" type="curve"/>
      <point x="823" y="348"/>
      <point x="808" y="363"/>
      <point x="794" y="379" type="curve"/>
      <point x="664" y="262"/>
      <point x="617" y="252"/>
      <point x="547" y="251" type="curve"/>
      <point x="547" y="910" type="line"/>
      <point x="650" y="896"/>
      <point x="705" y="830"/>
      <point x="726" y="791" type="curve"/>
      <point x="739" y="787"/>
      <point x="753" y="784"/>
      <point x="766" y="781" type="curve"/>
      <point x="787" y="811"/>
      <point x="825" y="903"/>
      <point x="825" y="938" type="curve" smooth="yes"/>
      <point x="825" y="941"/>
      <point x="825" y="943"/>
      <point x="825" y="945" type="curve"/>
      <point x="783" y="992"/>
      <point x="673" y="1021"/>
      <point x="590" y="1021" type="curve" smooth="yes"/>
      <point x="575" y="1021"/>
      <point x="561" y="1020"/>
      <point x="547" y="1019" type="curve"/>
      <point x="547" y="1155" type="line"/>
      <point x="520" y="1178" type="line"/>
      <point x="481" y="1168"/>
      <point x="490" y="1166"/>
      <point x="455" y="1145" type="curve"/>
      <point x="455" y="1004" type="line"/>
      <point x="242" y="952"/>
      <point x="95" y="778"/>
      <point x="95" y="554" type="curve" smooth="yes"/>
      <point x="95" y="281"/>
      <point x="278" y="130"/>
      <point x="455" y="122" type="curve"/>
      <point x="455" y="-13" type="line"/>
      <point x="479" y="-39" type="line"/>
      <point x="510" y="-29"/>
      <point x="524" y="-24"/>
    </contour>
    <contour>
      <point x="254" y="583" type="curve" smooth="yes"/>
      <point x="254" y="786"/>
      <point x="346" y="886"/>
      <point x="455" y="908" type="curve"/>
      <point x="455" y="264" type="line"/>
      <point x="341" y="299"/>
      <point x="254" y="408"/>
    </contour>
  </outline>
</glyph>
<glyph name="sterling" format="2">
  <advance width="927"/>
  <unicode hex="00A3"/>
  <outline>
    <contour>
      <point x="633" y="573" type="line"/>
      <point x="609" y="596" type="line"/>
      <point x="364" y="596" type="line"/>
      <point x="357" y="662"/>
      <point x="354" y="719"/>
      <point x="354" y="768" type="curve" smooth="yes"/>
      <point x="354" y="1042"/>
      <point x="450" y="1069"/>
      <point x="530" y="1069" type="curve" smooth="yes"/>
      <point x="653" y="1069"/>
      <point x="729" y="995"/>
      <point x="747" y="839" type="curve"/>
      <point x="799" y="839" type="line"/>
      <point x="814" y="888"/>
      <point x="834" y="1038"/>
      <point x="836" y="1102" type="curve"/>
      <point x="718" y="1162"/>
      <point x="656" y="1168"/>
      <point x="590" y="1168" type="curve" smooth="yes"/>
      <point x="316" y="1168"/>
      <point x="179" y="968"/>
      <point x="179" y="644" type="curve" smooth="yes"/>
      <point x="179" y="628"/>
      <point x="179" y="612"/>
      <point x="180" y="596" type="curve"/>
      <point x="79" y="596" type="line"/>
      <point x="72" y="576"/>
      <point x="61" y="548"/>
      <point x="55" y="529" type="curve"/>
      <point x="78" y="503" type="line"/>
      <point x="185" y="503" type="line"/>
      <point x="189" y="436"/>
      <point x="192" y="381"/>
      <point x="192" y="335" type="curve" smooth="yes"/>
      <point x="192" y="139"/>
      <point x="150" y="100"/>
      <point x="57" y="24" type="curve"/>
      <point x="65" y="6"/>
      <point x="73" y="-10"/>
      <point x="82" y="-28" type="curve"/>
      <point x="130" y="3"/>
      <point x="193" y="13"/>
      <point x="262" y="13" type="curve" smooth="yes"/>
      <point x="400" y="13"/>
      <point x="563" y="-28"/>
      <point x="691" y="-28" type="curve" smooth="yes"/>
      <point x="745" y="-28"/>
      <point x="793" y="-21"/>
      <point x="830" y="0" type="curve"/>
      <point x="840" y="37"/>
      <point x="861" y="144"/>
      <point x="871" y="252" type="curve"/>
      <point x="854" y="258"/>
      <point x="839" y="265"/>
      <point x="823" y="271" type="curve"/>
      <point x="763" y="108"/>
      <point x="715" y="104"/>
      <point x="568" y="104" type="curve" smooth="yes"/>
      <point x="496" y="104"/>
      <point x="453" y="110"/>
      <point x="385" y="110" type="curve" smooth="yes"/>
      <point x="353" y="110"/>
      <point x="315" y="109"/>
      <point x="265" y="105" type="curve"/>
      <point x="327" y="191"/>
      <point x="372" y="318"/>
      <point x="372" y="470" type="curve" smooth="yes"/>
      <point x="372" y="481"/>
      <point x="371" y="492"/>
      <point x="371" y="503" type="curve"/>
      <point x="606" y="503" type="line"/>
    </contour>
  </outline>
</glyph>
<glyph name="currency" format="2">
  <advance width="927"/>
  <unicode hex="00A4"/>
  <outline>
    <contour>
      <point x="791" y="272" type="curve"/>
      <point x="791" y="284"/>
      <point x="790" y="295"/>
      <point x="790" y="307" type="curve"/>
      <point x="755" y="343"/>
      <point x="719" y="378"/>
      <point x="683" y="414" type="curve"/>
      <point x="716" y="460"/>
      <point x="732" y="513"/>
      <point x="732" y="568" type="curve" smooth="yes"/>
      <point x="732" y="621"/>
      <point x="715" y="676"/>
      <point x="682" y="723" type="curve"/>
      <point x="718" y="758"/>
      <point x="754" y="794"/>
      <point x="789" y="830" type="curve"/>
      <point x="759" y="896" type="line"/>
      <point x="747" y="896"/>
      <point x="736" y="895"/>
      <point x="725" y="895" type="curve"/>
      <point x="617" y="788" type="line"/>
      <point x="571" y="821"/>
      <point x="518" y="838"/>
      <point x="465" y="838" type="curve" smooth="yes"/>
      <point x="410" y="838"/>
      <point x="357" y="821"/>
      <point x="309" y="788" type="curve"/>
      <point x="202" y="896" type="line"/>
      <point x="180" y="887"/>
      <point x="157" y="875"/>
      <point x="138" y="865" type="curve"/>
      <point x="136" y="832" type="line"/>
      <point x="172" y="795"/>
      <point x="209" y="759"/>
      <point x="245" y="723" type="curve"/>
      <point x="212" y="676"/>
      <point x="197" y="621"/>
      <point x="197" y="568" type="curve" smooth="yes"/>
      <point x="197" y="513"/>
      <point x="212" y="460"/>
      <point x="244" y="415" type="curve"/>
      <point x="135" y="306" type="line"/>
      <point x="144" y="284"/>
      <point x="157" y="261"/>
      <point x="167" y="243" type="curve"/>
      <point x="201" y="241" type="line"/>
      <point x="309" y="349" type="line"/>
      <point x="356" y="317"/>
      <point x="410" y="302"/>
      <point x="465" y="302" type="curve" smooth="yes"/>
      <point x="518" y="302"/>
      <point x="572" y="317"/>
      <point x="617" y="348" type="curve"/>
      <point x="725" y="242" type="line"/>
      <point x="747" y="252"/>
      <point x="769" y="263"/>
    </contour>
    <contour>
      <point x="343" y="690" type="curve" smooth="yes"/>
      <point x="377" y="723"/>
      <point x="421" y="740"/>
      <point x="465" y="740" type="curve" smooth="yes"/>
      <point x="556" y="740"/>
      <point x="635" y="660"/>
      <point x="635" y="569" type="curve" smooth="yes"/>
      <point x="635" y="479"/>
      <point x="558" y="398"/>
      <point x="465" y="398" type="curve" smooth="yes"/>
      <point x="375" y="398"/>
      <point x="293" y="473"/>
      <point x="293" y="569" type="curve" smooth="yes"/>
      <point x="293" y="612"/>
      <point x="310" y="657"/>
    </contour>
  </outline>
</glyph>
<glyph name="yen" format="2">
  <advance width="927"/>
  <unicode hex="00A5"/>
  <outline>
    <contour>
      <point x="703" y="0" type="line"/>
      <point x="703" y="47" type="line"/>
      <point x="584" y="71"/>
      <point x="547" y="99"/>
      <point x="547" y="115" type="curve" smooth="yes"/>
      <point x="547" y="400" type="line"/>
      <point x="800" y="400" type="line"/>
      <point x="826" y="472" type="line"/>
      <point x="803" y="494" type="line"/>
      <point x="547" y="494" type="line"/>
      <point x="547" y="535" type="line"/>
      <point x="815" y="1028" type="line" smooth="yes"/>
      <point x="833" y="1062"/>
      <point x="874" y="1075"/>
      <point x="960" y="1091" type="curve"/>
      <point x="960" y="1139" type="line"/>
      <point x="581" y="1139" type="line"/>
      <point x="581" y="1091" type="line"/>
      <point x="659" y="1081"/>
      <point x="692" y="1068"/>
      <point x="692" y="1046" type="curve" smooth="yes"/>
      <point x="692" y="1041"/>
      <point x="690" y="1035"/>
      <point x="686" y="1028" type="curve" smooth="yes"/>
      <point x="488" y="673" type="line"/>
      <point x="400" y="854"/>
      <point x="326" y="987"/>
      <point x="231" y="1110" type="curve" smooth="yes"/>
      <point x="212" y="1135"/>
      <point x="181" y="1148"/>
      <point x="153" y="1148" type="curve" smooth="yes"/>
      <point x="101" y="1148"/>
      <point x="7" y="1137"/>
      <point x="-66" y="1127" type="curve"/>
      <point x="-63" y="1079" type="line"/>
      <point x="42" y="1079"/>
      <point x="67" y="1057"/>
      <point x="90" y="1028" type="curve" smooth="yes"/>
      <point x="176" y="918"/>
      <point x="288" y="724"/>
      <point x="375" y="537" type="curve"/>
      <point x="375" y="494" type="line"/>
      <point x="116" y="494" type="line"/>
      <point x="109" y="474"/>
      <point x="98" y="443"/>
      <point x="93" y="424" type="curve"/>
      <point x="114" y="400" type="line"/>
      <point x="375" y="400" type="line"/>
      <point x="375" y="115" type="line" smooth="yes"/>
      <point x="375" y="97"/>
      <point x="336" y="71"/>
      <point x="221" y="47" type="curve"/>
      <point x="221" y="0" type="line"/>
    </contour>
  </outline>
</glyph>
<glyph name="brokenbar" format="2">
  <advance width="551"/>
  <unicode hex="00A6"/>
  <outline>
    <contour>
      <point x="410" y="740" type="curve"/>
      <point x="410" y="1547" type="line"/>
      <point x="364" y="1580" type="line"/>
      <point x="325" y="1570"/>
      <point x="199" y="1522"/>
      <point x="162" y="1502" type="curve"/>
      <point x="162" y="703" type="line"/>
      <point x="209" y="670" type="line"/>
      <point x="240" y="679"/>
      <point x="385" y="721"/>
    </contour>
    <contour>
      <point x="410" y="-335" type="curve"/>
      <point x="410" y="461" type="line"/>
      <point x="398" y="470"/>
      <point x="376" y="488"/>
      <point x="364" y="496" type="curve"/>
      <point x="325" y="484"/>
      <point x="199" y="437"/>
      <point x="162" y="416" type="curve"/>
      <point x="162" y="-372" type="line"/>
      <point x="209" y="-406" type="line"/>
      <point x="240" y="-396"/>
      <point x="385" y="-355"/>
    </contour>
  </outline>
</glyph>
<glyph name="section" format="2">
  <advance width="980"/>
  <unicode hex="00A7"/>
  <outline>
    <contour>
      <point x="442" y="-28" type="curve" smooth="yes"/>
      <point x="562" y="-28"/>
      <point x="830" y="0"/>
      <point x="830" y="268" type="curve" smooth="yes"/>
      <point x="830" y="409"/>
      <point x="672" y="482"/>
      <point x="563" y="538" type="curve"/>
      <point x="398" y="631"/>
      <point x="319" y="675"/>
      <point x="319" y="785" type="curve" smooth="yes"/>
      <point x="319" y="854"/>
      <point x="394" y="934"/>
      <point x="461" y="937" type="curve"/>
      <point x="370" y="1033" type="line"/>
      <point x="225" y="1007"/>
      <point x="94" y="869"/>
      <point x="94" y="738" type="curve" smooth="yes"/>
      <point x="94" y="561"/>
      <point x="241" y="460"/>
      <point x="345" y="406" type="curve" smooth="yes"/>
      <point x="459" y="345"/>
      <point x="596" y="288"/>
      <point x="596" y="186" type="curve" smooth="yes"/>
      <point x="596" y="116"/>
      <point x="560" y="93"/>
      <point x="470" y="93" type="curve" smooth="yes"/>
      <point x="369" y="93"/>
      <point x="279" y="180"/>
      <point x="245" y="324" type="curve"/>
      <point x="158" y="334" type="line"/>
      <point x="131" y="230"/>
      <point x="135" y="48"/>
      <point x="152" y="41" type="curve"/>
      <point x="235" y="-6"/>
      <point x="355" y="-28"/>
    </contour>
    <contour>
      <point x="669" y="318" type="line"/>
      <point x="776" y="350"/>
      <point x="886" y="471"/>
      <point x="886" y="637" type="curve" smooth="yes"/>
      <point x="886" y="834"/>
      <point x="737" y="927"/>
      <point x="629" y="983" type="curve" smooth="yes"/>
      <point x="487" y="1058"/>
      <point x="384" y="1092"/>
      <point x="384" y="1173" type="curve" smooth="yes"/>
      <point x="384" y="1225"/>
      <point x="424" y="1258"/>
      <point x="498" y="1258" type="curve" smooth="yes"/>
      <point x="587" y="1258"/>
      <point x="645" y="1188"/>
      <point x="666" y="1070" type="curve"/>
      <point x="740" y="1062" type="line"/>
      <point x="775" y="1111"/>
      <point x="812" y="1277"/>
      <point x="796" y="1289" type="curve" smooth="yes"/>
      <point x="736" y="1334"/>
      <point x="619" y="1362"/>
      <point x="503" y="1362" type="curve" smooth="yes"/>
      <point x="324" y="1362"/>
      <point x="150" y="1264"/>
      <point x="150" y="1107" type="curve" smooth="yes"/>
      <point x="150" y="987"/>
      <point x="306" y="907"/>
      <point x="410" y="850" type="curve" smooth="yes"/>
      <point x="585" y="756"/>
      <point x="662" y="704"/>
      <point x="662" y="574" type="curve" smooth="yes"/>
      <point x="662" y="496"/>
      <point x="598" y="423"/>
      <point x="535" y="416" type="curve"/>
    </contour>
  </outline>
</glyph>
<glyph name="dieresis" format="2">
  <advance width="758"/>
  <unicode hex="00A8"/>
  <outline>
    <contour>
      <point x="290" y="1194" type="curve" smooth="yes"/>
      <point x="290" y="1258"/>
      <point x="259" y="1290"/>
      <point x="201" y="1290" type="curve" smooth="yes"/>
      <point x="137" y="1290"/>
      <point x="83" y="1229"/>
      <point x="83" y="1152" type="curve" smooth="yes"/>
      <point x="83" y="1090"/>
      <point x="110" y="1055"/>
      <point x="170" y="1055" type="curve" smooth="yes"/>
      <point x="237" y="1055"/>
      <point x="290" y="1118"/>
    </contour>
    <contour>
      <point x="673" y="1194" type="curve" smooth="yes"/>
      <point x="673" y="1258"/>
      <point x="643" y="1290"/>
      <point x="585" y="1290" type="curve" smooth="yes"/>
      <point x="521" y="1290"/>
      <point x="466" y="1229"/>
      <point x="466" y="1152" type="curve" smooth="yes"/>
      <point x="466" y="1090"/>
      <point x="494" y="1055"/>
      <point x="554" y="1055" type="curve" smooth="yes"/>
      <point x="621" y="1055"/>
      <point x="673" y="1118"/>
    </contour>
  </outline>
</glyph>
<glyph name="guillemotleft" format="2">
  <advance width="934"/>
  <unicode hex="00AB"/>
  <outline>
    <contour>
      <point x="418" y="378" type="curve"/>
      <point x="775" y="-3" type="line"/>
      <point x="830" y="41" type="line"/>
      <point x="664" y="411" type="line"/>
      <point x="661" y="409"/>
      <point x="830" y="777"/>
      <point x="829" y="777" type="curve"/>
      <point x="775" y="821" type="line"/>
      <point x="419" y="443" type="line" smooth="yes"/>
      <point x="418" y="440"/>
      <point x="418" y="378"/>
    </contour>
    <contour>
      <point x="52" y="378" type="curve"/>
      <point x="410" y="-3" type="line"/>
      <point x="465" y="41" type="line"/>
      <point x="298" y="411" type="line"/>
      <point x="296" y="409"/>
      <point x="465" y="777"/>
      <point x="464" y="777" type="curve"/>
      <point x="410" y="821" type="line"/>
      <point x="54" y="443" type="line" smooth="yes"/>
      <point x="52" y="440"/>
      <point x="52" y="378"/>
    </contour>
  </outline>
</glyph>
<glyph name="logicalnot" format="2">
  <advance width="927"/>
  <unicode hex="00AC"/>
  <outline>
    <contour>
      <point x="857" y="220" type="curve"/>
      <point x="857" y="566" type="line"/>
      <point x="827" y="588" type="line"/>
      <point x="93" y="588" type="line"/>
      <point x="82" y="563"/>
      <point x="67" y="525"/>
      <point x="61" y="499" type="curve"/>
      <point x="86" y="475" type="line"/>
      <point x="743" y="475" type="line"/>
      <point x="743" y="194" type="line"/>
      <point x="768" y="168" type="line"/>
      <point x="799" y="179"/>
      <point x="831" y="201"/>
    </contour>
  </outline>
</glyph>
<glyph name="registered" format="2">
  <advance width="691"/>
  <unicode hex="00AE"/>
  <outline>
    <contour>
      <point x="661" y="1025" type="curve" smooth="yes"/>
      <point x="661" y="1208"/>
      <point x="528" y="1356"/>
      <point x="344" y="1356" type="curve" smooth="yes"/>
      <point x="162" y="1356"/>
      <point x="29" y="1208"/>
      <point x="29" y="1025" type="curve" smooth="yes"/>
      <point x="29" y="843"/>
      <point x="162" y="694"/>
      <point x="344" y="694" type="curve" smooth="yes"/>
      <point x="528" y="694"/>
      <point x="661" y="843"/>
    </contour>
    <contour>
      <point x="603" y="1025" type="curve" smooth="yes"/>
      <point x="603" y="875"/>
      <point x="495" y="754"/>
      <point x="344" y="754" type="curve" smooth="yes"/>
      <point x="196" y="754"/>
      <point x="88" y="875"/>
      <point x="88" y="1025" type="curve" smooth="yes"/>
      <point x="88" y="1175"/>
      <point x="196" y="1297"/>
      <point x="344" y="1297" type="curve" smooth="yes"/>
      <point x="495" y="1297"/>
      <point x="603" y="1175"/>
    </contour>
    <contour>
      <point x="337" y="838" type="line"/>
      <point x="337" y="856" type="line"/>
      <point x="308" y="862"/>
      <point x="297" y="869"/>
      <point x="297" y="874" type="curve" smooth="yes"/>
      <point x="297" y="1014" type="line"/>
      <point x="307" y="1012"/>
      <point x="316" y="1011"/>
      <point x="325" y="1011" type="curve" smooth="yes"/>
      <point x="328" y="1011" type="line"/>
      <point x="424" y="850" type="line" smooth="yes"/>
      <point x="429" y="842"/>
      <point x="442" y="833"/>
      <point x="453" y="833" type="curve" smooth="yes"/>
      <point x="467" y="833"/>
      <point x="500" y="842"/>
      <point x="526" y="850" type="curve"/>
      <point x="524" y="869" type="line"/>
      <point x="520" y="869"/>
      <point x="516" y="868"/>
      <point x="512" y="868" type="curve" smooth="yes"/>
      <point x="493" y="868"/>
      <point x="484" y="873"/>
      <point x="477" y="884" type="curve" smooth="yes"/>
      <point x="381" y="1018" type="line"/>
      <point x="438" y="1033"/>
      <point x="475" y="1073"/>
      <point x="475" y="1131" type="curve" smooth="yes"/>
      <point x="475" y="1182"/>
      <point x="427" y="1221"/>
      <point x="329" y="1221" type="curve" smooth="yes"/>
      <point x="277" y="1221"/>
      <point x="236" y="1214"/>
      <point x="199" y="1205" type="curve"/>
      <point x="201" y="1177" type="line"/>
      <point x="241" y="1182" type="line"/>
      <point x="241" y="874" type="line" smooth="yes"/>
      <point x="241" y="868"/>
      <point x="227" y="862"/>
      <point x="201" y="856" type="curve"/>
      <point x="201" y="838" type="line"/>
    </contour>
    <contour>
      <point x="319" y="1188" type="curve" smooth="yes"/>
      <point x="387" y="1188"/>
      <point x="412" y="1160"/>
      <point x="412" y="1123" type="curve" smooth="yes"/>
      <point x="412" y="1075"/>
      <point x="385" y="1047"/>
      <point x="322" y="1047" type="curve" smooth="yes"/>
      <point x="312" y="1047"/>
      <point x="306" y="1047"/>
      <point x="297" y="1049" type="curve"/>
      <point x="297" y="1187" type="line"/>
      <point x="305" y="1188"/>
      <point x="311" y="1188"/>
    </contour>
  </outline>
</glyph>
<glyph name="macron" format="2">
  <advance width="955"/>
  <unicode hex="00AF"/>
  <outline>
    <contour>
      <point x="818" y="1218" type="curve"/>
      <point x="795" y="1242" type="line"/>
      <point x="179" y="1242" type="line"/>
      <point x="167" y="1217"/>
      <point x="143" y="1164"/>
      <point x="137" y="1136" type="curve"/>
      <point x="160" y="1112" type="line"/>
      <point x="777" y="1112" type="line"/>
      <point x="787" y="1134"/>
      <point x="812" y="1190"/>
    </contour>
  </outline>
</glyph>
<glyph name="degree" format="2">
  <advance width="686"/>
  <unicode hex="00B0"/>
  <outline>
    <contour>
      <point x="587" y="995" type="curve" smooth="yes"/>
      <point x="587" y="1106"/>
      <point x="496" y="1202"/>
      <point x="384" y="1202" type="curve" smooth="yes"/>
      <point x="249" y="1202"/>
      <point x="99" y="1071"/>
      <point x="99" y="890" type="curve" smooth="yes"/>
      <point x="99" y="778"/>
      <point x="185" y="684"/>
      <point x="303" y="684" type="curve" smooth="yes"/>
      <point x="436" y="684"/>
      <point x="587" y="817"/>
    </contour>
    <contour>
      <point x="432" y="941" type="curve" smooth="yes"/>
      <point x="432" y="872"/>
      <point x="383" y="832"/>
      <point x="335" y="832" type="curve" smooth="yes"/>
      <point x="286" y="832"/>
      <point x="256" y="887"/>
      <point x="256" y="944" type="curve" smooth="yes"/>
      <point x="256" y="1010"/>
      <point x="303" y="1053"/>
      <point x="352" y="1053" type="curve" smooth="yes"/>
      <point x="401" y="1053"/>
      <point x="432" y="1001"/>
    </contour>
  </outline>
</glyph>
<glyph name="plusminus" format="2">
  <advance width="756"/>
  <unicode hex="00B1"/>
  <outline>
    <contour>
      <point x="713" y="648" type="curve"/>
      <point x="683" y="678" type="line"/>
      <point x="88" y="678" type="line"/>
      <point x="77" y="655"/>
      <point x="50" y="597"/>
      <point x="44" y="571" type="curve"/>
      <point x="74" y="541" type="line"/>
      <point x="669" y="541" type="line"/>
      <point x="678" y="561"/>
      <point x="706" y="622"/>
    </contour>
    <contour>
      <point x="713" y="199" type="curve"/>
      <point x="683" y="229" type="line"/>
      <point x="88" y="229" type="line"/>
      <point x="77" y="206"/>
      <point x="50" y="148"/>
      <point x="44" y="122" type="curve"/>
      <point x="74" y="92" type="line"/>
      <point x="669" y="92" type="line"/>
      <point x="678" y="112"/>
      <point x="706" y="173"/>
    </contour>
    <contour>
      <point x="448" y="309" type="curve"/>
      <point x="448" y="917" type="line"/>
      <point x="418" y="946" type="line"/>
      <point x="393" y="940"/>
      <point x="335" y="919"/>
      <point x="313" y="912" type="curve"/>
      <point x="313" y="301" type="line"/>
      <point x="344" y="273" type="line"/>
      <point x="369" y="278"/>
      <point x="425" y="297"/>
    </contour>
  </outline>
</glyph>
<glyph name="threesuperior" format="2">
  <advance width="646"/>
  <unicode hex="00B3"/>
  <outline>
    <contour>
      <point x="568" y="803" type="curve" smooth="yes"/>
      <point x="568" y="895"/>
      <point x="494" y="972"/>
      <point x="392" y="983" type="curve"/>
      <point x="477" y="1008"/>
      <point x="529" y="1074"/>
      <point x="529" y="1130" type="curve" smooth="yes"/>
      <point x="529" y="1207"/>
      <point x="468" y="1288"/>
      <point x="326" y="1288" type="curve" smooth="yes"/>
      <point x="182" y="1288"/>
      <point x="61" y="1194"/>
      <point x="61" y="1131" type="curve"/>
      <point x="80" y="1108" type="line"/>
      <point x="121" y="1111"/>
      <point x="170" y="1120"/>
      <point x="201" y="1135" type="curve"/>
      <point x="199" y="1141"/>
      <point x="199" y="1147"/>
      <point x="199" y="1153" type="curve" smooth="yes"/>
      <point x="199" y="1194"/>
      <point x="234" y="1222"/>
      <point x="288" y="1222" type="curve" smooth="yes"/>
      <point x="362" y="1222"/>
      <point x="391" y="1172"/>
      <point x="391" y="1120" type="curve" smooth="yes"/>
      <point x="391" y="1074"/>
      <point x="375" y="1012"/>
      <point x="219" y="975" type="curve"/>
      <point x="229" y="927" type="line"/>
      <point x="256" y="931"/>
      <point x="252" y="931"/>
      <point x="276" y="931" type="curve" smooth="yes"/>
      <point x="345" y="931"/>
      <point x="428" y="897"/>
      <point x="428" y="786" type="curve" smooth="yes"/>
      <point x="428" y="692"/>
      <point x="363" y="643"/>
      <point x="266" y="643" type="curve" smooth="yes"/>
      <point x="200" y="643"/>
      <point x="142" y="659"/>
      <point x="61" y="710" type="curve"/>
      <point x="39" y="663" type="line"/>
      <point x="118" y="598"/>
      <point x="208" y="569"/>
      <point x="285" y="569" type="curve" smooth="yes"/>
      <point x="459" y="569"/>
      <point x="568" y="675"/>
    </contour>
  </outline>
</glyph>
<glyph name="mu" format="2">
  <advance width="1179"/>
  <unicode hex="00B5"/>
  <outline>
    <contour>
      <point x="1178" y="100" type="curve"/>
      <point x="1149" y="182" type="line"/>
      <point x="1105" y="161"/>
      <point x="1081" y="154"/>
      <point x="1052" y="154" type="curve" smooth="yes"/>
      <point x="1024" y="154"/>
      <point x="1013" y="181"/>
      <point x="1013" y="305" type="curve" smooth="yes"/>
      <point x="1013" y="345"/>
      <point x="1013" y="736"/>
      <point x="1013" y="759" type="curve"/>
      <point x="1015" y="842"/>
      <point x="1024" y="878"/>
      <point x="1029" y="912" type="curve"/>
      <point x="992" y="960" type="line"/>
      <point x="912" y="935"/>
      <point x="792" y="912"/>
      <point x="714" y="900" type="curve"/>
      <point x="732" y="875"/>
      <point x="752" y="791"/>
      <point x="752" y="748" type="curve" smooth="yes"/>
      <point x="752" y="716"/>
      <point x="752" y="245"/>
      <point x="752" y="216" type="curve" smooth="yes"/>
      <point x="752" y="87"/>
      <point x="794" y="-31"/>
      <point x="882" y="-31" type="curve" smooth="yes"/>
      <point x="954" y="-31"/>
      <point x="1099" y="41"/>
    </contour>
    <contour>
      <point x="813" y="236" type="curve"/>
      <point x="798" y="372" type="line"/>
      <point x="677" y="202"/>
      <point x="622" y="177"/>
      <point x="569" y="177" type="curve" smooth="yes"/>
      <point x="519" y="177"/>
      <point x="423" y="260"/>
      <point x="423" y="384" type="curve" smooth="yes"/>
      <point x="423" y="398"/>
      <point x="423" y="900"/>
      <point x="423" y="908" type="curve"/>
      <point x="412" y="922"/>
      <point x="377" y="960"/>
      <point x="376" y="960" type="curve"/>
      <point x="269" y="924"/>
      <point x="165" y="903"/>
      <point x="42" y="894" type="curve"/>
      <point x="42" y="817" type="line"/>
      <point x="168" y="804"/>
      <point x="162" y="788"/>
      <point x="162" y="685" type="curve" smooth="yes"/>
      <point x="162" y="673"/>
      <point x="162" y="480"/>
      <point x="162" y="460" type="curve" smooth="yes"/>
      <point x="162" y="210"/>
      <point x="384" y="-31"/>
      <point x="499" y="-31" type="curve" smooth="yes"/>
      <point x="600" y="-31"/>
      <point x="683" y="42"/>
    </contour>
    <contour>
      <point x="299" y="459" type="curve"/>
      <point x="291" y="512"/>
      <point x="162" y="615"/>
      <point x="162" y="615" type="curve"/>
      <point x="162" y="544"/>
      <point x="162" y="-433"/>
      <point x="162" y="-462" type="curve"/>
      <point x="210" y="-500" type="line"/>
      <point x="242" y="-484"/>
      <point x="437" y="-405"/>
      <point x="476" y="-392" type="curve"/>
      <point x="394" y="-308"/>
      <point x="301" y="-152"/>
      <point x="301" y="79" type="curve"/>
      <point x="303" y="235"/>
      <point x="290" y="337"/>
    </contour>
  </outline>
</glyph>
<glyph name="periodcentered" format="2">
  <advance width="399"/>
  <unicode hex="00B7"/>
  <outline>
    <contour>
      <point x="356" y="619" type="curve" smooth="yes"/>
      <point x="356" y="708"/>
      <point x="284" y="744"/>
      <point x="218" y="744" type="curve" smooth="yes"/>
      <point x="126" y="744"/>
      <point x="44" y="688"/>
      <point x="44" y="591" type="curve" smooth="yes"/>
      <point x="44" y="502"/>
      <point x="113" y="466"/>
      <point x="184" y="466" type="curve" smooth="yes"/>
      <point x="278" y="466"/>
      <point x="356" y="520"/>
    </contour>
  </outline>
</glyph>
<glyph name="onesuperior" format="2">
  <advance width="646"/>
  <unicode hex="00B9"/>
  <outline>
    <contour>
      <point x="568" y="587" type="line"/>
      <point x="568" y="630" type="line"/>
      <point x="435" y="644"/>
      <point x="412" y="666"/>
      <point x="412" y="681" type="curve" smooth="yes"/>
      <point x="412" y="1272" type="line"/>
      <point x="387" y="1293" type="line"/>
      <point x="327" y="1266"/>
      <point x="163" y="1214"/>
      <point x="89" y="1197" type="curve"/>
      <point x="104" y="1153" type="line"/>
      <point x="167" y="1165"/>
      <point x="206" y="1169"/>
      <point x="231" y="1169" type="curve" smooth="yes"/>
      <point x="282" y="1169"/>
      <point x="279" y="1149"/>
      <point x="279" y="1106" type="curve" smooth="yes"/>
      <point x="279" y="681" type="line" smooth="yes"/>
      <point x="279" y="665"/>
      <point x="248" y="644"/>
      <point x="110" y="630" type="curve"/>
      <point x="110" y="587" type="line"/>
    </contour>
  </outline>
</glyph>
<glyph name="guillemotright" format="2">
  <advance width="934"/>
  <unicode hex="00BB"/>
  <outline>
    <contour>
      <point x="515" y="376" type="line"/>
      <point x="517" y="440" type="line"/>
      <point x="159" y="821" type="line"/>
      <point x="104" y="777" type="line"/>
      <point x="271" y="407" type="line"/>
      <point x="105" y="41" type="line"/>
      <point x="159" y="-3" type="line"/>
    </contour>
    <contour>
      <point x="880" y="376" type="line"/>
      <point x="882" y="440" type="line"/>
      <point x="525" y="821" type="line"/>
      <point x="470" y="777" type="line"/>
      <point x="636" y="407" type="line"/>
      <point x="471" y="41" type="line"/>
      <point x="525" y="-3" type="line"/>
    </contour>
  </outline>
</glyph>
<glyph name="onequarter" format="2">
  <advance width="1218"/>
  <unicode hex="00BC"/>
  <outline>
    <contour>
      <point x="287" y="3" type="curve"/>
      <point x="1156" y="1142" type="line"/>
      <point x="1133" y="1168" type="line"/>
      <point x="1106" y="1163"/>
      <point x="1027" y="1148"/>
      <point x="1003" y="1138" type="curve"/>
      <point x="129" y="0" type="line"/>
      <point x="153" y="-28" type="line"/>
      <point x="186" y="-20"/>
      <point x="258" y="-11"/>
    </contour>
    <contour>
      <point x="1172" y="204" type="curve"/>
      <point x="1158" y="219" type="line"/>
      <point x="1087" y="219" type="line"/>
      <point x="1087" y="545" type="line"/>
      <point x="1062" y="566" type="line"/>
      <point x="1028" y="555"/>
      <point x="965" y="538"/>
      <point x="930" y="529" type="curve"/>
      <point x="676" y="169" type="line"/>
      <point x="699" y="149" type="line"/>
      <point x="949" y="149" type="line"/>
      <point x="949" y="70" type="line" smooth="yes"/>
      <point x="949" y="60"/>
      <point x="930" y="51"/>
      <point x="836" y="38" type="curve"/>
      <point x="836" y="0" type="line"/>
      <point x="1161" y="0" type="line"/>
      <point x="1161" y="38" type="line"/>
      <point x="1103" y="49"/>
      <point x="1087" y="57"/>
      <point x="1087" y="65" type="curve" smooth="yes"/>
      <point x="1087" y="149" type="line"/>
      <point x="1114" y="149" type="line"/>
      <point x="1130" y="160"/>
      <point x="1157" y="184"/>
    </contour>
    <contour>
      <point x="949" y="436" type="line"/>
      <point x="949" y="219" type="line"/>
      <point x="787" y="219" type="line"/>
    </contour>
    <contour>
      <point x="80" y="603" type="line"/>
      <point x="502" y="603" type="line"/>
      <point x="502" y="645" type="line"/>
      <point x="394" y="657"/>
      <point x="368" y="674"/>
      <point x="368" y="686" type="curve" smooth="yes"/>
      <point x="368" y="1147" type="line"/>
      <point x="344" y="1168" type="line"/>
      <point x="290" y="1149"/>
      <point x="125" y="1101"/>
      <point x="64" y="1091" type="curve"/>
      <point x="80" y="1049" type="line"/>
      <point x="174" y="1066"/>
      <point x="206" y="1063"/>
      <point x="215" y="1056" type="curve" smooth="yes"/>
      <point x="223" y="1047"/>
      <point x="224" y="1035"/>
      <point x="224" y="1011" type="curve" smooth="yes"/>
      <point x="224" y="686" type="line" smooth="yes"/>
      <point x="224" y="673"/>
      <point x="192" y="657"/>
      <point x="80" y="645" type="curve"/>
    </contour>
  </outline>
</glyph>
<glyph name="onehalf" format="2">
  <advance width="1153"/>
  <unicode hex="00BD"/>
  <outline>
    <contour>
      <point x="1044" y="1142" type="curve"/>
      <point x="1020" y="1168" type="line"/>
      <point x="993" y="1163"/>
      <point x="952" y="1148"/>
      <point x="928" y="1138" type="curve"/>
      <point x="176" y="0" type="line"/>
      <point x="200" y="-28" type="line"/>
      <point x="234" y="-20"/>
      <point x="268" y="-11"/>
      <point x="297" y="3" type="curve"/>
      <point x="546" y="383"/>
      <point x="796" y="762"/>
    </contour>
    <contour>
      <point x="458" y="603" type="line"/>
      <point x="458" y="637" type="line"/>
      <point x="351" y="648"/>
      <point x="331" y="665"/>
      <point x="331" y="677" type="curve" smooth="yes"/>
      <point x="331" y="1151" type="line"/>
      <point x="311" y="1168" type="line"/>
      <point x="263" y="1146"/>
      <point x="132" y="1104"/>
      <point x="73" y="1091" type="curve"/>
      <point x="85" y="1057" type="line"/>
      <point x="134" y="1066"/>
      <point x="165" y="1070"/>
      <point x="186" y="1070" type="curve" smooth="yes"/>
      <point x="230" y="1070"/>
      <point x="227" y="1056"/>
      <point x="227" y="1019" type="curve" smooth="yes"/>
      <point x="227" y="677" type="line" smooth="yes"/>
      <point x="227" y="664"/>
      <point x="201" y="648"/>
      <point x="89" y="637" type="curve"/>
      <point x="89" y="603" type="line"/>
    </contour>
    <contour>
      <point x="1080" y="138" type="line"/>
      <point x="1043" y="144" type="line"/>
      <point x="1043" y="144"/>
      <point x="1037" y="67"/>
      <point x="989" y="67" type="curve" smooth="yes"/>
      <point x="781" y="67" type="line"/>
      <point x="1001" y="284"/>
      <point x="1072" y="354"/>
      <point x="1072" y="435" type="curve" smooth="yes"/>
      <point x="1072" y="520"/>
      <point x="1004" y="561"/>
      <point x="907" y="561" type="curve" smooth="yes"/>
      <point x="786" y="561"/>
      <point x="675" y="479"/>
      <point x="675" y="415" type="curve"/>
      <point x="691" y="398" type="line"/>
      <point x="713" y="400"/>
      <point x="784" y="413"/>
      <point x="784" y="425" type="curve" smooth="yes"/>
      <point x="784" y="467"/>
      <point x="817" y="509"/>
      <point x="871" y="509" type="curve" smooth="yes"/>
      <point x="939" y="509"/>
      <point x="965" y="474"/>
      <point x="965" y="419" type="curve" smooth="yes"/>
      <point x="965" y="351"/>
      <point x="913" y="284"/>
      <point x="661" y="33" type="curve"/>
      <point x="676" y="0" type="line"/>
      <point x="1072" y="0" type="line"/>
    </contour>
  </outline>
</glyph>
<glyph name="threequarters" format="2">
  <advance width="1218"/>
  <unicode hex="00BE"/>
  <outline>
    <contour>
      <point x="287" y="3" type="curve"/>
      <point x="1156" y="1142" type="line"/>
      <point x="1133" y="1168" type="line"/>
      <point x="1106" y="1163"/>
      <point x="1027" y="1148"/>
      <point x="1003" y="1138" type="curve"/>
      <point x="129" y="0" type="line"/>
      <point x="153" y="-28" type="line"/>
      <point x="186" y="-20"/>
      <point x="258" y="-11"/>
    </contour>
    <contour>
      <point x="505" y="776" type="curve" smooth="yes"/>
      <point x="505" y="850"/>
      <point x="450" y="912"/>
      <point x="361" y="920" type="curve"/>
      <point x="427" y="937"/>
      <point x="473" y="992"/>
      <point x="473" y="1038" type="curve" smooth="yes"/>
      <point x="473" y="1099"/>
      <point x="423" y="1164"/>
      <point x="285" y="1164" type="curve" smooth="yes"/>
      <point x="146" y="1164"/>
      <point x="56" y="1082"/>
      <point x="56" y="1032" type="curve"/>
      <point x="75" y="1000" type="line"/>
      <point x="118" y="1003"/>
      <point x="177" y="1020"/>
      <point x="208" y="1035" type="curve"/>
      <point x="193" y="1077"/>
      <point x="223" y="1107"/>
      <point x="254" y="1107" type="curve" smooth="yes"/>
      <point x="304" y="1107"/>
      <point x="320" y="1071"/>
      <point x="320" y="1029" type="curve" smooth="yes"/>
      <point x="320" y="992"/>
      <point x="303" y="941"/>
      <point x="184" y="914" type="curve"/>
      <point x="193" y="868" type="line"/>
      <point x="216" y="872"/>
      <point x="220" y="872"/>
      <point x="240" y="872" type="curve" smooth="yes"/>
      <point x="282" y="872"/>
      <point x="350" y="847"/>
      <point x="350" y="765" type="curve" smooth="yes"/>
      <point x="350" y="688"/>
      <point x="297" y="658"/>
      <point x="237" y="658" type="curve" smooth="yes"/>
      <point x="184" y="658"/>
      <point x="130" y="674"/>
      <point x="66" y="714" type="curve"/>
      <point x="41" y="666" type="line"/>
      <point x="106" y="614"/>
      <point x="198" y="589"/>
      <point x="254" y="589" type="curve" smooth="yes"/>
      <point x="400" y="589"/>
      <point x="505" y="674"/>
    </contour>
    <contour>
      <point x="1172" y="204" type="curve"/>
      <point x="1158" y="219" type="line"/>
      <point x="1087" y="219" type="line"/>
      <point x="1087" y="545" type="line"/>
      <point x="1062" y="566" type="line"/>
      <point x="1028" y="555"/>
      <point x="965" y="538"/>
      <point x="930" y="529" type="curve"/>
      <point x="676" y="169" type="line"/>
      <point x="699" y="149" type="line"/>
      <point x="949" y="149" type="line"/>
      <point x="949" y="70" type="line" smooth="yes"/>
      <point x="949" y="60"/>
      <point x="930" y="51"/>
      <point x="836" y="38" type="curve"/>
      <point x="836" y="0" type="line"/>
      <point x="1161" y="0" type="line"/>
      <point x="1161" y="38" type="line"/>
      <point x="1103" y="49"/>
      <point x="1087" y="57"/>
      <point x="1087" y="65" type="curve" smooth="yes"/>
      <point x="1087" y="149" type="line"/>
      <point x="1114" y="149" type="line"/>
      <point x="1130" y="160"/>
      <point x="1157" y="184"/>
    </contour>
    <contour>
      <point x="949" y="436" type="line"/>
      <point x="949" y="219" type="line"/>
      <point x="787" y="219" type="line"/>
    </contour>
  </outline>
</glyph>
<glyph name="questiondown" format="2">
  <advance width="849"/>
  <unicode hex="00BF"/>
  <outline>
    <contour>
      <point x="569" y="797" type="curve" smooth="yes"/>
      <point x="569" y="870"/>
      <point x="531" y="908"/>
      <point x="463" y="908" type="curve" smooth="yes"/>
      <point x="386" y="908"/>
      <point x="323" y="843"/>
      <point x="323" y="753" type="curve" smooth="yes"/>
      <point x="323" y="678"/>
      <point x="362" y="640"/>
      <point x="427" y="640" type="curve" smooth="yes"/>
      <point x="504" y="640"/>
      <point x="569" y="708"/>
    </contour>
    <contour>
      <point x="403" y="496" type="curve"/>
      <point x="397" y="405" type="line" smooth="yes"/>
      <point x="380" y="151"/>
      <point x="70" y="52"/>
      <point x="72" y="-233" type="curve"/>
      <point x="72" y="-407"/>
      <point x="178" y="-529"/>
      <point x="370" y="-529" type="curve" smooth="yes"/>
      <point x="585" y="-529"/>
      <point x="777" y="-396"/>
      <point x="777" y="-219" type="curve" smooth="yes"/>
      <point x="777" y="-209"/>
      <point x="777" y="-194"/>
      <point x="775" y="-184" type="curve"/>
      <point x="748" y="-153" type="line"/>
      <point x="692" y="-158"/>
      <point x="629" y="-172"/>
      <point x="586" y="-195" type="curve"/>
      <point x="594" y="-213"/>
      <point x="599" y="-233"/>
      <point x="599" y="-252" type="curve" smooth="yes"/>
      <point x="599" y="-351"/>
      <point x="525" y="-434"/>
      <point x="441" y="-434" type="curve" smooth="yes"/>
      <point x="321" y="-434"/>
      <point x="252" y="-345"/>
      <point x="252" y="-190" type="curve" smooth="yes"/>
      <point x="252" y="-14"/>
      <point x="510" y="177"/>
      <point x="510" y="388" type="curve" smooth="yes"/>
      <point x="510" y="393"/>
      <point x="510" y="399"/>
      <point x="510" y="405" type="curve" smooth="yes"/>
      <point x="505" y="514" type="line"/>
      <point x="479" y="535" type="line"/>
      <point x="444" y="525"/>
      <point x="424" y="515"/>
    </contour>
  </outline>
</glyph>
<glyph name="Agrave" format="2">
  <advance width="1257"/>
  <unicode hex="00C0"/>
  <anchor x="619" y="0" name="H"/>
  <anchor x="619" y="-97" name="L"/>
  <anchor x="992" y="0" name="O"/>
  <anchor x="619" y="1704" name="U"/>
  <outline>
    <contour>
      <point x="382" y="412" type="line"/>
      <point x="762" y="412" type="line"/>
      <point x="858" y="143" type="line" smooth="yes"/>
      <point x="872" y="100"/>
      <point x="840" y="83"/>
      <point x="741" y="77" type="curve"/>
      <point x="741" y="0" type="line"/>
      <point x="1237" y="0" type="line"/>
      <point x="1237" y="77" type="line"/>
      <point x="1154" y="87"/>
      <point x="1132" y="107"/>
      <point x="1121" y="143" type="curve" smooth="yes"/>
      <point x="715" y="1272" type="line"/>
      <point x="640" y="1252"/>
      <point x="544" y="1216"/>
      <point x="476" y="1159" type="curve"/>
      <point x="144" y="143" type="line" smooth="yes"/>
      <point x="131" y="104"/>
      <point x="87" y="93"/>
      <point x="0" y="77" type="curve"/>
      <point x="0" y="0" type="line"/>
      <point x="427" y="0" type="line"/>
      <point x="427" y="77" type="line"/>
      <point x="322" y="89"/>
      <point x="279" y="103"/>
      <point x="292" y="143" type="curve" smooth="yes"/>
    </contour>
    <contour>
      <point x="719" y="535" type="line"/>
      <point x="422" y="535" type="line"/>
      <point x="562" y="972" type="line"/>
    </contour>
    <contour>
      <point x="804" y="1380" type="curve"/>
      <point x="455" y="1723" type="line"/>
      <point x="426" y="1711"/>
      <point x="272" y="1634"/>
      <point x="251" y="1618" type="curve"/>
      <point x="242" y="1554" type="line"/>
      <point x="734" y="1306" type="line"/>
      <point x="754" y="1320"/>
      <point x="794" y="1358"/>
    </contour>
  </outline>
</glyph>
<glyph name="Aacute" format="2">
  <advance width="1199"/>
  <unicode hex="00C1"/>
  <outline>
    <contour>
      <point x="767" y="427" type="line"/>
      <point x="802" y="322"/>
      <point x="839" y="218"/>
      <point x="875" y="113" type="curve" smooth="yes"/>
      <point x="877" y="107"/>
      <point x="878" y="101"/>
      <point x="878" y="96" type="curve" smooth="yes"/>
      <point x="878" y="65"/>
      <point x="839" y="52"/>
      <point x="752" y="47" type="curve"/>
      <point x="752" y="0" type="line"/>
      <point x="1178" y="0" type="line"/>
      <point x="1178" y="47" type="line"/>
      <point x="1093" y="57"/>
      <point x="1064" y="77"/>
      <point x="1052" y="113" type="curve" smooth="yes"/>
      <point x="916" y="500"/>
      <point x="778" y="886"/>
      <point x="643" y="1274" type="curve"/>
      <point x="603" y="1255"/>
      <point x="545" y="1226"/>
      <point x="509" y="1190" type="curve"/>
      <point x="152" y="113" type="line" smooth="yes"/>
      <point x="139" y="74"/>
      <point x="87" y="63"/>
      <point x="0" y="47" type="curve"/>
      <point x="0" y="0" type="line"/>
      <point x="408" y="0" type="line"/>
      <point x="408" y="47" type="line"/>
      <point x="313" y="58"/>
      <point x="266" y="70"/>
      <point x="266" y="101" type="curve" smooth="yes"/>
      <point x="266" y="104"/>
      <point x="266" y="109"/>
      <point x="268" y="113" type="curve"/>
      <point x="302" y="218"/>
      <point x="337" y="322"/>
      <point x="372" y="427" type="curve"/>
    </contour>
    <contour>
      <point x="403" y="520" type="line"/>
      <point x="565" y="1008" type="line"/>
      <point x="622" y="845"/>
      <point x="678" y="683"/>
      <point x="734" y="520" type="curve"/>
    </contour>
    <contour>
      <point x="919" y="1554" type="line"/>
      <point x="910" y="1600" type="line"/>
      <point x="891" y="1620"/>
      <point x="817" y="1660"/>
      <point x="784" y="1679" type="curve"/>
      <point x="660" y="1575"/>
      <point x="536" y="1471"/>
      <point x="412" y="1368" type="curve"/>
      <point x="429" y="1344"/>
      <point x="438" y="1329"/>
      <point x="460" y="1320" type="curve"/>
    </contour>
  </outline>
</glyph>
<glyph name="Atilde" format="2">
  <advance width="1257"/>
  <unicode hex="00C3"/>
  <anchor x="619" y="0" name="H"/>
  <anchor x="619" y="-97" name="L"/>
  <anchor x="992" y="0" name="O"/>
  <anchor x="619" y="1633" name="U"/>
  <outline>
    <contour>
      <point x="382" y="412" type="line"/>
      <point x="762" y="412" type="line"/>
      <point x="858" y="143" type="line" smooth="yes"/>
      <point x="872" y="100"/>
      <point x="840" y="83"/>
      <point x="741" y="77" type="curve"/>
      <point x="741" y="0" type="line"/>
      <point x="1237" y="0" type="line"/>
      <point x="1237" y="77" type="line"/>
      <point x="1154" y="87"/>
      <point x="1132" y="107"/>
      <point x="1121" y="143" type="curve" smooth="yes"/>
      <point x="715" y="1272" type="line"/>
      <point x="640" y="1252"/>
      <point x="544" y="1216"/>
      <point x="476" y="1159" type="curve"/>
      <point x="144" y="143" type="line" smooth="yes"/>
      <point x="131" y="104"/>
      <point x="87" y="93"/>
      <point x="0" y="77" type="curve"/>
      <point x="0" y="0" type="line"/>
      <point x="427" y="0" type="line"/>
      <point x="427" y="77" type="line"/>
      <point x="322" y="89"/>
      <point x="279" y="103"/>
      <point x="292" y="143" type="curve" smooth="yes"/>
    </contour>
    <contour>
      <point x="719" y="535" type="line"/>
      <point x="422" y="535" type="line"/>
      <point x="562" y="972" type="line"/>
    </contour>
    <contour>
      <point x="1009" y="1599" type="curve"/>
      <point x="931" y="1630" type="line"/>
      <point x="888" y="1554"/>
      <point x="849" y="1520"/>
      <point x="791" y="1520" type="curve" smooth="yes"/>
      <point x="702" y="1520"/>
      <point x="608" y="1620"/>
      <point x="484" y="1620" type="curve" smooth="yes"/>
      <point x="361" y="1620"/>
      <point x="271" y="1440"/>
      <point x="226" y="1335" type="curve"/>
      <point x="304" y="1307" type="line"/>
      <point x="352" y="1378"/>
      <point x="382" y="1417"/>
      <point x="442" y="1417" type="curve" smooth="yes"/>
      <point x="544" y="1417"/>
      <point x="636" y="1317"/>
      <point x="752" y="1317" type="curve" smooth="yes"/>
      <point x="874" y="1317"/>
      <point x="964" y="1494"/>
    </contour>
  </outline>
</glyph>
<glyph name="Adieresis" format="2">
  <advance width="1257"/>
  <unicode hex="00C4"/>
  <anchor x="619" y="0" name="H"/>
  <anchor x="619" y="-97" name="L"/>
  <anchor x="992" y="0" name="O"/>
  <anchor x="619" y="1633" name="U"/>
  <outline>
    <contour>
      <point x="382" y="412" type="line"/>
      <point x="762" y="412" type="line"/>
      <point x="858" y="143" type="line" smooth="yes"/>
      <point x="872" y="100"/>
      <point x="840" y="83"/>
      <point x="741" y="77" type="curve"/>
      <point x="741" y="0" type="line"/>
      <point x="1237" y="0" type="line"/>
      <point x="1237" y="77" type="line"/>
      <point x="1154" y="87"/>
      <point x="1132" y="107"/>
      <point x="1121" y="143" type="curve" smooth="yes"/>
      <point x="715" y="1272" type="line"/>
      <point x="640" y="1252"/>
      <point x="544" y="1216"/>
      <point x="476" y="1159" type="curve"/>
      <point x="144" y="143" type="line" smooth="yes"/>
      <point x="131" y="104"/>
      <point x="87" y="93"/>
      <point x="0" y="77" type="curve"/>
      <point x="0" y="0" type="line"/>
      <point x="427" y="0" type="line"/>
      <point x="427" y="77" type="line"/>
      <point x="322" y="89"/>
      <point x="279" y="103"/>
      <point x="292" y="143" type="curve" smooth="yes"/>
    </contour>
    <contour>
      <point x="719" y="535" type="line"/>
      <point x="422" y="535" type="line"/>
      <point x="562" y="972" type="line"/>
    </contour>
    <contour>
      <point x="553" y="1496" type="curve"/>
      <point x="553" y="1578"/>
      <point x="506" y="1620"/>
      <point x="430" y="1620" type="curve" smooth="yes"/>
      <point x="347" y="1620"/>
      <point x="270" y="1540"/>
      <point x="270" y="1440" type="curve" smooth="yes"/>
      <point x="270" y="1360"/>
      <point x="314" y="1317"/>
      <point x="392" y="1317" type="curve" smooth="yes"/>
      <point x="479" y="1317"/>
      <point x="553" y="1398"/>
    </contour>
    <contour>
      <point x="966" y="1496" type="curve"/>
      <point x="966" y="1578"/>
      <point x="919" y="1620"/>
      <point x="843" y="1620" type="curve" smooth="yes"/>
      <point x="760" y="1620"/>
      <point x="683" y="1540"/>
      <point x="683" y="1440" type="curve" smooth="yes"/>
      <point x="683" y="1360"/>
      <point x="727" y="1317"/>
      <point x="806" y="1317" type="curve" smooth="yes"/>
      <point x="893" y="1317"/>
      <point x="966" y="1398"/>
    </contour>
  </outline>
</glyph>
<glyph name="Aring" format="2">
  <advance width="1257"/>
  <unicode hex="00C5"/>
  <anchor x="619" y="0" name="H"/>
  <anchor x="619" y="-97" name="L"/>
  <anchor x="992" y="0" name="O"/>
  <anchor x="619" y="1748" name="U"/>
  <outline>
    <contour>
      <point x="382" y="412" type="line"/>
      <point x="762" y="412" type="line"/>
      <point x="858" y="143" type="line" smooth="yes"/>
      <point x="872" y="100"/>
      <point x="840" y="83"/>
      <point x="741" y="77" type="curve"/>
      <point x="741" y="0" type="line"/>
      <point x="1237" y="0" type="line"/>
      <point x="1237" y="77" type="line"/>
      <point x="1154" y="87"/>
      <point x="1132" y="107"/>
      <point x="1121" y="143" type="curve" smooth="yes"/>
      <point x="715" y="1272" type="line"/>
      <point x="640" y="1252"/>
      <point x="544" y="1216"/>
      <point x="476" y="1159" type="curve"/>
      <point x="144" y="143" type="line" smooth="yes"/>
      <point x="131" y="104"/>
      <point x="87" y="93"/>
      <point x="0" y="77" type="curve"/>
      <point x="0" y="0" type="line"/>
      <point x="427" y="0" type="line"/>
      <point x="427" y="77" type="line"/>
      <point x="322" y="89"/>
      <point x="279" y="103"/>
      <point x="292" y="143" type="curve" smooth="yes"/>
    </contour>
    <contour>
      <point x="719" y="535" type="line"/>
      <point x="422" y="535" type="line"/>
      <point x="562" y="972" type="line"/>
    </contour>
    <contour>
      <point x="826" y="1577" type="curve"/>
      <point x="825" y="1682"/>
      <point x="759" y="1754"/>
      <point x="649" y="1754" type="curve" smooth="yes"/>
      <point x="524" y="1754"/>
      <point x="413" y="1639"/>
      <point x="413" y="1499" type="curve" smooth="yes"/>
      <point x="413" y="1391"/>
      <point x="485" y="1323"/>
      <point x="589" y="1323" type="curve" smooth="yes"/>
      <point x="714" y="1323"/>
      <point x="826" y="1437"/>
    </contour>
    <contour>
      <point x="686" y="1537" type="curve"/>
      <point x="686" y="1490"/>
      <point x="661" y="1451"/>
      <point x="610" y="1451" type="curve" smooth="yes"/>
      <point x="585" y="1451"/>
      <point x="554" y="1480"/>
      <point x="554" y="1539" type="curve" smooth="yes"/>
      <point x="554" y="1580"/>
      <point x="576" y="1627"/>
      <point x="629" y="1627" type="curve" smooth="yes"/>
      <point x="654" y="1627"/>
      <point x="686" y="1599"/>
    </contour>
  </outline>
</glyph>
<glyph name="AE" format="2">
  <advance width="1669"/>
  <unicode hex="00C6"/>
  <anchor x="903" y="-100" name="L"/>
  <anchor x="978" y="1370" name="U"/>
  <outline>
    <contour>
      <point x="1626" y="318" type="curve"/>
      <point x="1546" y="345" type="line"/>
      <point x="1490" y="189"/>
      <point x="1444" y="127"/>
      <point x="1321" y="127" type="curve" smooth="yes"/>
      <point x="1234" y="127" type="line" smooth="yes"/>
      <point x="1058" y="127"/>
      <point x="1026" y="152"/>
      <point x="1026" y="191" type="curve" smooth="yes"/>
      <point x="1026" y="618" type="line"/>
      <point x="1260" y="618" type="line" smooth="yes"/>
      <point x="1242" y="618"/>
      <point x="1328" y="602"/>
      <point x="1366" y="563" type="curve"/>
      <point x="1392" y="586"/>
      <point x="1436" y="661"/>
      <point x="1458" y="698" type="curve"/>
      <point x="1422" y="735" type="line"/>
      <point x="1026" y="735" type="line"/>
      <point x="1026" y="1133" type="line"/>
      <point x="1356" y="1133" type="line" smooth="yes"/>
      <point x="1408" y="1133"/>
      <point x="1432" y="1059"/>
      <point x="1438" y="936" type="curve"/>
      <point x="1520" y="936" type="line"/>
      <point x="1538" y="987"/>
      <point x="1556" y="1158"/>
      <point x="1560" y="1226" type="curve"/>
      <point x="1521" y="1260" type="line"/>
      <point x="1079" y="1260" type="line"/>
      <point x="911" y="1260" type="line"/>
      <point x="381" y="1260" type="line"/>
      <point x="381" y="1180" type="line"/>
      <point x="512" y="1155"/>
      <point x="544" y="1141"/>
      <point x="525" y="1096" type="curve" smooth="yes"/>
      <point x="142" y="148" type="line" smooth="yes"/>
      <point x="125" y="109"/>
      <point x="80" y="91"/>
      <point x="0" y="80" type="curve"/>
      <point x="0" y="0" type="line"/>
      <point x="416" y="0" type="line"/>
      <point x="416" y="80" type="line"/>
      <point x="320" y="92"/>
      <point x="296" y="109"/>
      <point x="313" y="148" type="curve" smooth="yes"/>
      <point x="503" y="618" type="line"/>
      <point x="756" y="618" type="line"/>
      <point x="756" y="141" type="line" smooth="yes"/>
      <point x="756" y="123"/>
      <point x="712" y="98"/>
      <point x="622" y="80" type="curve"/>
      <point x="622" y="0" type="line"/>
      <point x="1586" y="0" type="line"/>
      <point x="1596" y="39"/>
      <point x="1614" y="203"/>
    </contour>
    <contour>
      <point x="756" y="1111" type="curve" smooth="yes"/>
      <point x="756" y="735" type="line"/>
      <point x="548" y="735" type="line"/>
      <point x="696" y="1094" type="line" smooth="yes"/>
      <point x="715" y="1140"/>
      <point x="756" y="1140"/>
    </contour>
  </outline>
</glyph>
<glyph name="Ccedilla" format="2">
  <advance width="1114"/>
  <unicode hex="00C7"/>
  <anchor x="589" y="-580" name="L"/>
  <anchor x="621" y="1323" name="U"/>
  <outline>
    <contour>
      <point x="1046" y="204" type="curve"/>
      <point x="1040" y="213"/>
      <point x="1006" y="264"/>
      <point x="992" y="274" type="curve"/>
      <point x="860" y="164"/>
      <point x="735" y="141"/>
      <point x="666" y="141" type="curve" smooth="yes"/>
      <point x="500" y="141"/>
      <point x="316" y="276"/>
      <point x="316" y="602" type="curve" smooth="yes"/>
      <point x="316" y="1003"/>
      <point x="475" y="1113"/>
      <point x="608" y="1113" type="curve" smooth="yes"/>
      <point x="703" y="1113"/>
      <point x="789" y="1064"/>
      <point x="853" y="938" type="curve"/>
      <point x="923" y="923" type="line"/>
      <point x="952" y="953"/>
      <point x="1042" y="1138"/>
      <point x="1028" y="1150" type="curve" smooth="yes"/>
      <point x="961" y="1203"/>
      <point x="810" y="1246"/>
      <point x="670" y="1246" type="curve" smooth="yes"/>
      <point x="319" y="1246"/>
      <point x="50" y="978"/>
      <point x="50" y="566" type="curve" smooth="yes"/>
      <point x="50" y="192"/>
      <point x="304" y="-29"/>
      <point x="570" y="-29" type="curve" smooth="yes"/>
      <point x="721" y="-29"/>
      <point x="882" y="37"/>
    </contour>
    <contour>
      <point x="807" y="-221" type="curve"/>
      <point x="807" y="-149"/>
      <point x="751" y="-101"/>
      <point x="644" y="-83" type="curve"/>
      <point x="695" y="48" type="line"/>
      <point x="565" y="50" type="line"/>
      <point x="497" y="-165"/>
      <point x="473" y="-193"/>
      <point x="473" y="-193" type="curve"/>
      <point x="525" y="-197"/>
      <point x="556" y="-214"/>
      <point x="556" y="-258" type="curve" smooth="yes"/>
      <point x="556" y="-299"/>
      <point x="514" y="-340"/>
      <point x="407" y="-355" type="curve"/>
      <point x="446" y="-429" type="line"/>
      <point x="645" y="-410"/>
      <point x="807" y="-317"/>
    </contour>
  </outline>
</glyph>
<glyph name="Igrave" format="2">
  <advance width="660"/>
  <unicode hex="00CC"/>
  <anchor x="321" y="0" name="H"/>
  <anchor x="321" y="-97" name="L"/>
  <anchor x="379" y="0" name="O"/>
  <anchor x="585" y="1063" name="R"/>
  <anchor x="321" y="1704" name="U"/>
  <outline>
    <contour>
      <point x="59" y="0" type="line"/>
      <point x="582" y="0" type="line"/>
      <point x="582" y="77" type="line"/>
      <point x="490" y="95"/>
      <point x="452" y="121"/>
      <point x="452" y="136" type="curve" smooth="yes"/>
      <point x="452" y="1080" type="line" smooth="yes"/>
      <point x="452" y="1098"/>
      <point x="496" y="1122"/>
      <point x="582" y="1140" type="curve"/>
      <point x="582" y="1217" type="line"/>
      <point x="59" y="1217" type="line"/>
      <point x="59" y="1140" type="line"/>
      <point x="152" y="1122"/>
      <point x="189" y="1095"/>
      <point x="189" y="1080" type="curve" smooth="yes"/>
      <point x="189" y="136" type="line" smooth="yes"/>
      <point x="189" y="119"/>
      <point x="146" y="95"/>
      <point x="59" y="77" type="curve"/>
    </contour>
    <contour>
      <point x="506" y="1380" type="curve"/>
      <point x="157" y="1723" type="line"/>
      <point x="128" y="1711"/>
      <point x="-25" y="1634"/>
      <point x="-46" y="1618" type="curve"/>
      <point x="-55" y="1554" type="line"/>
      <point x="437" y="1306" type="line"/>
      <point x="457" y="1320"/>
      <point x="497" y="1358"/>
    </contour>
  </outline>
</glyph>
<glyph name="Iacute" format="2">
  <advance width="660"/>
  <unicode hex="00CD"/>
  <anchor x="321" y="0" name="H"/>
  <anchor x="321" y="-97" name="L"/>
  <anchor x="379" y="0" name="O"/>
  <anchor x="585" y="1063" name="R"/>
  <anchor x="321" y="1704" name="U"/>
  <outline>
    <contour>
      <point x="59" y="0" type="line"/>
      <point x="582" y="0" type="line"/>
      <point x="582" y="77" type="line"/>
      <point x="490" y="95"/>
      <point x="452" y="121"/>
      <point x="452" y="136" type="curve" smooth="yes"/>
      <point x="452" y="1080" type="line" smooth="yes"/>
      <point x="452" y="1098"/>
      <point x="496" y="1122"/>
      <point x="582" y="1140" type="curve"/>
      <point x="582" y="1217" type="line"/>
      <point x="59" y="1217" type="line"/>
      <point x="59" y="1140" type="line"/>
      <point x="152" y="1122"/>
      <point x="189" y="1095"/>
      <point x="189" y="1080" type="curve" smooth="yes"/>
      <point x="189" y="136" type="line" smooth="yes"/>
      <point x="189" y="119"/>
      <point x="146" y="95"/>
      <point x="59" y="77" type="curve"/>
    </contour>
    <contour>
      <point x="175" y="1310" type="curve"/>
      <point x="676" y="1542" type="line"/>
      <point x="666" y="1605" type="line"/>
      <point x="642" y="1624"/>
      <point x="485" y="1705"/>
      <point x="458" y="1717" type="curve"/>
      <point x="105" y="1382" type="line"/>
      <point x="116" y="1367"/>
      <point x="155" y="1321"/>
    </contour>
  </outline>
</glyph>
<glyph name="Icircumflex" format="2">
  <advance width="660"/>
  <unicode hex="00CE"/>
  <anchor x="321" y="0" name="H"/>
  <anchor x="321" y="-97" name="L"/>
  <anchor x="379" y="0" name="O"/>
  <anchor x="585" y="1063" name="R"/>
  <anchor x="321" y="1764" name="U"/>
  <outline>
    <contour>
      <point x="59" y="0" type="line"/>
      <point x="582" y="0" type="line"/>
      <point x="582" y="77" type="line"/>
      <point x="490" y="95"/>
      <point x="452" y="121"/>
      <point x="452" y="136" type="curve" smooth="yes"/>
      <point x="452" y="1080" type="line" smooth="yes"/>
      <point x="452" y="1098"/>
      <point x="496" y="1122"/>
      <point x="582" y="1140" type="curve"/>
      <point x="582" y="1217" type="line"/>
      <point x="59" y="1217" type="line"/>
      <point x="59" y="1140" type="line"/>
      <point x="152" y="1122"/>
      <point x="189" y="1095"/>
      <point x="189" y="1080" type="curve" smooth="yes"/>
      <point x="189" y="136" type="line" smooth="yes"/>
      <point x="189" y="119"/>
      <point x="146" y="95"/>
      <point x="59" y="77" type="curve"/>
    </contour>
    <contour>
      <point x="653" y="1381" type="curve"/>
      <point x="391" y="1707" type="line"/>
      <point x="252" y="1707" type="line"/>
      <point x="-21" y="1381" type="line"/>
      <point x="-3" y="1358"/>
      <point x="28" y="1321"/>
      <point x="49" y="1312" type="curve"/>
      <point x="320" y="1468" type="line"/>
      <point x="591" y="1312" type="line"/>
      <point x="613" y="1321"/>
      <point x="638" y="1358"/>
    </contour>
  </outline>
</glyph>
